<?xml version="1.0" encoding="utf-8"?>
<!-- Generator: Adobe Illustrator 16.0.0, SVG Export Plug-In . SVG Version: 6.00 Build 0)  -->
<!DOCTYPE svg PUBLIC "-//W3C//DTD SVG 1.1//EN" "http://www.w3.org/Graphics/SVG/1.1/DTD/svg11.dtd">
<svg version="1.1" id="Capa_1" xmlns="http://www.w3.org/2000/svg" xmlns:xlink="http://www.w3.org/1999/xlink" x="0px" y="0px"
	 width="892px" height="376.5px" viewBox="0 0 892 376.5" enable-background="new 0 0 892 376.5" xml:space="preserve">
<g>
	<g>
		<path fill="#004B30" d="M602.829,183.865c0.235-3.947-1.854-7.448-4.859-8.53c0.302-0.839,0.494-1.75,0.552-2.714
			c0.271-4.561-2.557-8.525-6.318-8.855c-1.117-0.098-2.191,0.139-3.157,0.638c-0.601-3.54-3.075-6.315-6.194-6.588
			c-0.73-0.063-1.441,0.017-2.116,0.217c-0.819-3.138-3.146-5.508-6.017-5.759c-1.891-0.166-3.658,0.621-4.982,2.024
			c-1.056-2.474-3.115-4.243-5.574-4.458c-3.535-0.311-6.635,2.705-7.219,6.857c-0.518-0.205-1.063-0.338-1.628-0.388
			c-2.358-0.206-4.522,1.065-5.876,3.169c-1.119-2.148-3.034-3.648-5.283-3.844c-3.762-0.33-7.029,3.101-7.301,7.662
			c-0.021,0.366-0.021,0.729-0.005,1.086c-3.519,0.039-6.481,3.348-6.739,7.681c-0.152,2.567,0.676,4.945,2.102,6.593
			c-0.007,0.076-0.015,0.153-0.02,0.23c-0.153,2.583,0.688,4.974,2.128,6.622c-3.249,2.495-5.077,5.931-4.405,8.983
			c0.799,3.636,4.891,5.597,9.782,5.056c1.423,2.851,4.585,5,8.37,5.332c3.27,0.286,6.24-0.853,8.114-2.826
			c0.718,0.397,1.506,0.649,2.339,0.723c2.269,0.199,4.357-0.972,5.717-2.932c1.135,1.479,2.715,2.463,4.506,2.619
			c3.16,0.277,5.971-2.101,6.951-5.573c0.514-0.073,1.02-0.157,1.519-0.251c0.981,2.733,3.148,4.729,5.769,4.959
			c1.403,0.122,2.738-0.278,3.874-1.065c0.957,0.784,2.09,1.285,3.324,1.394c3.761,0.329,7.029-3.101,7.301-7.661
			c0.059-0.988-0.028-1.947-0.238-2.849C600.236,190.76,602.6,187.715,602.829,183.865z"/>
		<path fill="#A67235" d="M578.76,240.469c0,0,1.297-6.293-0.928-9.665c-2.223-3.371-3.705-4.046-3.335-7.866
			s0.186-14.16,0.186-14.16s6.671-8.541,7.228-10.34c0.555-1.798,1.482-9.439,1.482-9.439l-1.854-1.124c0,0-4.262,9.44-5.93,10.563
			c-1.668,1.125-3.521-9.664-3.521-9.664l-7.412-0.899l-2.595,11.688l-6.671-7.193l-1.111,2.473c0,0,3.52,3.371,5.373,10.789
			s2.595,21.127,2.595,21.127s-0.37,2.698-2.224,3.598c-1.854,0.898-3.336,2.696-4.076,4.719c-0.742,2.023-1.669,1.574-1.482,4.945
			c0.185,3.371,3.521,6.068,4.262,6.293C559.486,246.538,578.76,240.469,578.76,240.469z"/>
		<path fill="#6F4A24" d="M561.525,247.717l-4.03-5.9c0,0-2.085-3.539,0.833-5.899c2.92-2.36,4.17-3.709,4.588-5.731
			c0.416-2.023-0.279-4.889-0.14-7.08s0-6.574,0-8.934c0-2.361-2.363-8.261-2.919-10.115c-0.556-1.854-3.752-9.608-3.752-9.608
			l3.057-0.675c0,0,1.251,7.418,2.086,7.586c0.833,0.168,1.389,0.674,1.389,0.674l0.974-4.719c0,0,2.641-5.395,2.919-6.069
			c0.277-0.675,5.697,0.169,5.697,0.169s0.557,8.766,1.391,8.766s2.084-0.169,2.084-0.169s4.448-6.405,5.004-9.946
			c0.557-3.539,1.807,1.012,1.807,1.012s-1.668,6.743-2.641,7.924c-0.973,1.18-5.977,8.597-5.977,8.597l-0.139,4.214
			c0,0-1.251,13.992-0.695,15.341c0.557,1.349,7.228,6.574,4.17,14.497L561.525,247.717z"/>
		<path fill="#A67235" d="M568.104,200.236c0,0-0.092,5.281,0.927,8.653c1.02,3.371,0.927,4.495-0.556,6.742
			c-1.482,2.248-2.039,4.72-1.945,6.293c0.092,1.574-0.557,1.687-0.557,1.687s0.463-2.248-0.37-6.068
			c-0.834-3.821-2.595-4.945-1.298-7.418c1.298-2.472,2.409-6.855,2.502-8.428C566.899,200.124,568.104,200.236,568.104,200.236z"/>
		<path fill="#6F4A24" d="M567.811,201.922c0,0-0.072,4.494,0.721,7.363c0.794,2.869,0.722,3.826-0.433,5.738
			s-1.587,4.016-1.515,5.354s-0.434,1.435-0.434,1.435s0.361-1.913-0.289-5.164c-0.649-3.252-2.021-4.208-1.01-6.312
			c1.01-2.104,1.876-5.834,1.948-7.173C566.871,201.825,567.811,201.922,567.811,201.922z"/>
		<path fill="#A67235" d="M567.457,205.405c0,0-0.044,2.742,0.443,4.493c0.488,1.75,0.443,2.334-0.266,3.501
			c-0.71,1.167-0.976,2.45-0.931,3.268c0.044,0.817-0.267,0.876-0.267,0.876s0.222-1.168-0.178-3.152
			c-0.398-1.983-1.241-2.567-0.621-3.85c0.621-1.285,1.153-3.561,1.197-4.378C566.881,205.347,567.457,205.405,567.457,205.405z"/>
		<path fill="#6F4A24" d="M567.096,207.878c0,0-0.021,1.549,0.225,2.538c0.245,0.988,0.223,1.318-0.135,1.977
			c-0.358,0.659-0.492,1.385-0.471,1.847c0.023,0.461-0.133,0.493-0.133,0.493s0.111-0.658-0.09-1.779
			c-0.202-1.121-0.627-1.45-0.314-2.176c0.314-0.725,0.582-2.011,0.605-2.471C566.805,207.845,567.096,207.878,567.096,207.878z"/>
		<path fill="#A67235" d="M578.481,198.662l-2.988,3.119c0,0-1.469,2.449-2.167,4.214c-0.045,0.116-0.088,0.229-0.126,0.337
			c-0.626,1.771,1.112-1.686,1.112-1.686l1.598-2.359l1.945-2.445L578.481,198.662z"/>
		<path fill="#A67235" d="M571.672,198.578c0,0-1.043,4.215-0.695,6.152c0.348,1.939,0.486,4.721,0.348,7.755
			s-0.766,5.226-2.225,8.513s-2.779,5.9-2.641,7.755c0.14,1.854-0.139,2.022-0.139,2.022s-0.695-2.528,0.417-4.889
			s3.544-8.935,3.753-9.692c0.208-0.759,0.555-11.126-0.278-12.728S571.672,198.578,571.672,198.578z"/>
		<path fill="#A67235" d="M566.945,197.734c0,0-0.833-0.336-1.39,3.035c-0.556,3.371,0,2.359-0.973,5.057s-0.765,3.288-1.32,2.697
			c-0.556-0.59-0.347,0.169-1.112-1.938c-0.764-2.106-2.084-3.118-2.084-3.624s0.416,0.168,0.416,0.168s1.321,1.434,1.808,2.529
			s1.042,2.697,1.459,1.433s1.599-3.708,1.182-5.226S565.973,196.977,566.945,197.734z"/>
		<path fill="#A67235" d="M564.305,219.145c0,0,1.32,4.382,0.348,8.176c-0.973,3.792-1.459,3.961-1.807,6.826
			c-0.348,2.866,0.695,4.215-0.973,6.237c-1.668,2.023-1.599,4.468-1.599,4.468s-0.694-2.276,2.016-5.815
			c0,0-0.14-5.311,0.556-6.491C562.846,232.545,566.112,224.875,564.305,219.145z"/>
		<path fill="#A67235" d="M571.811,210.715c0,0,1.32,4.383,0.348,8.176s-1.46,3.962-1.808,6.828
			c-0.347,2.865,0.694,4.214-0.972,6.236c-1.669,2.023-1.6,4.468-1.6,4.468s-0.695-2.276,2.016-5.816c0,0-0.139-5.31,0.556-6.489
			C570.351,224.117,573.617,216.447,571.811,210.715z"/>
		<path fill="#A67235" d="M572.922,227.91c0,0,1.32,4.382,0.348,8.176c-0.973,3.793-1.459,3.961-1.807,6.827
			c-0.348,2.865,0.695,4.214-0.973,6.237c-1.668,2.022-1.599,4.467-1.599,4.467s-0.695-2.275,2.015-5.816
			c0,0-0.139-5.31,0.557-6.489C571.463,241.312,574.729,233.642,572.922,227.91z"/>
		<path fill="#A67235" d="M565.139,232.292c0,0,1.32,4.384,0.348,8.177s-1.459,3.961-1.807,6.826
			c-0.348,2.867,0.695,4.215-0.973,6.238c-1.668,2.022-1.599,4.467-1.599,4.467s-0.695-2.275,2.015-5.815
			c0,0-0.139-5.311,0.557-6.49C563.68,245.694,566.945,238.024,565.139,232.292z"/>
		<path fill="#006646" d="M606,173.545c0-4.433-2.566-8.138-5.994-9.053c0.28-0.965,0.436-2.003,0.436-3.084
			c0-5.121-3.423-9.271-7.645-9.271c-1.256,0-2.439,0.369-3.485,1.02c-0.905-3.895-3.854-6.752-7.355-6.752
			c-0.819,0-1.608,0.159-2.349,0.448c-1.125-3.422-3.879-5.842-7.103-5.842c-2.124,0-4.046,1.051-5.431,2.748
			c-1.344-2.659-3.762-4.435-6.521-4.435c-3.97,0-7.231,3.671-7.607,8.365c-0.591-0.178-1.208-0.273-1.844-0.273
			c-2.647,0-4.98,1.633-6.353,4.114c-1.392-2.29-3.63-3.776-6.155-3.776c-4.223,0-7.645,4.15-7.645,9.271
			c0,0.412,0.024,0.816,0.067,1.214c-3.929,0.388-7.017,4.374-7.017,9.238c0,2.882,1.084,5.456,2.785,7.157
			c-0.002,0.087-0.006,0.173-0.006,0.26c0,2.899,1.098,5.487,2.816,7.188c-3.463,3.104-5.276,7.119-4.322,10.465
			c1.135,3.981,5.834,5.771,11.262,4.689c1.777,3.044,5.453,5.136,9.702,5.136c3.671,0,6.913-1.563,8.874-3.949
			c0.829,0.373,1.726,0.578,2.662,0.578c2.546,0,4.801-1.512,6.189-3.835c1.365,1.542,3.194,2.486,5.207,2.486
			c3.547,0,6.528-2.931,7.391-6.904c0.568-0.133,1.129-0.276,1.681-0.43c1.277,2.956,3.83,4.974,6.772,4.974
			c1.575,0,3.039-0.578,4.256-1.569c1.121,0.782,2.419,1.231,3.805,1.231c4.223,0,7.645-4.15,7.645-9.271
			c0-1.108-0.161-2.171-0.455-3.156C603.563,181.497,606,177.867,606,173.545z"/>
		<path fill="#004B30" d="M601.955,172.92c0-3.959-2.291-7.268-5.354-8.085c0.251-0.862,0.389-1.788,0.389-2.755
			c0-4.573-3.057-8.279-6.826-8.279c-1.121,0-2.179,0.329-3.112,0.911c-0.808-3.479-3.442-6.03-6.569-6.03
			c-0.732,0-1.437,0.142-2.098,0.4c-1.004-3.057-3.464-5.218-6.342-5.218c-1.896,0-3.613,0.939-4.85,2.455
			c-1.201-2.376-3.359-3.96-5.825-3.96c-3.544,0-6.458,3.277-6.794,7.47c-0.527-0.159-1.078-0.244-1.646-0.244
			c-2.364,0-4.447,1.458-5.672,3.673c-1.243-2.044-3.242-3.371-5.498-3.371c-3.77,0-6.826,3.707-6.826,8.279
			c0,0.367,0.021,0.729,0.061,1.084c-3.508,0.346-6.267,3.906-6.267,8.25c0,2.574,0.968,4.873,2.487,6.391
			c-0.002,0.078-0.005,0.155-0.005,0.232c0,2.59,0.979,4.901,2.515,6.419c-3.092,2.773-4.712,6.358-3.86,9.346
			c1.014,3.556,5.211,5.153,10.058,4.188c1.588,2.718,4.87,4.586,8.664,4.586c3.279,0,6.174-1.395,7.926-3.527
			c0.74,0.334,1.541,0.517,2.377,0.517c2.273,0,4.287-1.351,5.527-3.424c1.219,1.376,2.854,2.22,4.65,2.22
			c3.167,0,5.83-2.617,6.601-6.166c0.508-0.118,1.007-0.247,1.5-0.383c1.142,2.639,3.421,4.441,6.048,4.441
			c1.407,0,2.715-0.518,3.801-1.402c1.001,0.699,2.161,1.101,3.398,1.101c3.771,0,6.826-3.707,6.826-8.279
			c0-0.99-0.143-1.939-0.406-2.819C599.778,180.021,601.955,176.778,601.955,172.92z"/>
	</g>
	<g>
		
			<linearGradient id="SVGID_1_" gradientUnits="userSpaceOnUse" x1="-2942.2905" y1="190.6631" x2="-2945.9355" y2="190.649" gradientTransform="matrix(-1 0 0 1 -2235.8379 0)">
			<stop  offset="0.4077" style="stop-color:#FFFFFF"/>
			<stop  offset="0.7709" style="stop-color:#BDBDBD"/>
		</linearGradient>
		<polygon fill="url(#SVGID_1_)" stroke="#B3B3B3" stroke-miterlimit="10" points="709.699,132.157 710.857,249.5 706.223,249.5 
			706.924,131.808 		"/>
		<polygon fill="#FFFFFF" stroke="#B3B3B3" stroke-miterlimit="10" points="706.924,134.506 709.771,134.521 710.025,131.257 
			706.344,131.274 		"/>
		<g>
			<linearGradient id="SVGID_2_" gradientUnits="userSpaceOnUse" x1="708.2842" y1="114.9297" x2="718.4727" y2="114.9297">
				<stop  offset="0.4077" style="stop-color:#FFFFFF"/>
				<stop  offset="0.7709" style="stop-color:#BDBDBD"/>
			</linearGradient>
			<polygon fill="url(#SVGID_2_)" stroke="#B3B3B3" stroke-miterlimit="10" points="709.202,129.034 713.01,126.188 718.473,100.5 
				717.81,100.5 708.284,129.359 			"/>
			
				<linearGradient id="SVGID_3_" gradientUnits="userSpaceOnUse" x1="1920.1787" y1="5541.0654" x2="1930.3672" y2="5541.0654" gradientTransform="matrix(-0.4979 -0.8672 0.8672 -0.4979 -3154.2588 4562.6455)">
				<stop  offset="0.4077" style="stop-color:#FFFFFF"/>
				<stop  offset="0.7709" style="stop-color:#BDBDBD"/>
			</linearGradient>
			<polygon fill="url(#SVGID_3_)" stroke="#B3B3B3" stroke-miterlimit="10" points="706.909,130.467 702.426,128.649 
				677.31,136.772 677.639,137.347 707.529,131.169 			"/>
			
				<linearGradient id="SVGID_4_" gradientUnits="userSpaceOnUse" x1="-3425.0903" y1="4124.4951" x2="-3414.9028" y2="4124.4951" gradientTransform="matrix(-0.5634 0.8262 -0.8262 -0.5634 2198.2102 5291.8755)">
				<stop  offset="0.4077" style="stop-color:#FFFFFF"/>
				<stop  offset="0.7709" style="stop-color:#BDBDBD"/>
			</linearGradient>
			<polygon fill="url(#SVGID_4_)" stroke="#B3B3B3" stroke-miterlimit="10" points="708.186,131.012 708.504,135.838 
				726.764,154.902 727.137,154.354 708.547,130.147 			"/>
			
				<radialGradient id="SVGID_5_" cx="-2944.0474" cy="130.6816" r="1.9866" gradientTransform="matrix(-1 0 0 1 -2235.8379 0)" gradientUnits="userSpaceOnUse">
				<stop  offset="0" style="stop-color:#FFFFFF"/>
				<stop  offset="1" style="stop-color:#D1D1D1"/>
			</radialGradient>
			<circle fill="url(#SVGID_5_)" stroke="#B3B3B3" stroke-miterlimit="10" cx="708.209" cy="130.683" r="1.987"/>
		</g>
	</g>
	<g>
		
			<linearGradient id="SVGID_6_" gradientUnits="userSpaceOnUse" x1="-2898.8013" y1="197.8701" x2="-2900.9456" y2="197.8618" gradientTransform="matrix(-1 0 0 1 -2235.8379 0)">
			<stop  offset="0.4077" style="stop-color:#FFFFFF"/>
			<stop  offset="0.7709" style="stop-color:#BDBDBD"/>
		</linearGradient>
		<polygon fill="url(#SVGID_6_)" stroke="#B3B3B3" stroke-miterlimit="10" points="664.873,163.435 665.555,232.5 662.828,232.5 
			663.24,163.229 		"/>
		<polygon fill="#FFFFFF" stroke="#B3B3B3" stroke-miterlimit="10" points="663.24,164.816 664.916,164.826 665.065,162.904 
			662.898,162.915 		"/>
		<g>
			<linearGradient id="SVGID_7_" gradientUnits="userSpaceOnUse" x1="664.041" y1="153.0684" x2="670.0371" y2="153.0684">
				<stop  offset="0.4077" style="stop-color:#FFFFFF"/>
				<stop  offset="0.7709" style="stop-color:#BDBDBD"/>
			</linearGradient>
			<polygon fill="url(#SVGID_7_)" stroke="#B3B3B3" stroke-miterlimit="10" points="664.581,161.597 666.822,159.771 670.037,144.5 
				669.646,144.5 664.041,161.637 			"/>
			
				<linearGradient id="SVGID_8_" gradientUnits="userSpaceOnUse" x1="1914.5781" y1="5493.1543" x2="1920.5742" y2="5493.1543" gradientTransform="matrix(-0.4979 -0.8672 0.8672 -0.4979 -3154.2588 4562.6455)">
				<stop  offset="0.4077" style="stop-color:#FFFFFF"/>
				<stop  offset="0.7709" style="stop-color:#BDBDBD"/>
			</linearGradient>
			<polygon fill="url(#SVGID_8_)" stroke="#B3B3B3" stroke-miterlimit="10" points="663.231,162.439 660.593,161.37 645.81,166.15 
				646.004,166.489 663.596,162.853 			"/>
			
				<linearGradient id="SVGID_9_" gradientUnits="userSpaceOnUse" x1="-3373.5776" y1="4149.0137" x2="-3367.5811" y2="4149.0137" gradientTransform="matrix(-0.5634 0.8262 -0.8262 -0.5634 2198.2102 5291.8755)">
				<stop  offset="0.4077" style="stop-color:#FFFFFF"/>
				<stop  offset="0.7709" style="stop-color:#BDBDBD"/>
			</linearGradient>
			<polygon fill="url(#SVGID_9_)" stroke="#B3B3B3" stroke-miterlimit="10" points="663.982,162.76 664.17,165.601 674.917,176.822 
				675.137,176.499 664.195,162.252 			"/>
			
				<radialGradient id="SVGID_10_" cx="-2899.835" cy="162.5659" r="1.1692" gradientTransform="matrix(-1 0 0 1 -2235.8379 0)" gradientUnits="userSpaceOnUse">
				<stop  offset="0" style="stop-color:#FFFFFF"/>
				<stop  offset="1" style="stop-color:#D1D1D1"/>
			</radialGradient>
			<circle fill="url(#SVGID_10_)" stroke="#B3B3B3" stroke-miterlimit="10" cx="663.997" cy="162.566" r="1.169"/>
		</g>
	</g>
	<path fill="#377303" d="M880.666,232.667c0,0-78.666-28-184-22s-160,42.667-201.334,58.667c-41.332,16-82,53.334-112.666,56.667
		s164,14,164,14l266.667-42.667L880.666,232.667z"/>
	<g>
		
			<linearGradient id="SVGID_11_" gradientUnits="userSpaceOnUse" x1="-2853.2842" y1="210.9424" x2="-2861.8059" y2="210.9095" gradientTransform="matrix(-1 0 0 1 -2235.8379 0)">
			<stop  offset="0.4077" style="stop-color:#FFFFFF"/>
			<stop  offset="0.7709" style="stop-color:#BDBDBD"/>
		</linearGradient>
		<polygon fill="url(#SVGID_11_)" stroke="#B3B3B3" stroke-miterlimit="10" points="625.035,74.157 627.744,348.5 616.908,348.5 
			618.548,73.34 		"/>
		<polygon fill="#FFFFFF" stroke="#B3B3B3" stroke-miterlimit="10" points="618.548,79.648 625.203,79.685 625.798,72.053 
			617.189,72.094 		"/>
		<g>
			<linearGradient id="SVGID_12_" gradientUnits="userSpaceOnUse" x1="621.7266" y1="34.1475" x2="645.5449" y2="34.1475">
				<stop  offset="0.4077" style="stop-color:#FFFFFF"/>
				<stop  offset="0.7709" style="stop-color:#BDBDBD"/>
			</linearGradient>
			<polygon fill="url(#SVGID_12_)" stroke="#B3B3B3" stroke-miterlimit="10" points="623.873,66.855 632.775,60.381 645.545,0.5 
				643.996,0.5 621.727,67.795 			"/>
			
				<linearGradient id="SVGID_13_" gradientUnits="userSpaceOnUse" x1="2015.2256" y1="5475.2656" x2="2039.0449" y2="5475.2656" gradientTransform="matrix(-0.4979 -0.8672 0.8672 -0.4979 -3154.2588 4562.6455)">
				<stop  offset="0.4077" style="stop-color:#FFFFFF"/>
				<stop  offset="0.7709" style="stop-color:#BDBDBD"/>
			</linearGradient>
			<polygon fill="url(#SVGID_13_)" stroke="#B3B3B3" stroke-miterlimit="10" points="618.513,70.205 608.031,65.957 549.31,84.947 
				550.08,86.291 619.963,71.847 			"/>
			
				<linearGradient id="SVGID_14_" gradientUnits="userSpaceOnUse" x1="-3426.6572" y1="4210.5107" x2="-3402.8379" y2="4210.5107" gradientTransform="matrix(-0.5634 0.8262 -0.8262 -0.5634 2198.2102 5291.8755)">
				<stop  offset="0.4077" style="stop-color:#FFFFFF"/>
				<stop  offset="0.7709" style="stop-color:#BDBDBD"/>
			</linearGradient>
			<polygon fill="url(#SVGID_14_)" stroke="#B3B3B3" stroke-miterlimit="10" points="621.496,71.479 622.241,82.764 664.93,127.336 
				665.803,126.055 622.341,69.459 			"/>
			
				<radialGradient id="SVGID_15_" cx="-2857.3906" cy="70.7085" r="4.6443" gradientTransform="matrix(-1 0 0 1 -2235.8379 0)" gradientUnits="userSpaceOnUse">
				<stop  offset="0" style="stop-color:#FFFFFF"/>
				<stop  offset="1" style="stop-color:#D1D1D1"/>
			</radialGradient>
			<circle fill="url(#SVGID_15_)" stroke="#B3B3B3" stroke-miterlimit="10" cx="621.553" cy="70.71" r="4.645"/>
		</g>
	</g>
	<g>
		<path fill="#004B30" d="M878.006,121.868c0.445-7.463-3.504-14.08-9.186-16.125c0.57-1.585,0.934-3.308,1.043-5.13
			c0.513-8.621-4.834-16.115-11.941-16.738c-2.114-0.186-4.145,0.262-5.97,1.204c-1.134-6.691-5.813-11.937-11.708-12.452
			c-1.381-0.121-2.725,0.03-4,0.409c-1.551-5.93-5.946-10.41-11.372-10.886c-3.576-0.313-6.917,1.176-9.419,3.827
			c-1.996-4.676-5.889-8.021-10.537-8.428c-6.683-0.585-12.543,5.113-13.646,12.963c-0.978-0.387-2.007-0.639-3.077-0.732
			c-4.458-0.391-8.549,2.015-11.107,5.989c-2.114-4.061-5.734-6.895-9.986-7.266c-7.109-0.623-13.287,5.861-13.801,14.483
			c-0.041,0.692-0.04,1.377-0.008,2.053c-6.652,0.074-12.252,6.329-12.74,14.519c-0.288,4.854,1.279,9.348,3.973,12.462
			c-0.012,0.146-0.027,0.29-0.035,0.437c-0.291,4.882,1.299,9.4,4.021,12.518c-6.142,4.717-9.598,11.209-8.328,16.98
			c1.512,6.872,9.246,10.578,18.492,9.557c2.688,5.389,8.667,9.451,15.82,10.078c6.182,0.541,11.797-1.61,15.338-5.342
			c1.358,0.752,2.848,1.229,4.424,1.366c4.287,0.376,8.234-1.837,10.805-5.542c2.145,2.796,5.131,4.655,8.518,4.951
			c5.973,0.523,11.287-3.971,13.138-10.534c0.971-0.139,1.927-0.298,2.871-0.475c1.855,5.165,5.951,8.938,10.905,9.373
			c2.651,0.231,5.174-0.526,7.322-2.015c1.809,1.482,3.949,2.431,6.283,2.635c7.109,0.623,13.287-5.861,13.801-14.482
			c0.11-1.867-0.055-3.68-0.451-5.384C873.104,134.898,877.572,129.145,878.006,121.868z"/>
		<path fill="#A67235" d="M832.509,228.862c0,0,2.452-11.896-1.752-18.27c-4.204-6.372-7.006-7.647-6.305-14.869
			c0.7-7.223,0.351-26.767,0.351-26.767s12.609-16.145,13.66-19.544c1.051-3.398,2.803-17.844,2.803-17.844l-3.503-2.124
			c0,0-8.057,17.844-11.21,19.968c-3.151,2.125-6.654-18.268-6.654-18.268l-14.012-1.7l-4.904,22.093l-12.609-13.596l-2.102,4.674
			c0,0,6.654,6.372,10.158,20.394c3.502,14.021,4.903,39.936,4.903,39.936s-0.7,5.1-4.203,6.799s-6.306,5.098-7.706,8.921
			c-1.4,3.824-3.153,2.975-2.803,9.349c0.352,6.372,6.656,11.47,8.057,11.895C796.079,240.334,832.509,228.862,832.509,228.862z"/>
		<path fill="#6F4A24" d="M799.932,242.563l-7.618-11.152c0,0-3.94-6.691,1.576-11.152s7.882-7.011,8.67-10.834
			c0.788-3.824-0.526-9.24-0.263-13.384c0.263-4.143,0-12.427,0-16.887c0-4.462-4.467-15.614-5.518-19.12
			c-1.051-3.504-7.093-18.162-7.093-18.162l5.78-1.274c0,0,2.363,14.021,3.939,14.339s2.627,1.274,2.627,1.274l1.84-8.921
			c0,0,4.992-10.197,5.518-11.473c0.524-1.274,10.771,0.319,10.771,0.319s1.051,16.569,2.627,16.569s3.94-0.318,3.94-0.318
			s8.407-12.108,9.458-18.801c1.051-6.691,3.415,1.912,3.415,1.912s-3.152,12.746-4.991,14.977s-11.297,16.251-11.297,16.251
			l-0.263,7.966c0,0-2.364,26.447-1.313,28.997c1.051,2.549,13.661,12.427,7.882,27.403L799.932,242.563z"/>
		<path fill="#A67235" d="M812.367,152.812c0,0-0.176,9.984,1.752,16.357c1.926,6.373,1.75,8.497-1.051,12.745
			c-2.803,4.249-3.854,8.922-3.678,11.896c0.175,2.975-1.052,3.187-1.052,3.187s0.876-4.248-0.7-11.471s-4.904-9.348-2.452-14.021
			s4.554-12.958,4.729-15.932S812.367,152.812,812.367,152.812z"/>
		<path fill="#6F4A24" d="M811.813,155.998c0,0-0.138,8.496,1.363,13.919c1.5,5.423,1.363,7.231-0.818,10.847
			c-2.183,3.614-3.001,7.591-2.864,10.121c0.136,2.532-0.819,2.713-0.819,2.713s0.683-3.617-0.545-9.762
			c-1.229-6.146-3.82-7.954-1.91-11.931s3.547-11.027,3.684-13.558C810.038,155.816,811.813,155.998,811.813,155.998z"/>
		<path fill="#A67235" d="M811.145,162.583c0,0-0.084,5.184,0.838,8.493c0.922,3.309,0.839,4.411-0.502,6.617
			c-1.342,2.206-1.844,4.633-1.76,6.178c0.083,1.545-0.504,1.654-0.504,1.654s0.42-2.206-0.335-5.957
			c-0.755-3.75-2.347-4.854-1.174-7.278c1.174-2.428,2.179-6.729,2.263-8.274C810.055,162.473,811.145,162.583,811.145,162.583z"/>
		<path fill="#6F4A24" d="M810.462,167.257c0,0-0.042,2.928,0.423,4.797s0.424,2.492-0.254,3.738
			c-0.677,1.245-0.93,2.616-0.889,3.489c0.043,0.871-0.253,0.934-0.253,0.934s0.212-1.246-0.169-3.364s-1.186-2.741-0.593-4.112
			s1.1-3.801,1.142-4.672C809.912,167.194,810.462,167.257,810.462,167.257z"/>
		<path fill="#A67235" d="M831.983,149.837l-5.648,5.896c0,0-2.776,4.63-4.096,7.966c-0.086,0.219-0.167,0.432-0.239,0.637
			c-1.182,3.347,2.102-3.186,2.102-3.186l3.021-4.461l3.678-4.621L831.983,149.837z"/>
		<path fill="#A67235" d="M819.11,149.678c0,0-1.971,7.967-1.313,11.631c0.656,3.664,0.919,8.922,0.656,14.658
			c-0.262,5.734-1.445,9.877-4.203,16.091s-5.254,11.152-4.992,14.658c0.264,3.504-0.262,3.823-0.262,3.823s-1.314-4.779,0.787-9.24
			c2.103-4.462,6.699-16.889,7.094-18.322c0.395-1.435,1.051-21.031-0.525-24.058C814.775,155.892,819.11,149.678,819.11,149.678z"
			/>
		<path fill="#A67235" d="M810.178,148.084c0,0-1.576-0.637-2.627,5.736s0,4.461-1.839,9.56c-1.839,5.098-1.444,6.214-2.496,5.098
			c-1.05-1.115-0.656,0.319-2.102-3.664c-1.444-3.982-3.94-5.895-3.94-6.851s0.788,0.318,0.788,0.318s2.496,2.708,3.415,4.78
			c0.92,2.07,1.971,5.098,2.758,2.708c0.789-2.39,3.022-7.01,2.234-9.878C805.58,153.023,808.339,146.651,810.178,148.084z"/>
		<path fill="#A67235" d="M805.187,188.553c0,0,2.495,8.284,0.656,15.454c-1.839,7.169-2.758,7.487-3.415,12.905
			c-0.656,5.417,1.314,7.967-1.839,11.789c-3.152,3.824-3.021,8.445-3.021,8.445s-1.314-4.303,3.809-10.993
			c0,0-0.263-10.038,1.051-12.269C802.428,213.885,808.602,199.387,805.187,188.553z"/>
		<path fill="#A67235" d="M819.373,172.62c0,0,2.496,8.284,0.656,15.454c-1.838,7.17-2.758,7.488-3.415,12.905
			s1.313,7.966-1.839,11.79s-3.021,8.444-3.021,8.444s-1.313-4.302,3.81-10.994c0,0-0.263-10.036,1.051-12.268
			C816.614,197.952,822.788,183.454,819.373,172.62z"/>
		<path fill="#A67235" d="M821.475,205.122c0,0,2.496,8.284,0.656,15.454c-1.838,7.17-2.758,7.488-3.415,12.905
			c-0.657,5.416,1.313,7.966-1.839,11.79c-3.152,3.823-3.021,8.444-3.021,8.444s-1.313-4.302,3.811-10.994
			c0,0-0.264-10.037,1.05-12.268C818.716,230.454,824.891,215.956,821.475,205.122z"/>
		<path fill="#A67235" d="M806.763,213.406c0,0,2.495,8.285,0.657,15.455c-1.84,7.17-2.759,7.488-3.416,12.904
			c-0.656,5.418,1.314,7.967-1.838,11.791c-3.153,3.823-3.021,8.443-3.021,8.443s-1.314-4.302,3.809-10.993
			c0,0-0.262-10.037,1.051-12.268C804.004,238.739,810.178,224.241,806.763,213.406z"/>
		<path fill="#006646" d="M884,102.359c0-8.379-4.851-15.382-11.33-17.111c0.529-1.825,0.822-3.786,0.822-5.831
			c0-9.68-6.469-17.525-14.449-17.525c-2.374,0-4.611,0.698-6.588,1.929c-1.711-7.363-7.285-12.763-13.904-12.763
			c-1.549,0-3.041,0.3-4.44,0.847c-2.126-6.469-7.332-11.043-13.424-11.043c-4.016,0-7.647,1.987-10.267,5.195
			c-2.539-5.027-7.109-8.383-12.326-8.383c-7.504,0-13.67,6.938-14.38,15.813c-1.116-0.336-2.283-0.517-3.485-0.517
			c-5.004,0-9.414,3.087-12.008,7.776c-2.631-4.329-6.861-7.139-11.637-7.139c-7.979,0-14.448,7.846-14.448,17.524
			c0,0.778,0.046,1.543,0.128,2.294C734.838,74.159,729,81.693,729,90.889c0,5.447,2.049,10.313,5.265,13.529
			c-0.004,0.163-0.011,0.326-0.011,0.49c0,5.48,2.076,10.372,5.324,13.586c-6.545,5.869-9.975,13.458-8.172,19.781
			c2.145,7.525,11.029,10.908,21.288,8.864c3.36,5.754,10.308,9.708,18.339,9.708c6.939,0,13.068-2.953,16.775-7.466
			c1.566,0.705,3.262,1.093,5.03,1.093c4.813,0,9.075-2.857,11.7-7.248c2.581,2.914,6.039,4.699,9.842,4.699
			c6.705,0,12.342-5.54,13.973-13.051c1.074-0.25,2.132-0.522,3.176-0.812c2.414,5.587,7.239,9.401,12.801,9.401
			c2.979,0,5.745-1.094,8.045-2.967c2.118,1.479,4.572,2.329,7.193,2.329c7.979,0,14.449-7.847,14.449-17.525
			c0-2.096-0.305-4.104-0.861-5.967C879.392,117.391,884,110.528,884,102.359z"/>
		<path fill="#004B30" d="M876.355,101.177c0-7.483-4.332-13.737-10.119-15.281c0.473-1.63,0.734-3.381,0.734-5.208
			c0-8.644-5.777-15.65-12.904-15.65c-2.12,0-4.118,0.623-5.883,1.723c-1.528-6.575-6.507-11.398-12.417-11.398
			c-1.384,0-2.716,0.268-3.966,0.757c-1.898-5.777-6.549-9.862-11.988-9.862c-3.586,0-6.829,1.775-9.168,4.641
			c-2.268-4.49-6.35-7.486-11.01-7.486c-6.699,0-12.206,6.195-12.841,14.121c-0.997-0.301-2.038-0.462-3.112-0.462
			c-4.47,0-8.406,2.757-10.723,6.943c-2.35-3.864-6.129-6.374-10.393-6.374c-7.127,0-12.904,7.008-12.904,15.65
			c0,0.694,0.042,1.378,0.115,2.049c-6.631,0.654-11.846,7.384-11.846,15.595c0,4.865,1.83,9.211,4.701,12.081
			c-0.002,0.147-0.008,0.293-0.008,0.439c0,4.895,1.853,9.264,4.754,12.133c-5.846,5.242-8.908,12.02-7.297,17.665
			c1.915,6.722,9.849,9.742,19.01,7.917c3.002,5.138,9.206,8.669,16.379,8.669c6.197,0,11.67-2.637,14.98-6.667
			c1.399,0.631,2.912,0.976,4.492,0.976c4.299,0,8.104-2.553,10.449-6.472c2.305,2.602,5.393,4.195,8.789,4.195
			c5.988,0,11.021-4.947,12.479-11.654c0.959-0.224,1.903-0.467,2.835-0.725c2.157,4.988,6.466,8.396,11.433,8.396
			c2.659,0,5.131-0.978,7.184-2.649c1.893,1.321,4.084,2.08,6.424,2.08c7.127,0,12.904-7.008,12.904-15.65
			c0-1.872-0.271-3.666-0.769-5.33C872.239,114.601,876.355,108.472,876.355,101.177z"/>
	</g>
	<path fill="#5DA63B" d="M892,209c0,0-99,12.5-159.5,49.5s-34,59.5-89.5,59s-78.5-24-149.5-20.5s-102,21-165,23.5s-68,10.5-149,4
		S102,308,52.5,321S0,342,0,342l780.5,34.5L892,305V209z"/>
</g>
</svg>
