<?xml version="1.0" encoding="utf-8"?>
<!-- Generator: Adobe Illustrator 16.0.0, SVG Export Plug-In . SVG Version: 6.00 Build 0)  -->
<!DOCTYPE svg PUBLIC "-//W3C//DTD SVG 1.1//EN" "http://www.w3.org/Graphics/SVG/1.1/DTD/svg11.dtd">
<svg version="1.1" id="Capa_3" xmlns="http://www.w3.org/2000/svg" xmlns:xlink="http://www.w3.org/1999/xlink" x="0px" y="0px"
	 width="134.369px" height="232.253px" viewBox="0 0 134.369 232.253" enable-background="new 0 0 134.369 232.253"
	 xml:space="preserve">
<linearGradient id="SVGID_1_" gradientUnits="userSpaceOnUse" x1="0" y1="116.126" x2="134.3691" y2="116.126">
	<stop  offset="0" style="stop-color:#5A86B6"/>
	<stop  offset="0.1079" style="stop-color:#5182B3"/>
	<stop  offset="0.2873" style="stop-color:#3778AC"/>
	<stop  offset="0.5148" style="stop-color:#0E689F"/>
	<stop  offset="0.5843" style="stop-color:#00629B"/>
	<stop  offset="1" style="stop-color:#004B88"/>
</linearGradient>
<path fill="url(#SVGID_1_)" d="M115.96,224.343l-24.989,2.26l-17.53,5.65l-6.71-2.631l-27.78-10.23l22.13-6.648
	C24.391,205.312,6.261,63.952,0,1.152c1.53-0.45,7.11-1.93,9.67-0.63c2.98,1.5,5.961,1.88,9.32,1.88c3.36,0,10.07-1.51,12.311-1.51
	c2.239,0,8.58,0.38,10.069,0.38c1.49,0,6.34,0.38,7.46,0.38s9.32,2.26,12.681,7.91c3.35,5.65,8.58,47.479,12.68,56.521
	c4.1,9.049,6.71,18.469,8.95,33.16c2.24,14.699,1.859,22.99,8.58,36.18c6.71,13.18,6.34,12.811,8.949,25.99
	c2.61,13.189,0,15.08,6.711,22.99c6.71,7.908,18.649,10.549,21.26,19.219c2.609,8.66,1.12,12.811,5.22,13.561
	C137.96,217.942,115.96,224.343,115.96,224.343z"/>
</svg>
