<?xml version="1.0" encoding="utf-8"?>
<!-- Generator: Adobe Illustrator 16.0.0, SVG Export Plug-In . SVG Version: 6.00 Build 0)  -->
<!DOCTYPE svg PUBLIC "-//W3C//DTD SVG 1.1//EN" "http://www.w3.org/Graphics/SVG/1.1/DTD/svg11.dtd">
<svg version="1.1" id="Capa_3" xmlns="http://www.w3.org/2000/svg" xmlns:xlink="http://www.w3.org/1999/xlink" x="0px" y="0px"
	 width="175.203px" height="318.189px" viewBox="0 0 175.203 318.189" enable-background="new 0 0 175.203 318.189"
	 xml:space="preserve">
<linearGradient id="SVGID_1_" gradientUnits="userSpaceOnUse" x1="0" y1="159.0947" x2="175.2031" y2="159.0947">
	<stop  offset="0" style="stop-color:#5A86B6"/>
	<stop  offset="0.1079" style="stop-color:#5182B3"/>
	<stop  offset="0.2873" style="stop-color:#3778AC"/>
	<stop  offset="0.5148" style="stop-color:#0E689F"/>
	<stop  offset="0.5843" style="stop-color:#00629B"/>
	<stop  offset="1" style="stop-color:#004B88"/>
</linearGradient>
<path fill="url(#SVGID_1_)" d="M150.52,307.35l-33.5,3.1l-23.5,7.74l-9-3.61L64.68,307.1l24.07-7.23
	C36.97,289.38,10.279,97.93,0,0.41c2.819-0.49,6.069-0.7,8.02,0.3c4,2.07,8,2.58,12.5,2.58s13.5-2.06,16.5-2.06s11.5,0.51,13.5,0.51
	s8.5,0.52,10,0.52s12.5,3.1,17,10.84c4.5,7.75,11.5,65.05,17,77.439c5.5,12.381,9,25.29,12,45.42c3,20.141,2.5,31.49,11.5,49.561
	s8.5,17.55,12,35.62c3.5,18.069,0,20.649,9,31.49c9,10.84,25,14.449,28.5,26.329c3.5,11.87,1.5,17.551,7,18.58
	C180.02,298.569,150.52,307.35,150.52,307.35z"/>
</svg>
