<?xml version="1.0" encoding="utf-8"?>
<!-- Generator: Adobe Illustrator 16.0.0, SVG Export Plug-In . SVG Version: 6.00 Build 0)  -->
<!DOCTYPE svg PUBLIC "-//W3C//DTD SVG 1.1//EN" "http://www.w3.org/Graphics/SVG/1.1/DTD/svg11.dtd">
<svg version="1.1" id="Capa_3" xmlns="http://www.w3.org/2000/svg" xmlns:xlink="http://www.w3.org/1999/xlink" x="0px" y="0px"
	 width="179.217px" height="282.081px" viewBox="0 0 179.217 282.081" enable-background="new 0 0 179.217 282.081"
	 xml:space="preserve">
<linearGradient id="SVGID_1_" gradientUnits="userSpaceOnUse" x1="0" y1="141.0405" x2="179.2168" y2="141.0405">
	<stop  offset="0" style="stop-color:#5A86B6"/>
	<stop  offset="0.1079" style="stop-color:#5182B3"/>
	<stop  offset="0.2873" style="stop-color:#3778AC"/>
	<stop  offset="0.5148" style="stop-color:#0E689F"/>
	<stop  offset="0.5843" style="stop-color:#00629B"/>
	<stop  offset="1" style="stop-color:#004B88"/>
</linearGradient>
<path fill="url(#SVGID_1_)" d="M154.13,272.47l-34.05,2.75l-23.891,6.86l-9.15-3.2l-26.59-8.729l16.9-5.08
	C31.56,255.791,8.459,82.991,0,0.55C3.09,0,7.029-0.379,9.279,0.63c4.07,1.83,8.131,2.28,12.711,2.28
	c4.569,0,13.719-1.83,16.77-1.83c3.05,0,11.689,0.46,13.72,0.46S61.119,2,62.649,2c1.521,0,12.7,2.74,17.28,9.61
	c4.57,6.87,11.689,57.66,17.279,68.65c5.591,10.98,9.15,22.42,12.19,40.271c3.05,17.85,2.55,27.92,11.69,43.939
	c9.15,16.011,8.65,15.561,12.199,31.57c3.561,16.02,0,18.31,9.15,27.92s25.41,12.81,28.97,23.34c3.561,10.53,1.53,15.561,7.11,16.48
	C184.119,264.691,154.13,272.47,154.13,272.47z"/>
</svg>
