<?xml version="1.0" encoding="utf-8"?>
<!-- Generator: Adobe Illustrator 16.0.0, SVG Export Plug-In . SVG Version: 6.00 Build 0)  -->
<!DOCTYPE svg PUBLIC "-//W3C//DTD SVG 1.1//EN" "http://www.w3.org/Graphics/SVG/1.1/DTD/svg11.dtd">
<svg version="1.1" id="Capa_3" xmlns="http://www.w3.org/2000/svg" xmlns:xlink="http://www.w3.org/1999/xlink" x="0px" y="0px"
	 width="120.296px" height="206.38px" viewBox="0 0 120.296 206.38" enable-background="new 0 0 120.296 206.38"
	 xml:space="preserve">
<linearGradient id="SVGID_1_" gradientUnits="userSpaceOnUse" x1="0" y1="103.1899" x2="120.2959" y2="103.1899">
	<stop  offset="0" style="stop-color:#5A86B6"/>
	<stop  offset="0.1079" style="stop-color:#5182B3"/>
	<stop  offset="0.2873" style="stop-color:#3778AC"/>
	<stop  offset="0.5148" style="stop-color:#0E689F"/>
	<stop  offset="0.5843" style="stop-color:#00629B"/>
	<stop  offset="1" style="stop-color:#004B88"/>
</linearGradient>
<path fill="url(#SVGID_1_)" d="M103.91,199.35l-22.25,2.011l-15.6,5.02l-5.971-2.34l-28.22-10.38l-0.23-0.561l22.4-6.729
	C22.21,179.92,6.03,60.651,0,2.411l0.32-1.28c0,0,6.31-2.01,8.97-0.67s5.31,1.67,8.3,1.67s8.96-1.34,10.95-1.34
	c2,0,7.64,0.34,8.97,0.34c1.32,0,5.641,0.33,6.641,0.33c0.989,0,8.3,2.01,11.29,7.03c2.979,5.03,7.63,42.189,11.279,50.229
	c3.66,8.04,5.98,16.41,7.971,29.471c1.989,13.05,1.659,20.42,7.64,32.14s5.64,11.39,7.97,23.1c2.32,11.721,0,13.4,5.971,20.431
	c5.979,7.029,16.6,9.37,18.93,17.08c2.32,7.699,0.99,11.38,4.64,12.05C123.5,193.661,103.91,199.35,103.91,199.35z"/>
</svg>
