<?xml version="1.0" encoding="utf-8"?>
<!-- Generator: Adobe Illustrator 16.0.0, SVG Export Plug-In . SVG Version: 6.00 Build 0)  -->
<!DOCTYPE svg PUBLIC "-//W3C//DTD SVG 1.1//EN" "http://www.w3.org/Graphics/SVG/1.1/DTD/svg11.dtd">
<svg version="1.1" id="Capa_3" xmlns="http://www.w3.org/2000/svg" xmlns:xlink="http://www.w3.org/1999/xlink" x="0px" y="0px"
	 width="119.036px" height="183.882px" viewBox="0 0 119.036 183.882" enable-background="new 0 0 119.036 183.882"
	 xml:space="preserve">
<linearGradient id="SVGID_1_" gradientUnits="userSpaceOnUse" x1="0" y1="91.9404" x2="119.0361" y2="91.9404">
	<stop  offset="0" style="stop-color:#5A86B6"/>
	<stop  offset="0.1079" style="stop-color:#5182B3"/>
	<stop  offset="0.2873" style="stop-color:#3778AC"/>
	<stop  offset="0.5148" style="stop-color:#0E689F"/>
	<stop  offset="0.5843" style="stop-color:#00629B"/>
	<stop  offset="1" style="stop-color:#004B88"/>
</linearGradient>
<path fill="url(#SVGID_1_)" d="M102.65,177.622l-22.25,1.789l-15.6,4.471l-5.971-2.08l-27.069-8.871l17.05-5.129
	C19.891,161.942,5.32,52.702,0,0.771c1.86-0.45,6-1.271,8.03-0.36c2.66,1.19,5.31,1.49,8.3,1.49s8.96-1.189,10.95-1.189
	c2,0,7.64,0.299,8.97,0.299c1.32,0,5.641,0.291,6.641,0.291c0.989,0,8.3,1.789,11.29,6.27c2.979,4.471,7.63,37.59,11.279,44.75
	c3.66,7.16,5.98,14.621,7.971,26.25c1.989,11.641,1.659,18.199,7.64,28.641c5.98,10.439,5.64,10.15,7.97,20.59
	c2.32,10.439,0,11.93,5.971,18.199c5.979,6.26,16.6,8.35,18.93,15.211c2.32,6.859,0.99,10.139,4.64,10.74
	C122.24,172.552,102.65,177.622,102.65,177.622z"/>
</svg>
