<?xml version="1.0" encoding="utf-8"?>
<!-- Generator: Adobe Illustrator 16.0.0, SVG Export Plug-In . SVG Version: 6.00 Build 0)  -->
<!DOCTYPE svg PUBLIC "-//W3C//DTD SVG 1.1//EN" "http://www.w3.org/Graphics/SVG/1.1/DTD/svg11.dtd">
<svg version="1.1" id="Capa_3" xmlns="http://www.w3.org/2000/svg" xmlns:xlink="http://www.w3.org/1999/xlink" x="0px" y="0px"
	 width="148.347px" height="254.645px" viewBox="0 0 148.347 254.645" enable-background="new 0 0 148.347 254.645"
	 xml:space="preserve">
<linearGradient id="SVGID_1_" gradientUnits="userSpaceOnUse" x1="0" y1="127.3228" x2="148.3467" y2="127.3228">
	<stop  offset="0" style="stop-color:#5A86B6"/>
	<stop  offset="0.1079" style="stop-color:#5182B3"/>
	<stop  offset="0.2873" style="stop-color:#3778AC"/>
	<stop  offset="0.5148" style="stop-color:#0E689F"/>
	<stop  offset="0.5843" style="stop-color:#00629B"/>
	<stop  offset="1" style="stop-color:#004B88"/>
</linearGradient>
<path fill="url(#SVGID_1_)" d="M127.87,245.975l-27.79,2.48l-19.5,6.189l-7.47-2.889l-25.851-9.391l21.521-6.471
	C28.13,227.657,7.569,74.487,0,0.966c2.47-0.63,7.25-1.59,9.649-0.4c3.32,1.66,6.631,2.07,10.371,2.07
	c3.729,0,11.199-1.65,13.689-1.65s9.54,0.41,11.2,0.41c1.649,0,7.05,0.41,8.29,0.41c1.25,0,10.37,2.48,14.109,8.68
	c3.73,6.2,9.54,52.05,14.101,61.97c4.56,9.92,7.47,20.24,9.95,36.35c2.489,16.121,2.08,25.211,9.55,39.67
	c7.46,14.461,7.05,14.041,9.95,28.5c2.91,14.461,0,16.531,7.47,25.201c7.46,8.68,20.74,11.57,23.64,21.08
	c2.9,9.5,1.25,14.039,5.811,14.869C152.34,238.946,127.87,245.975,127.87,245.975z"/>
</svg>
