<?xml version="1.0" encoding="utf-8"?>
<!-- Generator: Adobe Illustrator 16.0.0, SVG Export Plug-In . SVG Version: 6.00 Build 0)  -->
<!DOCTYPE svg PUBLIC "-//W3C//DTD SVG 1.1//EN" "http://www.w3.org/Graphics/SVG/1.1/DTD/svg11.dtd">
<svg version="1.1" id="Capa_2" xmlns="http://www.w3.org/2000/svg" xmlns:xlink="http://www.w3.org/1999/xlink" x="0px" y="0px"
	 width="915px" height="419px" viewBox="0 0 915 419" enable-background="new 0 0 915 419" xml:space="preserve">
<g>
	
		<linearGradient id="SVGID_1_" gradientUnits="userSpaceOnUse" x1="479.1572" y1="389.5383" x2="580.9092" y2="287.7863" gradientTransform="matrix(1 0 0 1 141.3203 -175.1992)">
		<stop  offset="0" style="stop-color:#EDE3CC"/>
		<stop  offset="0.3737" style="stop-color:#EBE1C9"/>
		<stop  offset="1" style="stop-color:#BAA684"/>
	</linearGradient>
	<path fill="url(#SVGID_1_)" d="M689.762,275.666l28.451-8.553c-42.202-8.549-56.896-215.438-56.896-215.438l-26.554-2.136
		l-15.647,33.768l38.406,144.48l11.854,29.069l9.008,15.389L689.762,275.666z"/>
	
		<linearGradient id="SVGID_2_" gradientUnits="userSpaceOnUse" x1="516.6768" y1="304.8108" x2="618.6094" y2="304.8108" gradientTransform="matrix(1 0 0 -1 70.6602 467.4009)">
		<stop  offset="0" style="stop-color:#937144"/>
		<stop  offset="0.4888" style="stop-color:#AE8C61"/>
		<stop  offset="1" style="stop-color:#CFBA9F"/>
	</linearGradient>
	<path fill="url(#SVGID_2_)" d="M689.27,275.64l-12.778-0.83c0,0-15.41-18.84-18.972-26.068c-10.96-22.29-27.97-95.33-27.97-95.33
		s-9.01-36.761-12.8-54.29c-3.79-17.521-8.07-16.67-8.07-16.67l-21.34-0.87c-0.03-1.88,0.102-9.07,3.8-9.811l43.62-22.229
		c0,0,20.521,207.42,51.08,224.95C686.97,275.14,688.11,275.531,689.27,275.64z"/>
</g>
</svg>
