<?xml version="1.0" encoding="utf-8"?>
<!-- Generator: Adobe Illustrator 16.0.0, SVG Export Plug-In . SVG Version: 6.00 Build 0)  -->
<!DOCTYPE svg PUBLIC "-//W3C//DTD SVG 1.1//EN" "http://www.w3.org/Graphics/SVG/1.1/DTD/svg11.dtd">
<svg version="1.1" id="Capa_2" xmlns="http://www.w3.org/2000/svg" xmlns:xlink="http://www.w3.org/1999/xlink" x="0px" y="0px"
	 width="915px" height="419px" viewBox="0 0 915 419" enable-background="new 0 0 915 419" xml:space="preserve">
<g>
	
		<linearGradient id="SVGID_1_" gradientUnits="userSpaceOnUse" x1="-126.0498" y1="17.1257" x2="41.8805" y2="185.0559" gradientTransform="matrix(1 0 0 -1 211.9805 292.2017)">
		<stop  offset="0" style="stop-color:#EDE3CC"/>
		<stop  offset="0.3737" style="stop-color:#EBE1C9"/>
		<stop  offset="1" style="stop-color:#BAA684"/>
	</linearGradient>
	<path fill="url(#SVGID_1_)" d="M200.276,376.286l46.956-14.108c-69.644-14.11-93.9-355.562-93.9-355.562L109.51,3.093
		L83.688,58.823l63.381,238.449l19.566,47.973l14.862,25.397L200.276,376.286z"/>
	
		<linearGradient id="SVGID_2_" gradientUnits="userSpaceOnUse" x1="-182.0181" y1="102.5149" x2="-11.7036" y2="102.5149" gradientTransform="matrix(1 0 0 -1 211.9805 292.2017)">
		<stop  offset="0" style="stop-color:#937144"/>
		<stop  offset="0.4888" style="stop-color:#AE8C61"/>
		<stop  offset="1" style="stop-color:#CFBA9F"/>
	</linearGradient>
	<path fill="url(#SVGID_2_)" d="M31.257,56.708c0,0-0.779-15.521,6.263-16.935L109.51,3.09c0,0,36.776,371.787,90.767,373.193
		l-21.902-1.406l-16.437-28.224l-14.869-14.813C147.068,331.845,15.604,289.518,31.257,56.708z"/>
</g>
<path fill="#605131" d="M37.52,39.777C37.52,39.777,48,40,50,56s2,13,9,22s26,15,18,28s10,41,10,41s12,16,13,38s1,44,4,53
	s10,29,10,29l8,39c0,0,21,18,21,21s33.748,21.76,35.374,47.88L168,388l-141-9L5,47C5,47,19.039,28.554,37.52,39.777z"/>
<path fill="#33270E" d="M66,100c0,0-15,7-24,8s3,8,3,8s8,0,15,2s12,14,12,14s-6-30,2-31S66,100,66,100z"/>
<path fill="#33270E" d="M21,66c0,0,5,12,9,23s0,3-6,13s-8,17-5,24s6,7,3,15s-6,0-6,0s-4-33-1-36s10-6,5-14S7,63,7,63S13,66,21,66z"
	/>
<path fill="#33270E" d="M22,158c0,0,43,17,60,9s0,3,0,7s5,14,5,17s0,1-10-5s-11-7-23-7s-24-8-24-8L22,158z"/>
<path fill="#33270E" d="M30,223c0,0,22,10,35,68s8,62,22,70s-2,7-8,8s-21,6-24-15s8-27-1-55s-21-38-21-38L30,223z"/>
<path fill="#33270E" d="M67,205c0,0,22-1,22,4s1,16,1,25s-7,22,1,27s-5,5-5,5s-5,2-16-21s-21-30-26-35s19,16,21,8s2-8,2-8V205z"/>
<path fill="#33270E" d="M110,314c0,0-9,3-10,7s-11,24-7,29s18,2,18,2s-4-3-10-5s1-17,1-17L110,314z"/>
<path fill="#33270E" d="M138,329c0,0-10,4-16,8s-7,13-7,13l5,1c0,0,11-13,16-13s11-3,11-3L138,329z"/>
<path fill="#33270E" d="M115,366c0,0,16-4,27-2s11,12,11,12s-5-8-13-7S115,366,115,366z"/>
</svg>
