<?xml version="1.0" encoding="utf-8"?>
<!-- Generator: Adobe Illustrator 16.0.0, SVG Export Plug-In . SVG Version: 6.00 Build 0)  -->
<!DOCTYPE svg PUBLIC "-//W3C//DTD SVG 1.1//EN" "http://www.w3.org/Graphics/SVG/1.1/DTD/svg11.dtd">
<svg version="1.1" id="Capa_2" xmlns="http://www.w3.org/2000/svg" xmlns:xlink="http://www.w3.org/1999/xlink" x="0px" y="0px"
	 width="915px" height="419px" viewBox="0 0 915 419" enable-background="new 0 0 915 419" xml:space="preserve">
<g>
	
		<linearGradient id="SVGID_1_" gradientUnits="userSpaceOnUse" x1="100.6484" y1="435.6624" x2="245.9126" y2="290.3983" gradientTransform="matrix(1 0 0 1 141.3203 -175.1992)">
		<stop  offset="0" style="stop-color:#EDE3CC"/>
		<stop  offset="0.3737" style="stop-color:#EBE1C9"/>
		<stop  offset="1" style="stop-color:#BAA684"/>
	</linearGradient>
	<path fill="url(#SVGID_1_)" d="M340.88,348.021l40.619-12.206c-60.245-12.208-81.228-307.577-81.228-307.577l-37.907-3.05
		l-22.342,48.208l54.833,206.273l16.926,41.493l12.858,21.972L340.88,348.021z"/>
	
		<linearGradient id="SVGID_2_" gradientUnits="userSpaceOnUse" x1="123.9946" y1="280.8157" x2="269.5498" y2="280.8157" gradientTransform="matrix(1 0 0 -1 70.6602 467.4009)">
		<stop  offset="0" style="stop-color:#937144"/>
		<stop  offset="0.4888" style="stop-color:#AE8C61"/>
		<stop  offset="1" style="stop-color:#CFBA9F"/>
	</linearGradient>
	<path fill="url(#SVGID_2_)" d="M340.21,347.981l-18.27-1.181c0,0-0.01-0.011-0.02-0.021c-0.66-0.819-22.06-27.04-27.07-37.2
		l-0.01-0.01c-15.64-31.83-39.92-136.09-39.92-136.09S242.06,121,236.64,95.98c-5.41-25.02-11.51-23.8-11.51-23.8l-30.47-1.25
		c-0.05-2.69,0.14-12.95,5.43-14.01l62.27-31.73c0,0,29.28,295.88,72.87,321.13c0.01,0,0.01,0.01,0.02,0.01h0.01
		C336.89,347.27,338.54,347.829,340.21,347.981z"/>
</g>
</svg>
