<?xml version="1.0" encoding="utf-8"?>
<!-- Generator: Adobe Illustrator 16.0.0, SVG Export Plug-In . SVG Version: 6.00 Build 0)  -->
<!DOCTYPE svg PUBLIC "-//W3C//DTD SVG 1.1//EN" "http://www.w3.org/Graphics/SVG/1.1/DTD/svg11.dtd">
<svg version="1.1" id="Capa_2" xmlns="http://www.w3.org/2000/svg" xmlns:xlink="http://www.w3.org/1999/xlink" x="0px" y="0px"
	 width="915px" height="419px" viewBox="0 0 915 419" enable-background="new 0 0 915 419" xml:space="preserve">
<path fill="#007C37" d="M911,209c0,0,4.5-15.5-7-15.5s-5-12-15.5-11s-4,0-6.5-9.5s-2.5-18.5-14.5-27.5s-15.5-26-15.5-26l-8.5-13
	l4,77l16,29l39.5,7L911,209z"/>
<g>
	
		<linearGradient id="SVGID_1_" gradientUnits="userSpaceOnUse" x1="670.0313" y1="369.0032" x2="752.0874" y2="286.9469" gradientTransform="matrix(1 0 0 1 141.3203 -175.1992)">
		<stop  offset="0" style="stop-color:#EDE3CC"/>
		<stop  offset="0.3737" style="stop-color:#EBE1C9"/>
		<stop  offset="1" style="stop-color:#BAA684"/>
	</linearGradient>
	<path fill="url(#SVGID_1_)" d="M867.227,243.264l22.942-6.893c-34.032-6.898-45.885-173.747-45.885-173.747l-21.415-1.724
		L810.25,88.135l30.975,116.518l9.561,23.443l7.268,12.409L867.227,243.264z"/>
	
		<linearGradient id="SVGID_2_" gradientUnits="userSpaceOnUse" x1="713.957" y1="315.3206" x2="796.5703" y2="315.3206" gradientTransform="matrix(1 0 0 -1 70.6602 467.4009)">
		<stop  offset="0" style="stop-color:#937144"/>
		<stop  offset="0.4888" style="stop-color:#AE8C61"/>
		<stop  offset="1" style="stop-color:#CFBA9F"/>
	</linearGradient>
	<path fill="url(#SVGID_2_)" d="M867.23,243.26l-10.712-0.68c0,0-12.43-15.2-15.3-21.03c-8.84-17.97-22.56-76.88-22.56-76.88
		s-7.26-29.65-10.32-43.78c-3.06-14.13-6.5-13.439-6.5-13.439l-17.22-0.711c-0.021-1.51,0.08-7.31,3.07-7.909l35.18-17.931
		c0,0,16.55,167.351,41.22,181.42C865.12,242.91,866.17,243.231,867.23,243.26z"/>
</g>
</svg>
