<?xml version="1.0" encoding="utf-8"?>
<!-- Generator: Adobe Illustrator 16.0.0, SVG Export Plug-In . SVG Version: 6.00 Build 0)  -->
<!DOCTYPE svg PUBLIC "-//W3C//DTD SVG 1.1//EN" "http://www.w3.org/Graphics/SVG/1.1/DTD/svg11.dtd">
<svg version="1.1" id="Capa_2" xmlns="http://www.w3.org/2000/svg" xmlns:xlink="http://www.w3.org/1999/xlink" x="0px" y="0px"
	 width="915px" height="419px" viewBox="0 0 915 419" enable-background="new 0 0 915 419" xml:space="preserve">
<g>
	<linearGradient id="SVGID_1_" gradientUnits="userSpaceOnUse" x1="783.5303" y1="164.6604" x2="856.5195" y2="164.6604">
		<stop  offset="0" style="stop-color:#937144"/>
		<stop  offset="0.4888" style="stop-color:#AE8C61"/>
		<stop  offset="1" style="stop-color:#CFBA9F"/>
	</linearGradient>
	<path fill="url(#SVGID_1_)" d="M841.22,221.55c2.87,5.83,15.3,21.03,15.3,21.03L818,239l-6.25-13.25c0,0-34.77-24.89-27.12-138.65
		c0,0-0.01-0.13-0.01-0.36l17.22,0.71c0,0,3.44-0.69,6.5,13.44c3.061,14.13,10.32,43.78,10.32,43.78S832.38,203.58,841.22,221.55z"
		/>
	<linearGradient id="SVGID_2_" gradientUnits="userSpaceOnUse" x1="808.1445" y1="250.1106" x2="808.1445" y2="85.7209">
		<stop  offset="0" style="stop-color:#CBBF99"/>
		<stop  offset="0.3081" style="stop-color:#B8AA76"/>
		<stop  offset="0.702" style="stop-color:#9B8B46"/>
		<stop  offset="1" style="stop-color:#8B612F"/>
	</linearGradient>
	<path fill="url(#SVGID_2_)" d="M806.36,250.111l1.88-0.561c-28.34-5.74-42.9-110.75-48.471-163.83l24.851,1.02l17.22,0.71
		c0,0,3.44-0.69,6.5,13.44c3.061,14.13,10.32,43.78,10.32,43.78s13.72,58.91,22.56,76.88c2.87,5.83,15.3,21.03,15.3,21.03
		L806.36,250.111z"/>
</g>
<g>
	<linearGradient id="SVGID_3_" gradientUnits="userSpaceOnUse" x1="689.2969" y1="169.4602" x2="770.6504" y2="169.4602">
		<stop  offset="0" style="stop-color:#937144"/>
		<stop  offset="0.4888" style="stop-color:#AE8C61"/>
		<stop  offset="1" style="stop-color:#CFBA9F"/>
	</linearGradient>
	<path fill="url(#SVGID_3_)" d="M753.58,233c3.15,6.41,16.65,22.95,17.07,23.47L745,248.25l-18.5-12.5c0,0-44.65-25.85-36.12-152.89
		c0,0-0.01-0.15-0.01-0.41l19.229,0.79c0,0,3.851-0.77,7.261,15.01c3.409,15.79,11.529,48.9,11.529,48.9S743.71,212.93,753.58,233z"
		/>
	<linearGradient id="SVGID_4_" gradientUnits="userSpaceOnUse" x1="717.3252" y1="265.1106" x2="717.3252" y2="81.3708">
		<stop  offset="0" style="stop-color:#CBBF99"/>
		<stop  offset="0.3081" style="stop-color:#B8AA76"/>
		<stop  offset="0.702" style="stop-color:#9B8B46"/>
		<stop  offset="1" style="stop-color:#8B612F"/>
	</linearGradient>
	<path fill="url(#SVGID_4_)" d="M770.66,256.481l-57.45,8.63c-28.85-17.28-43.65-129.26-49.22-183.74l26.38,1.08l19.229,0.79
		c0,0,3.851-0.77,7.261,15.01c3.409,15.79,11.529,48.9,11.529,48.9s15.32,65.78,25.19,85.85c3.15,6.41,16.65,22.95,17.07,23.47
		C770.66,256.481,770.66,256.481,770.66,256.481z"/>
</g>
<g>
	<linearGradient id="SVGID_5_" gradientUnits="userSpaceOnUse" x1="586.3779" y1="178.1951" x2="676.4902" y2="178.1951">
		<stop  offset="0" style="stop-color:#937144"/>
		<stop  offset="0.4888" style="stop-color:#AE8C61"/>
		<stop  offset="1" style="stop-color:#CFBA9F"/>
	</linearGradient>
	<path fill="url(#SVGID_5_)" d="M657.52,248.74c3.561,7.229,18.971,26.069,18.971,26.069L645,264.67l-4-11
		c0,0-63.14-30.58-53.65-171.64c0,0-0.01-0.17-0.01-0.45l21.34,0.87c0,0,4.28-0.85,8.07,16.67c3.79,17.53,12.8,54.29,12.8,54.29
		S646.56,226.45,657.52,248.74z"/>
	<linearGradient id="SVGID_6_" gradientUnits="userSpaceOnUse" x1="617.5195" y1="284.4504" x2="617.5195" y2="80.4006">
		<stop  offset="0" style="stop-color:#CBBF99"/>
		<stop  offset="0.3081" style="stop-color:#B8AA76"/>
		<stop  offset="0.702" style="stop-color:#9B8B46"/>
		<stop  offset="1" style="stop-color:#8B612F"/>
	</linearGradient>
	<path fill="url(#SVGID_6_)" d="M676.49,274.81l-64.15,9.641c-31.33-21.67-47.56-143.51-53.79-204.05l28.79,1.18l21.34,0.87
		c0,0,4.28-0.85,8.07,16.67c3.79,17.53,12.8,54.29,12.8,54.29s17.01,73.04,27.97,95.33C661.08,255.97,676.49,274.81,676.49,274.81z"
		/>
</g>
<g>
	<linearGradient id="SVGID_7_" gradientUnits="userSpaceOnUse" x1="471.5615" y1="187.9153" x2="572.46" y2="187.9153">
		<stop  offset="0" style="stop-color:#937144"/>
		<stop  offset="0.4888" style="stop-color:#AE8C61"/>
		<stop  offset="1" style="stop-color:#CFBA9F"/>
	</linearGradient>
	<path fill="url(#SVGID_7_)" d="M551.22,266.91c3.99,8.1,21.24,29.189,21.24,29.189l-30.13-11.43l-9-12
		c0,0-71.311-34.479-60.69-192.44c0,0-0.01-0.18-0.01-0.5l23.91,0.98c0,0,4.77-0.96,9.02,18.67c4.25,19.62,14.33,60.79,14.33,60.79
		S538.95,241.95,551.22,266.91z"/>
	<linearGradient id="SVGID_8_" gradientUnits="userSpaceOnUse" x1="507.0703" y1="306.8303" x2="507.0703" y2="78.4607">
		<stop  offset="0" style="stop-color:#CBBF99"/>
		<stop  offset="0.3081" style="stop-color:#B8AA76"/>
		<stop  offset="0.702" style="stop-color:#9B8B46"/>
		<stop  offset="1" style="stop-color:#8B612F"/>
	</linearGradient>
	<path fill="url(#SVGID_8_)" d="M572.46,296.1l-71.4,10.73C466.8,279.87,448.8,146.88,441.68,78.46l30.95,1.27l23.91,0.98
		c0,0,4.77-0.96,9.02,18.67c4.25,19.62,14.33,60.79,14.33,60.79s19.061,81.78,31.33,106.74C555.21,275.01,572.46,296.1,572.46,296.1
		z"/>
</g>
<g>
	<linearGradient id="SVGID_9_" gradientUnits="userSpaceOnUse" x1="342.8828" y1="198.3552" x2="457.2402" y2="198.3552">
		<stop  offset="0" style="stop-color:#937144"/>
		<stop  offset="0.4888" style="stop-color:#AE8C61"/>
		<stop  offset="1" style="stop-color:#CFBA9F"/>
	</linearGradient>
	<path fill="url(#SVGID_9_)" d="M433.15,287.96c4.52,9.19,24.09,33.12,24.09,33.12h-0.01L437,302.5l-16.5-10
		c0,0-88.54-37.11-76.49-216.3c0,0-0.01-0.21-0.01-0.57l27.11,1.11c0,0,5.43-1.09,10.24,21.18c4.82,22.26,16.27,68.96,16.27,68.96
		S419.22,259.66,433.15,287.96z"/>
	<linearGradient id="SVGID_10_" gradientUnits="userSpaceOnUse" x1="374.4253" y1="336.2903" x2="374.4253" y2="73.4807">
		<stop  offset="0" style="stop-color:#CBBF99"/>
		<stop  offset="0.3081" style="stop-color:#B8AA76"/>
		<stop  offset="0.702" style="stop-color:#9B8B46"/>
		<stop  offset="1" style="stop-color:#8B612F"/>
	</linearGradient>
	<path fill="url(#SVGID_10_)" d="M457.24,321.08h-0.01l-101.18,15.21l0.61-7.6l-11.45-29.87l-53.6-225.34L344,75.63l27.11,1.11
		c0,0,5.43-1.09,10.24,21.18c4.82,22.26,16.27,68.96,16.27,68.96s21.6,92.78,35.53,121.08
		C437.67,297.151,457.24,321.08,457.24,321.08z"/>
</g>
<g>
	<linearGradient id="SVGID_11_" gradientUnits="userSpaceOnUse" x1="193.5503" y1="190.2454" x2="294.8301" y2="190.2454">
		<stop  offset="0" style="stop-color:#937144"/>
		<stop  offset="0.4888" style="stop-color:#AE8C61"/>
		<stop  offset="1" style="stop-color:#CFBA9F"/>
	</linearGradient>
	<path fill="url(#SVGID_11_)" d="M294.83,309.56c-1.65-0.54-113.6-38.079-100.16-237.99c0,0-0.01-0.24-0.01-0.64l30.47,1.25
		c0,0,6.1-1.22,11.51,23.8c5.42,25.02,18.28,77.5,18.28,77.5S279.2,277.72,294.83,309.56z"/>
	<linearGradient id="SVGID_12_" gradientUnits="userSpaceOnUse" x1="292.5" y1="328.1799" x2="321.9199" y2="328.1799">
		<stop  offset="0" style="stop-color:#937144"/>
		<stop  offset="0.4888" style="stop-color:#AE8C61"/>
		<stop  offset="1" style="stop-color:#CFBA9F"/>
	</linearGradient>
	<path fill="url(#SVGID_12_)" d="M294.85,309.58c5.01,10.16,26.41,36.38,27.07,37.2l-29.42-19.03L294.85,309.58z"/>
	<linearGradient id="SVGID_13_" gradientUnits="userSpaceOnUse" x1="240.5649" y1="359.1907" x2="240.5649" y2="69.4807">
		<stop  offset="0" style="stop-color:#CBBF99"/>
		<stop  offset="0.3081" style="stop-color:#B8AA76"/>
		<stop  offset="0.702" style="stop-color:#9B8B46"/>
		<stop  offset="1" style="stop-color:#8B612F"/>
	</linearGradient>
	<path fill="url(#SVGID_13_)" d="M321.94,346.8l-82.45,12.391c-45.61-26.181-70.07-195.57-80.3-289.71l35.47,1.45l30.47,1.25
		c0,0,6.1-1.22,11.51,23.8c5.42,25.02,18.28,77.5,18.28,77.5s24.28,104.24,39.91,136.08l0.01,0.011l0.01,0.01
		c5.01,10.16,26.41,36.38,27.07,37.2C321.93,346.79,321.94,346.8,321.94,346.8z"/>
</g>
</svg>
