<?xml version="1.0" encoding="utf-8"?>
<!-- Generator: Adobe Illustrator 16.0.0, SVG Export Plug-In . SVG Version: 6.00 Build 0)  -->
<!DOCTYPE svg PUBLIC "-//W3C//DTD SVG 1.1//EN" "http://www.w3.org/Graphics/SVG/1.1/DTD/svg11.dtd">
<svg version="1.1" id="Capa_2" xmlns="http://www.w3.org/2000/svg" xmlns:xlink="http://www.w3.org/1999/xlink" x="0px" y="0px"
	 width="915px" height="419px" viewBox="0 0 915 419" enable-background="new 0 0 915 419" xml:space="preserve">
<g>
	
		<linearGradient id="SVGID_1_" gradientUnits="userSpaceOnUse" x1="578.8965" y1="377.22" x2="670.5371" y2="285.5793" gradientTransform="matrix(1 0 0 1 141.3203 -175.1992)">
		<stop  offset="0" style="stop-color:#EDE3CC"/>
		<stop  offset="0.3737" style="stop-color:#EBE1C9"/>
		<stop  offset="1" style="stop-color:#BAA684"/>
	</linearGradient>
	<path fill="url(#SVGID_1_)" d="M782.62,257.25l25.621-7.7c-38.008-7.701-51.243-194.029-51.243-194.029l-23.913-1.923
		l-14.09,30.411l34.585,130.123l10.678,26.18l8.108,13.858L782.62,257.25z"/>
	
		<linearGradient id="SVGID_2_" gradientUnits="userSpaceOnUse" x1="619.708" y1="311.9905" x2="711.5098" y2="311.9905" gradientTransform="matrix(1 0 0 -1 70.6602 467.4009)">
		<stop  offset="0" style="stop-color:#937144"/>
		<stop  offset="0.4888" style="stop-color:#AE8C61"/>
		<stop  offset="1" style="stop-color:#CFBA9F"/>
	</linearGradient>
	<path fill="url(#SVGID_2_)" d="M782.17,257.22l-11.5-0.739h-0.01c0,0,0,0-0.01-0.011c-0.42-0.52-13.92-17.06-17.07-23.47
		c-9.87-20.07-25.19-85.851-25.19-85.851s-8.12-33.109-11.528-48.899c-3.41-15.78-7.262-15.011-7.262-15.011l-19.229-0.789
		c-0.03-1.7,0.1-8.171,3.43-8.841l39.28-20.01c0,0,18.479,186.84,46.02,202.59c0,0,0.012,0,0.012,0.011
		C780.12,256.781,781.14,257.13,782.17,257.22z"/>
</g>
</svg>
