<?xml version="1.0" encoding="utf-8"?>
<!-- Generator: Adobe Illustrator 16.0.0, SVG Export Plug-In . SVG Version: 6.00 Build 0)  -->
<!DOCTYPE svg PUBLIC "-//W3C//DTD SVG 1.1//EN" "http://www.w3.org/Graphics/SVG/1.1/DTD/svg11.dtd">
<svg version="1.1" id="Capa_2" xmlns="http://www.w3.org/2000/svg" xmlns:xlink="http://www.w3.org/1999/xlink" x="0px" y="0px"
	 width="915px" height="419px" viewBox="0 0 915 419" enable-background="new 0 0 915 419" xml:space="preserve">
<g>
	<path fill="#007C37" d="M911,209c0,0,4.5-15.5-7-15.5s-5-12-15.5-11s-4,0-6.5-9.5s-2.5-18.5-14.5-27.5s-15.5-26-15.5-26l-8.5-13
		l4,77l16,29l39.5,7L911,209z"/>
	<linearGradient id="SVGID_1_" gradientUnits="userSpaceOnUse" x1="625.4648" y1="491.373" x2="500.6582" y2="211.0529">
		<stop  offset="0" style="stop-color:#5A86B6"/>
		<stop  offset="0.1079" style="stop-color:#5182B3"/>
		<stop  offset="0.2873" style="stop-color:#3778AC"/>
		<stop  offset="0.5148" style="stop-color:#0E689F"/>
		<stop  offset="0.5843" style="stop-color:#00629B"/>
		<stop  offset="1" style="stop-color:#004B88"/>
	</linearGradient>
	<path fill="url(#SVGID_1_)" d="M178.374,374.88L168,388l629,27l112-71l2-135c0,0,6-8-107,4S250.748,267.76,178.374,374.88z"/>
	<g>
		<linearGradient id="SVGID_2_" gradientUnits="userSpaceOnUse" x1="811.3516" y1="193.8057" x2="893.4087" y2="111.7485">
			<stop  offset="0" style="stop-color:#EDE3CC"/>
			<stop  offset="0.3737" style="stop-color:#EBE1C9"/>
			<stop  offset="1" style="stop-color:#BAA684"/>
		</linearGradient>
		<path fill="url(#SVGID_2_)" d="M867.227,243.264l22.942-6.893c-34.032-6.898-45.885-173.747-45.885-173.747l-21.415-1.722
			L810.25,88.135l30.975,116.518l9.559,23.443l7.268,12.409L867.227,243.264z"/>
		<linearGradient id="SVGID_3_" gradientUnits="userSpaceOnUse" x1="783.5332" y1="152.083" x2="867.2266" y2="152.083">
			<stop  offset="0" style="stop-color:#937144"/>
			<stop  offset="0.4888" style="stop-color:#AE8C61"/>
			<stop  offset="1" style="stop-color:#CFBA9F"/>
		</linearGradient>
		<path fill="url(#SVGID_3_)" d="M784.633,87.101c0,0-0.38-7.582,3.061-8.271l35.176-17.927c0,0,17.973,181.673,44.357,182.361
			l-10.706-0.688L818,239l-6.25-13.25C811.75,225.75,776.984,200.863,784.633,87.101z"/>
		<linearGradient id="SVGID_4_" gradientUnits="userSpaceOnUse" x1="803.9424" y1="85.3784" x2="803.9424" y2="252.2271">
			<stop  offset="0" style="stop-color:#CBBF99"/>
			<stop  offset="0.3081" style="stop-color:#B8AA76"/>
			<stop  offset="0.702" style="stop-color:#9B8B46"/>
			<stop  offset="1" style="stop-color:#8B612F"/>
		</linearGradient>
		<path fill="url(#SVGID_4_)" d="M751.364,85.378l50.476,2.068c0,0,3.442-0.689,6.501,13.444
			c3.055,14.135,10.323,43.782,10.323,43.782s13.719,58.903,22.561,76.876c2.87,5.833,15.296,21.027,15.296,21.027l-64.239,9.651
			l0.381-4.827l-7.265-18.958L751.364,85.378z"/>
	</g>
	<g>
		<linearGradient id="SVGID_5_" gradientUnits="userSpaceOnUse" x1="720.2178" y1="202.0215" x2="811.8584" y2="110.3809">
			<stop  offset="0" style="stop-color:#EDE3CC"/>
			<stop  offset="0.3737" style="stop-color:#EBE1C9"/>
			<stop  offset="1" style="stop-color:#BAA684"/>
		</linearGradient>
		<path fill="url(#SVGID_5_)" d="M782.62,257.25l25.621-7.7c-38.008-7.701-51.243-194.029-51.243-194.029l-23.913-1.923
			l-14.09,30.411l34.585,130.123l10.678,26.18l8.108,13.858L782.62,257.25z"/>
		<linearGradient id="SVGID_6_" gradientUnits="userSpaceOnUse" x1="689.2988" y1="155.4238" x2="782.6201" y2="155.4238">
			<stop  offset="0" style="stop-color:#937144"/>
			<stop  offset="0.4888" style="stop-color:#AE8C61"/>
			<stop  offset="1" style="stop-color:#CFBA9F"/>
		</linearGradient>
		<path fill="url(#SVGID_6_)" d="M690.384,82.856c0,0-0.426-8.472,3.418-9.241l39.283-20.018c0,0,20.069,202.884,49.535,203.652
			l-11.955-0.769L745,248.25l-18.5-12.5C726.5,235.75,681.846,209.898,690.384,82.856z"/>
		<linearGradient id="SVGID_7_" gradientUnits="userSpaceOnUse" x1="711.9502" y1="80.9307" x2="711.9502" y2="267.2612">
			<stop  offset="0" style="stop-color:#CBBF99"/>
			<stop  offset="0.3081" style="stop-color:#B8AA76"/>
			<stop  offset="0.702" style="stop-color:#9B8B46"/>
			<stop  offset="1" style="stop-color:#8B612F"/>
		</linearGradient>
		<path fill="url(#SVGID_7_)" d="M653.235,80.931l56.366,2.311c0,0,3.844-0.77,7.257,15.013
			c3.416,15.784,11.532,48.893,11.532,48.893s15.316,65.78,25.189,85.85c3.205,6.515,17.085,23.484,17.085,23.484l-71.739,10.779
			l0.423-5.392l-8.111-21.172L653.235,80.931z"/>
	</g>
	<g>
		<linearGradient id="SVGID_8_" gradientUnits="userSpaceOnUse" x1="620.4775" y1="214.3389" x2="722.2283" y2="112.5881">
			<stop  offset="0" style="stop-color:#EDE3CC"/>
			<stop  offset="0.3737" style="stop-color:#EBE1C9"/>
			<stop  offset="1" style="stop-color:#BAA684"/>
		</linearGradient>
		<path fill="url(#SVGID_8_)" d="M689.762,275.666l28.451-8.551c-42.202-8.549-56.897-215.44-56.897-215.44l-26.552-2.136
			l-15.649,33.768l38.406,144.48l11.855,29.071l9.008,15.387L689.762,275.666z"/>
		<linearGradient id="SVGID_9_" gradientUnits="userSpaceOnUse" x1="586.3779" y1="162.6025" x2="689.7617" y2="162.6025">
			<stop  offset="0" style="stop-color:#937144"/>
			<stop  offset="0.4888" style="stop-color:#AE8C61"/>
			<stop  offset="1" style="stop-color:#CFBA9F"/>
		</linearGradient>
		<path fill="url(#SVGID_9_)" d="M587.349,82.026c0,0-0.473-9.405,3.793-10.26l43.622-22.227c0,0,22.282,225.272,54.998,226.126
			l-13.273-0.854L645,264.668l-4-11C641,253.668,577.863,223.089,587.349,82.026z"/>
		<linearGradient id="SVGID_10_" gradientUnits="userSpaceOnUse" x1="611.293" y1="79.8882" x2="611.293" y2="286.7798">
			<stop  offset="0" style="stop-color:#CBBF99"/>
			<stop  offset="0.3081" style="stop-color:#B8AA76"/>
			<stop  offset="0.702" style="stop-color:#9B8B46"/>
			<stop  offset="1" style="stop-color:#8B612F"/>
		</linearGradient>
		<path fill="url(#SVGID_10_)" d="M546.098,79.888l62.586,2.565c0,0,4.271-0.854,8.063,16.672
			c3.794,17.524,12.801,54.286,12.801,54.286s17.011,73.041,27.974,95.326c3.559,7.233,18.968,26.074,18.968,26.074l-79.654,11.968
			l0.473-5.983l-9.011-23.508L546.098,79.888z"/>
	</g>
	<g>
		<linearGradient id="SVGID_11_" gradientUnits="userSpaceOnUse" x1="509.7402" y1="228.3906" x2="623.677" y2="114.4538">
			<stop  offset="0" style="stop-color:#EDE3CC"/>
			<stop  offset="0.3737" style="stop-color:#EBE1C9"/>
			<stop  offset="1" style="stop-color:#BAA684"/>
		</linearGradient>
		<path fill="url(#SVGID_11_)" d="M587.322,297.062l31.855-9.572c-47.248-9.574-63.706-241.241-63.706-241.241l-29.736-2.391
			l-17.518,37.811l43.004,161.782L564.493,276l10.087,17.23L587.322,297.062z"/>
		<linearGradient id="SVGID_12_" gradientUnits="userSpaceOnUse" x1="471.5654" y1="170.459" x2="587.3223" y2="170.459">
			<stop  offset="0" style="stop-color:#937144"/>
			<stop  offset="0.4888" style="stop-color:#AE8C61"/>
			<stop  offset="1" style="stop-color:#CFBA9F"/>
		</linearGradient>
		<path fill="url(#SVGID_12_)" d="M472.644,80.235c0,0-0.527-10.531,4.25-11.487l48.842-24.891c0,0,24.955,252.247,61.587,253.204
			l-14.863-0.957l-30.126-11.438l-9-12C533.333,272.667,462.024,238.189,472.644,80.235z"/>
		<linearGradient id="SVGID_13_" gradientUnits="userSpaceOnUse" x1="499.459" y1="77.8413" x2="499.459" y2="309.5073">
			<stop  offset="0" style="stop-color:#CBBF99"/>
			<stop  offset="0.3081" style="stop-color:#B8AA76"/>
			<stop  offset="0.702" style="stop-color:#9B8B46"/>
			<stop  offset="1" style="stop-color:#8B612F"/>
		</linearGradient>
		<path fill="url(#SVGID_13_)" d="M426.458,77.841l70.08,2.871c0,0,4.776-0.958,9.025,18.667
			c4.245,19.625,14.331,60.789,14.331,60.789s19.052,81.784,31.327,106.738c3.984,8.1,21.237,29.197,21.237,29.197l-89.195,13.402
			l0.533-6.704l-10.091-26.321L426.458,77.841z"/>
	</g>
	<g>
		<linearGradient id="SVGID_14_" gradientUnits="userSpaceOnUse" x1="386.0913" y1="244.2695" x2="515.343" y2="115.0178">
			<stop  offset="0" style="stop-color:#EDE3CC"/>
			<stop  offset="0.3737" style="stop-color:#EBE1C9"/>
			<stop  offset="1" style="stop-color:#BAA684"/>
		</linearGradient>
		<path fill="url(#SVGID_14_)" d="M474.101,322.174l36.142-10.86c-53.604-10.86-72.274-273.671-72.274-273.671l-33.731-2.714
			L384.36,77.824l48.79,183.531l15.06,36.925l11.439,19.547L474.101,322.174z"/>
		<linearGradient id="SVGID_15_" gradientUnits="userSpaceOnUse" x1="342.8828" y1="178.5508" x2="474.1006" y2="178.5508">
			<stop  offset="0" style="stop-color:#937144"/>
			<stop  offset="0.4888" style="stop-color:#AE8C61"/>
			<stop  offset="1" style="stop-color:#CFBA9F"/>
		</linearGradient>
		<path fill="url(#SVGID_15_)" d="M344.009,76.196c0,0-0.6-11.944,4.819-13.032l55.408-28.235c0,0,28.309,286.158,69.864,287.246
			l-16.858-1.088L437,302.5l-16.5-10C420.5,292.5,331.964,255.386,344.009,76.196z"/>
		<linearGradient id="SVGID_16_" gradientUnits="userSpaceOnUse" x1="374.4253" y1="73.4814" x2="374.4253" y2="336.2944">
			<stop  offset="0" style="stop-color:#CBBF99"/>
			<stop  offset="0.3081" style="stop-color:#B8AA76"/>
			<stop  offset="0.702" style="stop-color:#9B8B46"/>
			<stop  offset="1" style="stop-color:#8B612F"/>
		</linearGradient>
		<path fill="url(#SVGID_16_)" d="M291.608,73.481l79.504,3.257c0,0,5.423-1.085,10.241,21.178
			c4.817,22.263,16.262,68.96,16.262,68.96s21.608,92.78,35.534,121.089c4.52,9.188,24.093,33.12,24.093,33.12l-101.188,15.208
			l0.605-7.604l-11.445-29.866L291.608,73.481z"/>
	</g>
	<g>
		<linearGradient id="SVGID_17_" gradientUnits="userSpaceOnUse" x1="241.9697" y1="260.4658" x2="387.2339" y2="115.2016">
			<stop  offset="0" style="stop-color:#EDE3CC"/>
			<stop  offset="0.3737" style="stop-color:#EBE1C9"/>
			<stop  offset="1" style="stop-color:#BAA684"/>
		</linearGradient>
		<path fill="url(#SVGID_17_)" d="M340.88,348.021l40.619-12.206c-60.245-12.208-81.228-307.577-81.228-307.577l-37.907-3.05
			l-22.342,48.208l54.833,206.273l16.926,41.495l12.858,21.97L340.88,348.021z"/>
		<linearGradient id="SVGID_18_" gradientUnits="userSpaceOnUse" x1="193.5542" y1="186.6055" x2="340.8804" y2="186.6055">
			<stop  offset="0" style="stop-color:#937144"/>
			<stop  offset="0.4888" style="stop-color:#AE8C61"/>
			<stop  offset="1" style="stop-color:#CFBA9F"/>
		</linearGradient>
		<path fill="url(#SVGID_18_)" d="M194.674,71.571c0,0-0.677-13.426,5.414-14.648l62.276-31.734c0,0,31.814,321.614,78.517,322.833
			l-18.946-1.219L292.5,327.75l2.354-18.175C294.854,309.575,181.133,272.96,194.674,71.571z"/>
		<linearGradient id="SVGID_19_" gradientUnits="userSpaceOnUse" x1="228.8579" y1="68.5181" x2="228.8579" y2="363.8901">
			<stop  offset="0" style="stop-color:#CBBF99"/>
			<stop  offset="0.3081" style="stop-color:#B8AA76"/>
			<stop  offset="0.702" style="stop-color:#9B8B46"/>
			<stop  offset="1" style="stop-color:#8B612F"/>
		</linearGradient>
		<path fill="url(#SVGID_19_)" d="M135.781,68.518l89.35,3.663c0,0,6.095-1.221,11.51,23.798
			c5.416,25.022,18.275,77.506,18.275,77.506s24.287,104.275,39.939,136.091c5.08,10.326,27.08,37.228,27.08,37.228L208.212,363.89
			l0.674-8.545l-12.861-33.565L135.781,68.518z"/>
	</g>
	<g>
		<linearGradient id="SVGID_20_" gradientUnits="userSpaceOnUse" x1="85.9302" y1="275.0752" x2="253.8601" y2="107.1453">
			<stop  offset="0" style="stop-color:#EDE3CC"/>
			<stop  offset="0.3737" style="stop-color:#EBE1C9"/>
			<stop  offset="1" style="stop-color:#BAA684"/>
		</linearGradient>
		<path fill="url(#SVGID_20_)" d="M200.276,376.289l46.956-14.111c-69.644-14.11-93.9-355.561-93.9-355.561l-43.822-3.524
			l-25.822,55.73l63.381,238.449l19.566,47.973l14.862,25.397L200.276,376.289z"/>
		<linearGradient id="SVGID_21_" gradientUnits="userSpaceOnUse" x1="29.9624" y1="189.6914" x2="200.2759" y2="189.6914">
			<stop  offset="0" style="stop-color:#937144"/>
			<stop  offset="0.4888" style="stop-color:#AE8C61"/>
			<stop  offset="1" style="stop-color:#CFBA9F"/>
		</linearGradient>
		<path fill="url(#SVGID_21_)" d="M31.257,56.708c0,0-0.779-15.521,6.263-16.932l71.99-36.684c0,0,36.776,371.787,90.767,373.196
			l-21.902-1.409l-16.437-28.221l-14.869-14.814C147.068,331.845,15.604,289.518,31.257,56.708z"/>
	</g>
	<g>
		<path d="M173.097,24.21h-3.142v2.915h3.502V28h-4.545v-8.083h4.366v0.875h-3.322v2.555h3.142V24.21z"/>
		<path d="M174.779,23.766c0-0.6-0.012-1.091-0.048-1.571h0.936l0.06,0.959h0.024c0.288-0.552,0.959-1.091,1.919-1.091
			c0.803,0,2.051,0.479,2.051,2.47V28h-1.056v-3.346c0-0.936-0.348-1.715-1.343-1.715c-0.695,0-1.235,0.492-1.415,1.079
			c-0.048,0.132-0.072,0.312-0.072,0.492V28h-1.056V23.766z"/>
		<path d="M181.439,19.485h1.056V28h-1.056V19.485z"/>
		<path d="M187.485,28l-0.084-0.731h-0.036c-0.324,0.456-0.947,0.863-1.775,0.863c-1.175,0-1.775-0.828-1.775-1.667
			c0-1.403,1.247-2.171,3.49-2.159v-0.12c0-0.479-0.132-1.343-1.319-1.343c-0.54,0-1.104,0.168-1.511,0.432l-0.24-0.695
			c0.48-0.312,1.175-0.516,1.907-0.516c1.775,0,2.207,1.211,2.207,2.375v2.171c0,0.503,0.024,0.995,0.096,1.391H187.485z
			 M187.329,25.038c-1.151-0.024-2.458,0.18-2.458,1.307c0,0.684,0.456,1.008,0.996,1.008c0.755,0,1.235-0.48,1.403-0.972
			c0.036-0.108,0.06-0.228,0.06-0.336V25.038z"/>
		<path d="M194.193,27.784c-0.276,0.144-0.887,0.336-1.667,0.336c-1.751,0-2.891-1.188-2.891-2.962c0-1.787,1.224-3.083,3.119-3.083
			c0.624,0,1.175,0.156,1.463,0.3l-0.24,0.815c-0.252-0.144-0.647-0.275-1.223-0.275c-1.332,0-2.051,0.983-2.051,2.194
			c0,1.343,0.864,2.171,2.015,2.171c0.6,0,0.996-0.156,1.295-0.288L194.193,27.784z"/>
		<path d="M195.947,25.29c0.024,1.427,0.935,2.015,1.991,2.015c0.755,0,1.211-0.132,1.607-0.3l0.18,0.756
			c-0.372,0.168-1.007,0.36-1.931,0.36c-1.787,0-2.854-1.176-2.854-2.927s1.032-3.13,2.723-3.13c1.895,0,2.399,1.667,2.399,2.734
			c0,0.216-0.024,0.384-0.036,0.492H195.947z M199.041,24.534c0.012-0.671-0.276-1.715-1.463-1.715
			c-1.067,0-1.535,0.983-1.619,1.715H199.041z"/>
		<path d="M205.87,21.188h-0.024l-1.355,0.732l-0.204-0.804l1.703-0.912h0.9V28h-1.02V21.188z"/>
	</g>
	<g>
		<path d="M318.097,35.21h-3.142v2.915h3.502V39h-4.545v-8.083h4.366v0.875h-3.322v2.555h3.142V35.21z"/>
		<path d="M319.779,34.766c0-0.6-0.012-1.091-0.048-1.571h0.936l0.06,0.959h0.024c0.288-0.552,0.959-1.091,1.919-1.091
			c0.803,0,2.051,0.479,2.051,2.47V39h-1.056v-3.346c0-0.936-0.348-1.715-1.343-1.715c-0.695,0-1.235,0.492-1.415,1.079
			c-0.048,0.132-0.072,0.312-0.072,0.492V39h-1.056V34.766z"/>
		<path d="M326.439,30.485h1.056V39h-1.056V30.485z"/>
		<path d="M332.485,39l-0.084-0.731h-0.036c-0.324,0.456-0.947,0.863-1.775,0.863c-1.175,0-1.775-0.828-1.775-1.667
			c0-1.403,1.247-2.171,3.49-2.159v-0.12c0-0.479-0.132-1.343-1.319-1.343c-0.54,0-1.104,0.168-1.511,0.432l-0.24-0.695
			c0.48-0.312,1.175-0.516,1.907-0.516c1.775,0,2.207,1.211,2.207,2.375v2.171c0,0.503,0.024,0.995,0.096,1.391H332.485z
			 M332.329,36.038c-1.151-0.024-2.458,0.18-2.458,1.307c0,0.684,0.456,1.008,0.996,1.008c0.755,0,1.235-0.48,1.403-0.972
			c0.036-0.108,0.06-0.228,0.06-0.336V36.038z"/>
		<path d="M339.193,38.784c-0.276,0.144-0.887,0.336-1.667,0.336c-1.751,0-2.891-1.188-2.891-2.962c0-1.787,1.224-3.083,3.119-3.083
			c0.624,0,1.175,0.156,1.463,0.3l-0.24,0.815c-0.252-0.144-0.647-0.275-1.223-0.275c-1.332,0-2.051,0.983-2.051,2.194
			c0,1.343,0.864,2.171,2.015,2.171c0.6,0,0.996-0.156,1.295-0.288L339.193,38.784z"/>
		<path d="M340.947,36.29c0.024,1.427,0.935,2.015,1.991,2.015c0.755,0,1.211-0.132,1.607-0.3l0.18,0.756
			c-0.372,0.168-1.007,0.36-1.931,0.36c-1.787,0-2.854-1.176-2.854-2.927s1.032-3.13,2.723-3.13c1.895,0,2.399,1.667,2.399,2.734
			c0,0.216-0.024,0.384-0.036,0.492H340.947z M344.041,35.534c0.012-0.671-0.276-1.715-1.463-1.715
			c-1.067,0-1.535,0.983-1.619,1.715H344.041z"/>
		<path d="M348.579,39v-0.647l0.828-0.804c1.991-1.895,2.891-2.902,2.902-4.078c0-0.792-0.384-1.523-1.547-1.523
			c-0.708,0-1.295,0.36-1.655,0.66l-0.336-0.744c0.54-0.456,1.308-0.792,2.207-0.792c1.679,0,2.387,1.151,2.387,2.267
			c0,1.439-1.043,2.603-2.687,4.186l-0.624,0.576v0.024h3.502V39H348.579z"/>
	</g>
	<g>
		<path d="M457.098,44.21h-3.143v2.915h3.502V48h-4.545v-8.083h4.365v0.875h-3.322v2.555h3.143V44.21z"/>
		<path d="M458.779,43.766c0-0.6-0.012-1.091-0.048-1.571h0.936l0.06,0.959h0.024c0.288-0.552,0.96-1.091,1.919-1.091
			c0.803,0,2.051,0.479,2.051,2.47V48h-1.056v-3.346c0-0.936-0.348-1.715-1.343-1.715c-0.695,0-1.236,0.492-1.416,1.079
			c-0.047,0.132-0.071,0.312-0.071,0.492V48h-1.056V43.766z"/>
		<path d="M465.439,39.485h1.056V48h-1.056V39.485z"/>
		<path d="M471.485,48l-0.084-0.731h-0.036c-0.324,0.456-0.947,0.863-1.775,0.863c-1.175,0-1.774-0.828-1.774-1.667
			c0-1.403,1.247-2.171,3.489-2.159v-0.12c0-0.479-0.131-1.343-1.318-1.343c-0.54,0-1.104,0.168-1.512,0.432l-0.24-0.695
			c0.48-0.312,1.176-0.516,1.908-0.516c1.774,0,2.206,1.211,2.206,2.375v2.171c0,0.503,0.024,0.995,0.097,1.391H471.485z
			 M471.329,45.038c-1.151-0.024-2.458,0.18-2.458,1.307c0,0.684,0.455,1.008,0.995,1.008c0.755,0,1.235-0.48,1.403-0.972
			c0.035-0.108,0.06-0.228,0.06-0.336V45.038z"/>
		<path d="M478.193,47.784c-0.276,0.144-0.888,0.336-1.668,0.336c-1.75,0-2.891-1.188-2.891-2.962c0-1.787,1.225-3.083,3.119-3.083
			c0.623,0,1.176,0.156,1.463,0.3l-0.24,0.815c-0.252-0.144-0.646-0.275-1.223-0.275c-1.332,0-2.051,0.983-2.051,2.194
			c0,1.343,0.863,2.171,2.015,2.171c0.6,0,0.995-0.156,1.296-0.288L478.193,47.784z"/>
		<path d="M479.947,45.29c0.023,1.427,0.935,2.015,1.99,2.015c0.756,0,1.211-0.132,1.607-0.3l0.18,0.756
			c-0.372,0.168-1.008,0.36-1.932,0.36c-1.787,0-2.854-1.176-2.854-2.927s1.031-3.13,2.723-3.13c1.895,0,2.398,1.667,2.398,2.734
			c0,0.216-0.024,0.384-0.036,0.492H479.947z M483.041,44.534c0.012-0.671-0.275-1.715-1.463-1.715
			c-1.068,0-1.535,0.983-1.619,1.715H483.041z"/>
		<path d="M487.831,46.789c0.3,0.192,0.995,0.492,1.728,0.492c1.355,0,1.774-0.863,1.763-1.511
			c-0.013-1.091-0.995-1.559-2.015-1.559h-0.588v-0.792h0.588c0.768,0,1.738-0.396,1.738-1.319c0-0.624-0.396-1.175-1.367-1.175
			c-0.623,0-1.223,0.276-1.559,0.516l-0.275-0.768c0.407-0.3,1.199-0.6,2.038-0.6c1.535,0,2.231,0.912,2.231,1.859
			c0,0.804-0.48,1.487-1.439,1.835v0.024c0.959,0.192,1.738,0.911,1.738,2.002c0,1.248-0.971,2.339-2.842,2.339
			c-0.875,0-1.643-0.276-2.027-0.528L487.831,46.789z"/>
	</g>
	<g>
		<path d="M571.098,50.21h-3.143v2.915h3.502V54h-4.545v-8.083h4.365v0.875h-3.322v2.555h3.143V50.21z"/>
		<path d="M572.779,49.766c0-0.6-0.012-1.091-0.048-1.571h0.936l0.06,0.959h0.024c0.288-0.552,0.96-1.091,1.919-1.091
			c0.803,0,2.051,0.479,2.051,2.47V54h-1.056v-3.346c0-0.936-0.348-1.715-1.343-1.715c-0.695,0-1.236,0.492-1.416,1.079
			c-0.047,0.132-0.071,0.312-0.071,0.492V54h-1.056V49.766z"/>
		<path d="M579.439,45.485h1.056V54h-1.056V45.485z"/>
		<path d="M585.485,54l-0.084-0.731h-0.036c-0.324,0.456-0.947,0.863-1.775,0.863c-1.175,0-1.774-0.828-1.774-1.667
			c0-1.403,1.247-2.171,3.489-2.159v-0.12c0-0.479-0.131-1.343-1.318-1.343c-0.54,0-1.104,0.168-1.512,0.432l-0.24-0.695
			c0.48-0.312,1.176-0.516,1.908-0.516c1.774,0,2.206,1.211,2.206,2.375v2.171c0,0.503,0.024,0.995,0.097,1.391H585.485z
			 M585.329,51.038c-1.151-0.024-2.458,0.18-2.458,1.307c0,0.684,0.455,1.008,0.995,1.008c0.755,0,1.235-0.48,1.403-0.972
			c0.035-0.108,0.06-0.228,0.06-0.336V51.038z"/>
		<path d="M592.193,53.784c-0.276,0.144-0.888,0.336-1.668,0.336c-1.75,0-2.891-1.188-2.891-2.962c0-1.787,1.225-3.083,3.119-3.083
			c0.623,0,1.176,0.156,1.463,0.3l-0.24,0.815c-0.252-0.144-0.646-0.275-1.223-0.275c-1.332,0-2.051,0.983-2.051,2.194
			c0,1.343,0.863,2.171,2.015,2.171c0.6,0,0.995-0.156,1.296-0.288L592.193,53.784z"/>
		<path d="M593.947,51.29c0.023,1.427,0.935,2.015,1.99,2.015c0.756,0,1.211-0.132,1.607-0.3l0.18,0.756
			c-0.372,0.168-1.008,0.36-1.932,0.36c-1.787,0-2.854-1.176-2.854-2.927s1.031-3.13,2.723-3.13c1.895,0,2.398,1.667,2.398,2.734
			c0,0.216-0.024,0.384-0.036,0.492H593.947z M597.041,50.534c0.012-0.671-0.275-1.715-1.463-1.715
			c-1.068,0-1.535,0.983-1.619,1.715H597.041z"/>
		<path d="M604.842,54v-2.123h-3.623v-0.695l3.479-4.978h1.14v4.846h1.091v0.827h-1.091V54H604.842z M604.842,51.05v-2.603
			c0-0.408,0.012-0.816,0.035-1.224h-0.035c-0.24,0.456-0.432,0.792-0.648,1.151l-1.906,2.65v0.024H604.842z"/>
	</g>
	<g>
		<path d="M675.098,53.21h-3.143v2.915h3.502V57h-4.545v-8.083h4.365v0.875h-3.322v2.555h3.143V53.21z"/>
		<path d="M676.779,52.766c0-0.6-0.012-1.091-0.048-1.571h0.936l0.06,0.959h0.024c0.288-0.552,0.96-1.091,1.919-1.091
			c0.803,0,2.051,0.479,2.051,2.47V57h-1.056v-3.346c0-0.936-0.348-1.715-1.343-1.715c-0.695,0-1.236,0.492-1.416,1.079
			c-0.047,0.132-0.071,0.312-0.071,0.492V57h-1.056V52.766z"/>
		<path d="M683.439,48.485h1.056V57h-1.056V48.485z"/>
		<path d="M689.485,57l-0.084-0.731h-0.036c-0.324,0.456-0.947,0.863-1.775,0.863c-1.175,0-1.774-0.828-1.774-1.667
			c0-1.403,1.247-2.171,3.489-2.159v-0.12c0-0.479-0.131-1.343-1.318-1.343c-0.54,0-1.104,0.168-1.512,0.432l-0.24-0.695
			c0.48-0.312,1.176-0.516,1.908-0.516c1.774,0,2.206,1.211,2.206,2.375v2.171c0,0.503,0.024,0.995,0.097,1.391H689.485z
			 M689.329,54.038c-1.151-0.024-2.458,0.18-2.458,1.307c0,0.684,0.455,1.008,0.995,1.008c0.755,0,1.235-0.48,1.403-0.972
			c0.035-0.108,0.06-0.228,0.06-0.336V54.038z"/>
		<path d="M696.193,56.784c-0.276,0.144-0.888,0.336-1.668,0.336c-1.75,0-2.891-1.188-2.891-2.962c0-1.787,1.225-3.083,3.119-3.083
			c0.623,0,1.176,0.156,1.463,0.3l-0.24,0.815c-0.252-0.144-0.646-0.275-1.223-0.275c-1.332,0-2.051,0.983-2.051,2.194
			c0,1.343,0.863,2.171,2.015,2.171c0.6,0,0.995-0.156,1.296-0.288L696.193,56.784z"/>
		<path d="M697.947,54.29c0.023,1.427,0.935,2.015,1.99,2.015c0.756,0,1.211-0.132,1.607-0.3l0.18,0.756
			c-0.372,0.168-1.008,0.36-1.932,0.36c-1.787,0-2.854-1.176-2.854-2.927s1.031-3.13,2.723-3.13c1.895,0,2.398,1.667,2.398,2.734
			c0,0.216-0.024,0.384-0.036,0.492H697.947z M701.041,53.534c0.012-0.671-0.275-1.715-1.463-1.715
			c-1.068,0-1.535,0.983-1.619,1.715H701.041z"/>
		<path d="M710.232,50.092h-2.975l-0.299,2.003c0.18-0.024,0.348-0.048,0.635-0.048c0.6,0,1.199,0.132,1.68,0.419
			c0.611,0.348,1.115,1.02,1.115,2.003c0,1.523-1.211,2.663-2.902,2.663c-0.852,0-1.571-0.24-1.943-0.479l0.264-0.804
			c0.324,0.192,0.96,0.432,1.668,0.432c0.995,0,1.847-0.647,1.847-1.691c-0.013-1.007-0.684-1.727-2.243-1.727
			c-0.443,0-0.791,0.048-1.079,0.084l0.504-3.742h3.729V50.092z"/>
	</g>
	<g>
		<path d="M771.098,59.21h-3.143v2.915h3.502V63h-4.545v-8.083h4.365v0.875h-3.322v2.555h3.143V59.21z"/>
		<path d="M772.779,58.766c0-0.6-0.012-1.091-0.048-1.571h0.936l0.06,0.959h0.024c0.288-0.552,0.96-1.091,1.919-1.091
			c0.803,0,2.051,0.479,2.051,2.47V63h-1.056v-3.346c0-0.936-0.348-1.715-1.343-1.715c-0.695,0-1.236,0.492-1.416,1.079
			c-0.047,0.132-0.071,0.312-0.071,0.492V63h-1.056V58.766z"/>
		<path d="M779.439,54.485h1.056V63h-1.056V54.485z"/>
		<path d="M785.485,63l-0.084-0.731h-0.036c-0.324,0.456-0.947,0.863-1.775,0.863c-1.175,0-1.774-0.828-1.774-1.667
			c0-1.403,1.247-2.171,3.489-2.159v-0.12c0-0.479-0.131-1.343-1.318-1.343c-0.54,0-1.104,0.168-1.512,0.432l-0.24-0.695
			c0.48-0.312,1.176-0.516,1.908-0.516c1.774,0,2.206,1.211,2.206,2.375v2.171c0,0.503,0.024,0.995,0.097,1.391H785.485z
			 M785.329,60.038c-1.151-0.024-2.458,0.18-2.458,1.307c0,0.684,0.455,1.008,0.995,1.008c0.755,0,1.235-0.48,1.403-0.972
			c0.035-0.108,0.06-0.228,0.06-0.336V60.038z"/>
		<path d="M792.193,62.784c-0.276,0.144-0.888,0.336-1.668,0.336c-1.75,0-2.891-1.188-2.891-2.962c0-1.787,1.225-3.083,3.119-3.083
			c0.623,0,1.176,0.156,1.463,0.3l-0.24,0.815c-0.252-0.144-0.646-0.275-1.223-0.275c-1.332,0-2.051,0.983-2.051,2.194
			c0,1.343,0.863,2.171,2.015,2.171c0.6,0,0.995-0.156,1.296-0.288L792.193,62.784z"/>
		<path d="M793.947,60.29c0.023,1.427,0.935,2.015,1.99,2.015c0.756,0,1.211-0.132,1.607-0.3l0.18,0.756
			c-0.372,0.168-1.008,0.36-1.932,0.36c-1.787,0-2.854-1.176-2.854-2.927s1.031-3.13,2.723-3.13c1.895,0,2.398,1.667,2.398,2.734
			c0,0.216-0.024,0.384-0.036,0.492H793.947z M797.041,59.534c0.012-0.671-0.275-1.715-1.463-1.715
			c-1.068,0-1.535,0.983-1.619,1.715H797.041z"/>
		<path d="M806.029,55.948c-0.217-0.012-0.492,0-0.792,0.048c-1.655,0.275-2.53,1.487-2.71,2.77h0.035
			c0.372-0.492,1.02-0.899,1.883-0.899c1.379,0,2.352,0.996,2.352,2.519c0,1.427-0.973,2.747-2.591,2.747
			c-1.667,0-2.759-1.295-2.759-3.322c0-1.535,0.552-2.746,1.319-3.514c0.647-0.636,1.511-1.032,2.495-1.151
			c0.312-0.048,0.575-0.06,0.768-0.06V55.948z M805.729,60.445c0-1.115-0.635-1.787-1.606-1.787c-0.636,0-1.224,0.396-1.511,0.959
			c-0.072,0.12-0.121,0.276-0.121,0.468c0.024,1.284,0.612,2.231,1.716,2.231C805.117,62.316,805.729,61.561,805.729,60.445z"/>
	</g>
	<path fill="#605131" d="M37.52,39.777C37.52,39.777,48,40,50,56s2,13,9,22s26,15,18,28s10,41,10,41s12,16,13,38s1,44,4,53
		s10,29,10,29l8,39c0,0,21,18,21,21s33.748,21.76,35.374,47.88L168,388l-141-9L5,47C5,47,19.039,28.554,37.52,39.777z"/>
	<path fill="#33270E" d="M66,100c0,0-15,7-24,8s3,8,3,8s8,0,15,2s12,14,12,14s-6-30,2-31S66,100,66,100z"/>
	<path fill="#33270E" d="M21,66c0,0,5,12,9,23s0,3-6,13s-8,17-5,24s6,7,3,15s-6,0-6,0s-4-33-1-36s10-6,5-14S7,63,7,63S13,66,21,66z"
		/>
	<path fill="#33270E" d="M22,158c0,0,43,17,60,9s0,3,0,7s5,14,5,17s0,1-10-5s-11-7-23-7s-24-8-24-8L22,158z"/>
	<path fill="#33270E" d="M30,223c0,0,22,10,35,68s8,62,22,70s-2,7-8,8s-21,6-24-15s8-27-1-55s-21-38-21-38L30,223z"/>
	<path fill="#33270E" d="M67,205c0,0,22-1,22,4s1,16,1,25s-7,22,1,27s-5,5-5,5s-5,2-16-21s-21-30-26-35s19,16,21,8s2-8,2-8V205z"/>
	<path fill="#33270E" d="M110,314c0,0-9,3-10,7s-11,24-7,29s18,2,18,2s-4-3-10-5s1-17,1-17L110,314z"/>
	<path fill="#33270E" d="M138,329c0,0-10,4-16,8s-7,13-7,13l5,1c0,0,11-13,16-13s11-3,11-3L138,329z"/>
	<path fill="#33270E" d="M115,366c0,0,16-4,27-2s11,12,11,12s-5-8-13-7S115,366,115,366z"/>
</g>
</svg>
