<?xml version="1.0" encoding="utf-8"?>
<!-- Generator: Adobe Illustrator 16.0.0, SVG Export Plug-In . SVG Version: 6.00 Build 0)  -->
<!DOCTYPE svg PUBLIC "-//W3C//DTD SVG 1.1//EN" "http://www.w3.org/Graphics/SVG/1.1/DTD/svg11.dtd">
<svg version="1.1" id="Capa_1" xmlns="http://www.w3.org/2000/svg" xmlns:xlink="http://www.w3.org/1999/xlink" x="0px" y="0px"
	 width="513px" height="211px" viewBox="0 0 513 211" enable-background="new 0 0 513 211" xml:space="preserve">
<g>
	<g>
		<path fill="#FFFFFF" d="M341.228,108.697l-5.718,0.865l-0.313-2.063l13.92-2.109l0.313,2.064l-5.746,0.871l2.538,16.735
			l-2.455,0.373L341.228,108.697z"/>
		<path fill="#FFFFFF" d="M359.665,123.021l-0.452-1.672l-0.083,0.014c-0.595,1.175-1.899,2.343-3.824,2.635
			c-2.734,0.415-4.421-1.3-4.717-3.252c-0.494-3.264,2.136-5.488,7.354-6.251l-0.042-0.279c-0.169-1.116-0.781-3.077-3.543-2.657
			c-1.255,0.188-2.507,0.778-3.362,1.535l-0.803-1.533c1.006-0.896,2.552-1.612,4.253-1.871c4.129-0.627,5.563,2.039,5.972,4.744
			l0.767,5.049c0.178,1.173,0.406,2.31,0.714,3.203L359.665,123.021z M358.259,116.188c-2.688,0.353-5.655,1.285-5.259,3.907
			c0.24,1.591,1.415,2.186,2.672,1.992c1.758-0.267,2.703-1.551,2.921-2.754c0.047-0.265,0.06-0.552,0.021-0.803L358.259,116.188z"
			/>
		<path fill="#FFFFFF" d="M364.229,112.828c-0.241-1.589-0.477-2.952-0.75-4.195l2.146-0.324l0.484,2.637l0.112-0.016
			c0.338-1.908,1.644-3.274,3.289-3.523c0.278-0.042,0.479-0.045,0.71-0.021l0.352,2.315c-0.26-0.021-0.515-0.009-0.85,0.043
			c-1.729,0.262-2.758,1.759-2.813,3.649c-0.005,0.344-0.002,0.741,0.063,1.159l1.091,7.197l-2.427,0.368L364.229,112.828z"/>
		<path fill="#FFFFFF" d="M374.891,114.266c0.56,3.313,2.887,4.355,5.342,3.983c1.757-0.267,2.771-0.731,3.632-1.265l0.687,1.692
			c-0.807,0.522-2.216,1.192-4.364,1.521c-4.156,0.63-7.053-1.729-7.67-5.801c-0.618-4.071,1.295-7.646,5.228-8.239
			c4.407-0.669,6.167,3.03,6.543,5.513c0.076,0.503,0.08,0.902,0.092,1.157L374.891,114.266z M381.821,111.417
			c-0.209-1.565-1.246-3.894-4.008-3.476c-2.482,0.377-3.224,2.83-3.161,4.563L381.821,111.417z"/>
		<path fill="#FFFFFF" d="M395.932,117.523l-0.453-1.672l-0.083,0.013c-0.593,1.176-1.899,2.344-3.824,2.635
			c-2.732,0.415-4.421-1.299-4.717-3.252c-0.494-3.265,2.136-5.488,7.356-6.251l-0.043-0.279c-0.169-1.115-0.78-3.077-3.541-2.658
			c-1.258,0.19-2.509,0.779-3.363,1.537l-0.803-1.533c1.006-0.896,2.552-1.612,4.253-1.872c4.129-0.627,5.561,2.04,5.971,4.745
			l0.766,5.049c0.18,1.173,0.406,2.309,0.714,3.201L395.932,117.523z M394.524,110.688c-2.687,0.354-5.655,1.285-5.258,3.908
			c0.241,1.59,1.416,2.185,2.671,1.992c1.758-0.268,2.704-1.552,2.921-2.755c0.047-0.265,0.062-0.552,0.021-0.802L394.524,110.688z"
			/>
	</g>
</g>
<g>
	<polygon fill="#394708" points="10,211 416,163 513,0 0,173 	"/>
</g>
<g>
	<path fill="#FFFFFF" d="M196.744,135.5c1.941-0.639,4.507-1.326,7.828-1.838c4.08-0.629,7.215-0.142,9.376,1.273
		c1.99,1.248,3.392,3.412,3.831,6.258c0.446,2.895-0.057,5.303-1.414,7.213c-1.823,2.66-5.199,4.396-9.231,5.018
		c-1.233,0.189-2.38,0.318-3.365,0.227l1.976,12.811l-4.128,0.637L196.744,135.5z M203.249,150.281
		c0.938,0.1,2.091,0.019,3.467-0.193c4.982-0.768,7.646-3.656,6.965-8.068c-0.651-4.223-3.954-5.803-8.509-5.1
		c-1.803,0.277-3.156,0.633-3.839,0.932L203.249,150.281z"/>
	<path fill="#FFFFFF" d="M223.518,147.545c-0.417-2.703-0.823-5.021-1.295-7.133l3.653-0.564l0.837,4.485l0.19-0.029
		c0.568-3.245,2.782-5.577,5.582-6.009c0.475-0.074,0.813-0.077,1.208-0.041l0.606,3.938c-0.441-0.028-0.875-0.01-1.445,0.078
		c-2.941,0.453-4.685,3.004-4.771,6.224c-0.007,0.583,0.001,1.263,0.11,1.974l1.888,12.241l-4.128,0.636L223.518,147.545z"/>
	<path fill="#FFFFFF" d="M259.972,146.15c1.31,8.492-4.003,13.1-9.554,13.955c-6.215,0.959-11.709-2.856-12.828-10.115
		c-1.186-7.686,3.148-12.969,9.506-13.949C253.691,135.024,258.89,139.129,259.972,146.15z M241.79,149.197
		c0.775,5.029,4.255,8.378,8.335,7.748c3.985-0.613,6.396-4.822,5.599-9.994c-0.6-3.891-3.306-8.524-8.239-7.764
		C242.55,139.949,241.117,144.832,241.79,149.197z"/>
	<path fill="#FFFFFF" d="M283.272,153.633c-1.004,0.736-3.306,1.869-6.39,2.344c-6.927,1.068-12.158-2.934-13.241-9.955
		c-1.09-7.068,2.96-12.938,10.455-14.094c2.467-0.381,4.745-0.102,5.972,0.293l-0.452,3.373c-1.084-0.416-2.729-0.697-5.007-0.346
		c-5.267,0.813-7.514,5.141-6.774,9.934c0.819,5.313,4.74,8.061,9.295,7.357c2.372-0.365,3.842-1.224,4.948-1.928L283.272,153.633z"
		/>
	<path fill="#FFFFFF" d="M288.675,142.695c0.966,5.633,4.93,7.4,9.104,6.758c2.989-0.461,4.712-1.262,6.175-2.168l1.173,2.881
		c-1.368,0.891-3.767,2.037-7.419,2.6c-7.069,1.09-12.009-2.908-13.077-9.834c-1.067-6.928,2.171-13.013,8.86-14.045
		c7.496-1.154,10.506,5.133,11.157,9.355c0.132,0.854,0.139,1.533,0.157,1.967L288.675,142.695z M300.454,137.82
		c-0.362-2.664-2.137-6.617-6.833-5.893c-4.223,0.651-5.474,4.827-5.359,7.772L300.454,137.82z"/>
	<path fill="#FFFFFF" d="M310.543,145.93c1.357,0.617,3.672,1.135,5.759,0.813c3.036-0.469,4.226-2.205,3.933-4.104
		c-0.307-1.992-1.661-2.901-4.92-3.564c-4.354-0.834-6.651-2.811-7.075-5.563c-0.57-3.701,1.949-7.199,6.884-7.959
		c2.325-0.359,4.468-0.01,5.865,0.553l-0.575,3.197c-0.99-0.431-2.767-0.934-4.902-0.604c-2.467,0.38-3.623,2.015-3.359,3.723
		c0.292,1.898,1.8,2.54,4.965,3.218c4.219,0.903,6.566,2.581,7.093,5.997c0.622,4.033-2.07,7.362-7.526,8.203
		c-2.515,0.389-4.935,0.13-6.693-0.57L310.543,145.93z"/>
	<path fill="#FFFFFF" d="M349.536,132.34c1.31,8.493-4.002,13.1-9.554,13.957c-6.215,0.957-11.709-2.857-12.828-10.117
		c-1.186-7.686,3.149-12.969,9.507-13.949C343.255,121.215,348.454,125.318,349.536,132.34z M331.355,135.387
		c0.775,5.029,4.255,8.379,8.335,7.75c3.985-0.615,6.396-4.824,5.599-9.996c-0.6-3.891-3.305-8.523-8.239-7.764
		C332.115,126.139,330.682,131.021,331.355,135.387z"/>
</g>
</svg>
