<?xml version="1.0" encoding="utf-8"?>
<!-- Generator: Adobe Illustrator 16.0.0, SVG Export Plug-In . SVG Version: 6.00 Build 0)  -->
<!DOCTYPE svg PUBLIC "-//W3C//DTD SVG 1.1//EN" "http://www.w3.org/Graphics/SVG/1.1/DTD/svg11.dtd">
<svg version="1.1" id="Capa_1" xmlns="http://www.w3.org/2000/svg" xmlns:xlink="http://www.w3.org/1999/xlink" x="0px" y="0px"
	 width="450px" height="70px" viewBox="0 0 450 70" enable-background="new 0 0 450 70" xml:space="preserve">
<g>
	<path fill="#749A06" d="M450,0v70H164.351c-6.78-32-49.59-54.779-101.2-54.779C39.381,15.221,18,20.71,0,29.54V0H450z"/>
</g>
<g>
	<path fill="#FFFFFF" d="M231.852,25.504h2.692v18.598h8.912v2.259h-11.604V25.504z"/>
	<path fill="#FFFFFF" d="M259.488,38.748c0,5.539-3.837,7.953-7.457,7.953c-4.054,0-7.18-2.971-7.18-7.705
		c0-5.013,3.28-7.953,7.427-7.953C256.579,31.043,259.488,34.168,259.488,38.748z M247.605,38.903c0,3.279,1.888,5.755,4.549,5.755
		c2.6,0,4.549-2.444,4.549-5.817c0-2.537-1.269-5.755-4.486-5.755C248.997,33.085,247.605,36.056,247.605,38.903z"/>
	<path fill="#FFFFFF" d="M262.554,43.575c0.805,0.526,2.228,1.083,3.59,1.083c1.98,0,2.908-0.99,2.908-2.228
		c0-1.3-0.773-2.012-2.785-2.754c-2.691-0.96-3.961-2.445-3.961-4.239c0-2.414,1.95-4.395,5.168-4.395
		c1.517,0,2.847,0.434,3.683,0.929l-0.681,1.98c-0.588-0.372-1.671-0.867-3.063-0.867c-1.609,0-2.507,0.928-2.507,2.042
		c0,1.237,0.897,1.795,2.847,2.537c2.6,0.99,3.931,2.29,3.931,4.518c0,2.631-2.043,4.487-5.602,4.487
		c-1.64,0-3.156-0.402-4.208-1.021L262.554,43.575z"/>
	<path fill="#FFFFFF" d="M283.259,39.367c0.062,3.683,2.413,5.198,5.137,5.198c1.949,0,3.125-0.34,4.146-0.773l0.464,1.949
		c-0.959,0.434-2.599,0.929-4.981,0.929c-4.611,0-7.365-3.032-7.365-7.551c0-4.517,2.661-8.076,7.024-8.076
		c4.89,0,6.189,4.301,6.189,7.056c0,0.557-0.063,0.99-0.093,1.269H283.259z M291.242,37.418c0.031-1.733-0.712-4.425-3.775-4.425
		c-2.754,0-3.961,2.538-4.177,4.425H291.242z"/>
	<path fill="#FFFFFF" d="M307.46,44.04h-0.062c-0.805,1.485-2.476,2.661-4.89,2.661c-3.497,0-6.344-3.033-6.344-7.582
		c0-5.601,3.621-8.076,6.777-8.076c2.32,0,3.868,1.145,4.61,2.6h0.063l0.093-2.259h2.568c-0.063,1.269-0.093,2.569-0.093,4.116
		v16.988h-2.724V44.04z M307.46,37.448c0-0.371-0.031-0.805-0.124-1.145c-0.402-1.671-1.856-3.094-3.898-3.094
		c-2.816,0-4.519,2.382-4.519,5.755c0,2.971,1.424,5.57,4.426,5.57c1.764,0,3.28-1.083,3.898-2.971
		c0.124-0.372,0.217-0.897,0.217-1.3V37.448z"/>
	<path fill="#FFFFFF" d="M327.206,42.275c0,1.548,0.03,2.909,0.123,4.085h-2.413l-0.155-2.444h-0.062
		c-0.712,1.207-2.29,2.785-4.951,2.785c-2.352,0-5.168-1.3-5.168-6.561v-8.757h2.724v8.293c0,2.847,0.866,4.766,3.342,4.766
		c1.825,0,3.095-1.27,3.59-2.476c0.154-0.402,0.247-0.897,0.247-1.393v-9.191h2.724V42.275z"/>
	<path fill="#FFFFFF" d="M334.76,27.175c0.03,0.928-0.65,1.671-1.733,1.671c-0.959,0-1.64-0.743-1.64-1.671
		c0-0.959,0.711-1.702,1.701-1.702C334.11,25.473,334.76,26.216,334.76,27.175z M331.727,46.36V31.383h2.724V46.36H331.727z"/>
	<path fill="#FFFFFF" d="M338.969,36.272c0-1.918-0.062-3.465-0.124-4.889h2.445l0.124,2.569h0.062
		c1.114-1.826,2.878-2.909,5.322-2.909c3.621,0,6.344,3.064,6.344,7.612c0,5.385-3.28,8.046-6.808,8.046
		c-1.98,0-3.714-0.866-4.611-2.352h-0.062v8.138h-2.692V36.272z M341.661,40.265c0,0.402,0.062,0.773,0.124,1.114
		c0.495,1.887,2.135,3.187,4.084,3.187c2.878,0,4.55-2.352,4.55-5.786c0-3.002-1.579-5.57-4.456-5.57
		c-1.857,0-3.59,1.331-4.116,3.373c-0.093,0.341-0.186,0.742-0.186,1.114V40.265z"/>
	<path fill="#FFFFFF" d="M370.132,38.748c0,5.539-3.837,7.953-7.457,7.953c-4.054,0-7.18-2.971-7.18-7.705
		c0-5.013,3.28-7.953,7.427-7.953C367.224,31.043,370.132,34.168,370.132,38.748z M358.249,38.903c0,3.279,1.888,5.755,4.549,5.755
		c2.6,0,4.549-2.444,4.549-5.817c0-2.537-1.269-5.755-4.486-5.755C359.642,33.085,358.249,36.056,358.249,38.903z"/>
	<path fill="#FFFFFF" d="M373.199,43.575c0.805,0.526,2.228,1.083,3.59,1.083c1.98,0,2.908-0.99,2.908-2.228
		c0-1.3-0.773-2.012-2.785-2.754c-2.691-0.96-3.961-2.445-3.961-4.239c0-2.414,1.95-4.395,5.168-4.395
		c1.517,0,2.848,0.434,3.683,0.929l-0.681,1.98c-0.588-0.372-1.671-0.867-3.063-0.867c-1.609,0-2.507,0.928-2.507,2.042
		c0,1.237,0.897,1.795,2.847,2.537c2.6,0.99,3.931,2.29,3.931,4.518c0,2.631-2.043,4.487-5.602,4.487
		c-1.64,0-3.156-0.402-4.208-1.021L373.199,43.575z"/>
</g>
</svg>
