<?xml version="1.0" encoding="utf-8"?>
<!-- Generator: Adobe Illustrator 16.0.0, SVG Export Plug-In . SVG Version: 6.00 Build 0)  -->
<!DOCTYPE svg PUBLIC "-//W3C//DTD SVG 1.1//EN" "http://www.w3.org/Graphics/SVG/1.1/DTD/svg11.dtd">
<svg version="1.1" id="Capa_1" xmlns="http://www.w3.org/2000/svg" xmlns:xlink="http://www.w3.org/1999/xlink" x="0px" y="0px"
	 width="511.621px" height="212.118px" viewBox="0 0 511.621 212.118" enable-background="new 0 0 511.621 212.118"
	 xml:space="preserve">
<g>
	<polygon fill="#57BC15" points="12,212.118 418.001,164.118 511.621,0 0,174.118 	"/>
</g>
<g>
	<path fill="#FFFFFF" d="M151.813,144.484l4.931,31.977l-4.128,0.637l-4.931-31.978L151.813,144.484z"/>
	<path fill="#FFFFFF" d="M161.704,158.55c-0.366-2.372-0.714-4.31-1.148-6.186l3.7-0.571l0.823,3.76l0.094-0.016
		c0.803-2.357,3.13-4.902,6.926-5.488c3.179-0.49,8.405,0.647,9.62,8.523l2.114,13.711l-4.176,0.644l-2.041-13.236
		c-0.57-3.701-2.421-6.573-6.359-5.966c-2.752,0.425-4.587,2.699-4.94,5.134c-0.108,0.551-0.095,1.276,0.016,1.989l2.129,13.806
		l-4.175,0.644L161.704,158.55z"/>
	<path fill="#FFFFFF" d="M190.896,140.934l1.017,6.596l5.978-0.922l0.49,3.179l-5.978,0.922l1.909,12.382
		c0.439,2.847,1.494,4.336,3.819,3.978c1.091-0.169,1.875-0.435,2.375-0.658l0.673,3.102c-0.755,0.457-1.999,0.892-3.612,1.14
		c-1.945,0.301-3.606-0.074-4.777-1.06c-1.377-1.051-2.118-3.024-2.535-5.729l-1.932-12.524l-3.559,0.549l-0.489-3.179l3.558-0.549
		l-0.849-5.504L190.896,140.934z"/>
	<path fill="#FFFFFF" d="M203.691,153.047c-0.417-2.704-0.823-5.021-1.295-7.135l3.653-0.563l0.837,4.484l0.19-0.029
		c0.568-3.244,2.782-5.578,5.582-6.01c0.474-0.072,0.813-0.076,1.208-0.04l0.606,3.938c-0.441-0.029-0.875-0.012-1.445,0.076
		c-2.941,0.454-4.685,3.006-4.771,6.225c-0.007,0.584,0.001,1.263,0.11,1.975l1.888,12.24l-4.128,0.637L203.691,153.047z"/>
	<path fill="#FFFFFF" d="M240.145,151.652c1.31,8.493-4.003,13.101-9.554,13.956c-6.215,0.958-11.709-2.857-12.828-10.116
		c-1.186-7.686,3.148-12.969,9.506-13.948C233.864,140.526,239.063,144.63,240.145,151.652z M221.964,154.699
		c0.775,5.028,4.255,8.378,8.335,7.749c3.985-0.614,6.396-4.823,5.599-9.995c-0.6-3.891-3.306-8.524-8.239-7.763
		C222.723,145.45,221.291,150.333,221.964,154.699z"/>
	<path fill="#FFFFFF" d="M261.846,125.769l4.279,27.754c0.314,2.04,0.721,4.358,1.104,5.901l-3.748,0.578l-0.804-3.956l-0.096,0.015
		c-0.886,2.76-3.385,5.136-7.133,5.714c-5.551,0.856-10.545-3.183-11.62-10.156c-1.226-7.632,2.795-13.06,8.393-13.923
		c3.511-0.542,6.139,0.753,7.468,2.442l0.096-0.015l-2.114-13.711L261.846,125.769z M260.765,146.481
		c-0.08-0.521-0.236-1.227-0.46-1.726c-1.026-2.563-3.64-4.394-6.771-3.91c-4.317,0.665-6.294,4.856-5.512,9.933
		c0.717,4.649,3.587,8.141,8.094,7.446c2.8-0.432,5.076-2.677,5.353-5.926c0.055-0.591,0.015-1.167-0.088-1.831L260.765,146.481z"/>
	<path fill="#FFFFFF" d="M292.214,149.161c0.365,2.372,0.735,4.453,1.155,6.233l-3.7,0.571l-0.815-3.712l-0.095,0.015
		c-0.806,2.019-2.853,4.811-6.933,5.439c-3.605,0.557-8.23-0.77-9.474-8.836l-2.07-13.426l4.175-0.644l1.96,12.714
		c0.673,4.365,2.455,7.102,6.251,6.517c2.799-0.432,4.444-2.677,4.918-4.644c0.143-0.653,0.168-1.435,0.051-2.193l-2.173-14.091
		l4.175-0.644L292.214,149.161z"/>
	<path fill="#FFFFFF" d="M316.34,150.978c-1.004,0.737-3.306,1.87-6.39,2.345c-6.927,1.068-12.158-2.934-13.241-9.955
		c-1.09-7.069,2.96-12.939,10.456-14.095c2.467-0.38,4.744-0.101,5.971,0.293l-0.451,3.373c-1.084-0.416-2.729-0.696-5.008-0.345
		c-5.267,0.813-7.513,5.141-6.773,9.933c0.818,5.313,4.739,8.061,9.294,7.358c2.372-0.365,3.843-1.225,4.948-1.929L316.34,150.978z"
		/>
	<path fill="#FFFFFF" d="M337.308,147.745c-1.003,0.738-3.306,1.869-6.39,2.346c-6.927,1.067-12.158-2.935-13.241-9.956
		c-1.09-7.069,2.96-12.938,10.456-14.095c2.467-0.381,4.744-0.1,5.971,0.293l-0.451,3.373c-1.085-0.416-2.73-0.695-5.008-0.345
		c-5.267,0.812-7.513,5.142-6.773,9.933c0.818,5.314,4.739,8.061,9.294,7.358c2.372-0.366,3.842-1.224,4.948-1.929L337.308,147.745z
		"/>
	<path fill="#FFFFFF" d="M342.439,117.713c0.267,1.416-0.603,2.716-2.263,2.973c-1.471,0.227-2.689-0.752-2.909-2.175
		c-0.227-1.471,0.688-2.778,2.207-3.012C341.04,115.258,342.213,116.243,342.439,117.713z M342.324,147.846l-3.54-22.963
		l4.175-0.644l3.541,22.962L342.324,147.846z"/>
	<path fill="#FFFFFF" d="M372.406,131.258c1.31,8.493-4.004,13.101-9.555,13.956c-6.214,0.958-11.708-2.856-12.827-10.116
		c-1.186-7.686,3.147-12.969,9.505-13.948C366.125,120.133,371.323,124.237,372.406,131.258z M354.224,134.305
		c0.775,5.029,4.254,8.379,8.335,7.749c3.984-0.614,6.396-4.823,5.599-9.995c-0.6-3.891-3.307-8.523-8.24-7.764
		C354.984,125.057,353.552,129.94,354.224,134.305z M364.153,110.82l-4.741,7.677l-2.988,0.461l3.128-7.428L364.153,110.82z"/>
	<path fill="#FFFFFF" d="M376.885,125.371c-0.365-2.372-0.713-4.31-1.146-6.186l3.7-0.57l0.823,3.759l0.094-0.015
		c0.803-2.358,3.13-4.903,6.926-5.488c3.179-0.49,8.405,0.647,9.619,8.522l2.114,13.711l-4.175,0.645l-2.041-13.237
		c-0.57-3.7-2.421-6.572-6.359-5.966c-2.752,0.425-4.588,2.699-4.94,5.134c-0.109,0.552-0.095,1.277,0.015,1.989l2.129,13.807
		l-4.175,0.644L376.885,125.371z"/>
</g>
</svg>
