<?xml version="1.0" encoding="utf-8"?>
<!-- Generator: Adobe Illustrator 16.0.0, SVG Export Plug-In . SVG Version: 6.00 Build 0)  -->
<!DOCTYPE svg PUBLIC "-//W3C//DTD SVG 1.1//EN" "http://www.w3.org/Graphics/SVG/1.1/DTD/svg11.dtd">
<svg version="1.1" id="Capa_2" xmlns="http://www.w3.org/2000/svg" xmlns:xlink="http://www.w3.org/1999/xlink" x="0px" y="0px"
	 width="884.956px" height="173.991px" viewBox="0 0 884.956 173.991" enable-background="new 0 0 884.956 173.991"
	 xml:space="preserve">
<linearGradient id="SVGID_1_" gradientUnits="userSpaceOnUse" x1="484.6357" y1="154.8232" x2="600.9307" y2="154.8232">
	<stop  offset="0" style="stop-color:#CDE5F4"/>
	<stop  offset="0.5" style="stop-color:#AAD4ED"/>
	<stop  offset="0.772" style="stop-color:#9BCEEA"/>
	<stop  offset="1" style="stop-color:#94CBE8"/>
</linearGradient>
<path fill="url(#SVGID_1_)" d="M600.931,157.495c0,2.489-5.858,4.51-13.087,4.51c-3.655,0-6.964-0.519-9.34-1.349
	c-2.395,0.974-5.973,1.592-9.971,1.592c-2.156,0-4.19-0.183-5.979-0.501c-1.441,1.956-6.572,3.399-12.687,3.399
	c-5.241,0-9.759-1.062-11.851-2.592c-1.989,0.417-4.319,0.659-6.816,0.659c-0.213,0-0.426-0.004-0.639-0.004
	c-1.879,1.698-6.648,2.903-12.235,2.903c-7.229,0-13.087-2.017-13.087-4.51c0-0.349,0.109-0.687,0.335-1.013
	c-1.866-0.405-3.418-0.97-4.492-1.637c-1.069,0.095-2.202,0.147-3.36,0.147c-7.229,0-13.086-2.016-13.086-4.51
	c0-2.493,5.857-4.514,13.086-4.514c0.187,0,0.367,0,0.554,0.004c0.907-2.19,6.353-3.877,12.95-3.877
	c2.003,0,3.882,0.151,5.582,0.432c1.725-1.796,6.449-3.104,12.235-3.104c5.62,0,10.048,1.705,10.048,1.705
	c1.448-0.345,4.34-1.151,8.156-1.314c3.321-0.14,6.173-0.015,7.969,0.985h0.006c2.241-1,5.072-1.292,8.162-1.292
	c6.366,0,11.664,1.452,12.842,3.528c0.007-0.002,0.007-0.085,0.013-0.089c2.35-0.773,5.529-1.287,9.031-1.287
	c7.228,0,13.086,1.999,13.086,4.492c0,1.305-1.603,2.469-4.171,3.291C598.208,154.326,600.931,155.793,600.931,157.495z"/>
<linearGradient id="SVGID_2_" gradientUnits="userSpaceOnUse" x1="546.6357" y1="142.8232" x2="662.9307" y2="142.8232">
	<stop  offset="0" style="stop-color:#CDE5F4"/>
	<stop  offset="0.5" style="stop-color:#AAD4ED"/>
	<stop  offset="0.772" style="stop-color:#9BCEEA"/>
	<stop  offset="1" style="stop-color:#94CBE8"/>
</linearGradient>
<path fill="url(#SVGID_2_)" d="M662.931,145.495c0,2.489-5.858,4.51-13.087,4.51c-3.655,0-6.964-0.519-9.34-1.349
	c-2.395,0.974-5.973,1.592-9.971,1.592c-2.156,0-4.19-0.183-5.979-0.501c-1.441,1.956-6.572,3.399-12.687,3.399
	c-5.241,0-9.759-1.062-11.851-2.592c-1.989,0.417-4.319,0.659-6.816,0.659c-0.213,0-0.426-0.004-0.639-0.004
	c-1.879,1.698-6.648,2.903-12.235,2.903c-7.229,0-13.087-2.017-13.087-4.51c0-0.349,0.109-0.687,0.335-1.013
	c-1.866-0.405-3.418-0.97-4.492-1.637c-1.069,0.095-2.202,0.147-3.36,0.147c-7.229,0-13.086-2.016-13.086-4.51
	c0-2.493,5.857-4.514,13.086-4.514c0.187,0,0.367,0,0.554,0.004c0.907-2.19,6.353-3.877,12.95-3.877
	c2.003,0,3.882,0.151,5.582,0.432c1.725-1.796,6.449-3.104,12.235-3.104c5.62,0,10.048,1.705,10.048,1.705
	c1.448-0.345,4.34-1.151,8.156-1.314c3.321-0.14,6.173-0.015,7.969,0.985h0.006c2.241-1,5.072-1.292,8.162-1.292
	c6.366,0,11.664,1.452,12.842,3.528c0.007-0.002,0.007-0.085,0.013-0.089c2.35-0.773,5.529-1.287,9.031-1.287
	c7.228,0,13.086,1.999,13.086,4.492c0,1.305-1.603,2.469-4.171,3.291C660.208,142.326,662.931,143.793,662.931,145.495z"/>
<linearGradient id="SVGID_3_" gradientUnits="userSpaceOnUse" x1="736.6357" y1="28.3232" x2="877.7861" y2="28.3232">
	<stop  offset="0" style="stop-color:#CDE5F4"/>
	<stop  offset="0.5" style="stop-color:#AAD4ED"/>
	<stop  offset="0.772" style="stop-color:#9BCEEA"/>
	<stop  offset="1" style="stop-color:#94CBE8"/>
</linearGradient>
<path fill="url(#SVGID_3_)" d="M877.786,33.479c0,4.806-7.109,8.704-15.883,8.704c-4.438,0-8.454-1.001-11.337-2.604
	c-2.906,1.88-7.249,3.072-12.102,3.072c-2.617,0-5.086-0.352-7.258-0.966c-1.75,3.774-7.977,6.561-15.398,6.561
	c-6.36,0-11.844-2.048-14.383-5.003c-2.414,0.806-5.243,1.273-8.274,1.273c-0.257,0-0.516-0.007-0.773-0.007
	c-2.281,3.276-8.07,5.603-14.852,5.603c-8.773,0-15.883-3.892-15.883-8.704c0-0.674,0.133-1.324,0.405-1.953
	c-2.265-0.783-4.147-1.873-5.452-3.16c-1.297,0.183-2.672,0.285-4.078,0.285c-8.773,0-15.883-3.892-15.883-8.704
	c0-4.813,7.109-8.712,15.883-8.712c0.226,0,0.445,0,0.672,0.007c1.102-4.227,7.711-7.482,15.719-7.482
	c2.431,0,4.711,0.292,6.773,0.834c2.094-3.468,7.829-5.99,14.852-5.99c6.821,0,12.195,3.292,12.195,3.292
	c1.758-0.666,5.267-2.364,9.899-2.679c4.031-0.27,7.492,0.763,9.672,1.763h0.008c2.719-1,6.155-2.354,9.906-2.354
	c7.727,0,14.157,2.874,15.586,6.884c0.009-0.008,0.009-0.133,0.016-0.141c2.853-1.492,6.711-2.468,10.961-2.468
	c8.773,0,15.884,3.868,15.884,8.681c0,2.517-1.945,4.768-5.063,6.355C874.481,27.358,877.786,30.195,877.786,33.479z"/>
<linearGradient id="SVGID_4_" gradientUnits="userSpaceOnUse" x1="277.1162" y1="86.7314" x2="375.9111" y2="86.7314">
	<stop  offset="0" style="stop-color:#CDE5F4"/>
	<stop  offset="0.5" style="stop-color:#AAD4ED"/>
	<stop  offset="0.772" style="stop-color:#9BCEEA"/>
	<stop  offset="1" style="stop-color:#94CBE8"/>
</linearGradient>
<path fill="url(#SVGID_4_)" d="M375.911,90.679c0,3.592-4.976,6.507-11.116,6.507c-3.106,0-5.917-0.749-7.936-1.946
	c-2.034,1.405-5.074,2.296-8.47,2.296c-1.832,0-3.56-0.263-5.08-0.722c-1.225,2.822-5.583,4.905-10.778,4.905
	c-4.452,0-8.29-1.531-10.067-3.74c-1.689,0.602-3.669,0.951-5.791,0.951c-0.181,0-0.361-0.005-0.542-0.005
	c-1.597,2.449-5.649,4.188-10.395,4.188c-6.141,0-11.117-2.909-11.117-6.508c0-0.503,0.093-0.989,0.284-1.46
	c-1.585-0.585-2.903-1.4-3.817-2.362c-0.908,0.137-1.87,0.214-2.854,0.214c-6.141,0-11.117-2.909-11.117-6.508
	c0-3.598,4.976-6.513,11.117-6.513c0.158,0,0.312,0,0.47,0.006c0.771-3.161,5.397-5.594,11.002-5.594
	c1.701,0,3.297,0.218,4.741,0.623c1.465-2.593,5.479-4.479,10.395-4.479c4.774,0,8.537,2.461,8.537,2.461
	c1.23-0.498,3.686-1.967,6.928-2.203c2.821-0.201,5.244,1.118,6.77,1.118h0.005c1.903-1,4.309-1.56,6.934-1.56
	c5.408,0,9.909,2.249,10.909,5.245c0.006-0.006,0.006-0.048,0.012-0.054c1.996-1.115,4.696-1.82,7.672-1.82
	c6.141,0,11.117,2.904,11.117,6.502c0,1.881-1.362,3.571-3.544,4.757C373.599,86.095,375.911,88.223,375.911,90.679z"/>
<linearGradient id="SVGID_5_" gradientUnits="userSpaceOnUse" x1="9.1162" y1="56.3232" x2="189.7861" y2="56.3232">
	<stop  offset="0" style="stop-color:#CDE5F4"/>
	<stop  offset="0.5" style="stop-color:#AAD4ED"/>
	<stop  offset="0.772" style="stop-color:#9BCEEA"/>
	<stop  offset="1" style="stop-color:#94CBE8"/>
</linearGradient>
<path fill="url(#SVGID_5_)" d="M189.786,63.373c0,6.569-9.101,11.899-20.33,11.899c-5.681,0-10.82-1.369-14.511-3.56
	c-3.72,2.57-9.279,4.2-15.489,4.2c-3.351,0-6.511-0.48-9.29-1.32c-2.24,5.16-10.21,8.97-19.71,8.97c-8.141,0-15.16-2.8-18.41-6.84
	c-3.09,1.101-6.71,1.74-10.59,1.74c-0.33,0-0.66-0.01-0.99-0.01c-2.92,4.479-10.33,7.66-19.01,7.66c-11.23,0-20.33-5.32-20.33-11.9
	c0-0.92,0.17-1.81,0.52-2.67c-2.899-1.07-5.31-2.561-6.979-4.32c-1.66,0.25-3.42,0.391-5.221,0.391
	c-11.229,0-20.329-5.32-20.329-11.9s9.1-11.91,20.329-11.91c0.29,0,0.57,0,0.86,0.01c1.41-5.779,9.87-10.229,20.12-10.229
	c3.11,0,6.03,0.399,8.67,1.14c2.68-4.74,10.021-8.189,19.01-8.189c8.73,0,15.61,4.5,15.61,4.5c2.25-0.91,6.74-3.167,12.67-3.598
	c5.16-0.369,9.59,1.474,12.38,2.474h0.01c3.48-2,7.88-3.283,12.681-3.283c9.89,0,18.12,3.898,19.949,9.379
	c0.011-0.01,0.011-0.196,0.021-0.206c3.65-2.04,8.59-3.383,14.03-3.383c11.229,0,20.33,5.284,20.33,11.863
	c0,3.44-2.49,6.517-6.48,8.687C185.556,55.006,189.786,58.883,189.786,63.373z"/>
</svg>
