<?xml version="1.0" encoding="utf-8"?>
<!-- Generator: Adobe Illustrator 16.0.0, SVG Export Plug-In . SVG Version: 6.00 Build 0)  -->
<!DOCTYPE svg PUBLIC "-//W3C//DTD SVG 1.1//EN" "http://www.w3.org/Graphics/SVG/1.1/DTD/svg11.dtd">
<svg version="1.1" xmlns="http://www.w3.org/2000/svg" xmlns:xlink="http://www.w3.org/1999/xlink" x="0px" y="0px" width="174px"
	 height="174px" viewBox="0 0 174 174" enable-background="new 0 0 174 174" xml:space="preserve">
<g id="Capa_1">
</g>
<g id="Capa_2">
	<g>
		<radialGradient id="SVGID_1_" cx="87" cy="87" r="87" gradientUnits="userSpaceOnUse">
			<stop  offset="0.2879" style="stop-color:#FFE48C"/>
			<stop  offset="0.6819" style="stop-color:#FFDB00"/>
			<stop  offset="0.7578" style="stop-color:#F9D317"/>
			<stop  offset="1" style="stop-color:#E5BA5E"/>
		</radialGradient>
		<circle fill="url(#SVGID_1_)" cx="87" cy="87" r="87"/>
		<g>
			<linearGradient id="SVGID_2_" gradientUnits="userSpaceOnUse" x1="87" y1="0" x2="87" y2="174.0005">
				<stop  offset="0.0056" style="stop-color:#EB7A44"/>
				<stop  offset="0.2828" style="stop-color:#EC7F41"/>
				<stop  offset="0.6072" style="stop-color:#F6C61D"/>
				<stop  offset="0.6313" style="stop-color:#F7CC1A"/>
				<stop  offset="1" style="stop-color:#FFFF00"/>
			</linearGradient>
			<path fill="url(#SVGID_2_)" d="M87,0C38.95,0,0,38.95,0,87s38.95,87,87,87s87-38.95,87-87S135.05,0,87,0z M88.33,75.33
				c-33.81,0-63.192,33.638-63.192,33.638c-7.236,8.284-16.257,6.613-20.046-3.714c0,0-1.931-5.264-1.931-18.754
				c0-46.49,37.689-84.17,84.17-84.17S171.5,40.01,171.5,86.5c0,12.67-1.331,16.552-1.331,16.552
				c-3.569,10.405-12.54,12.256-19.936,4.113C150.233,107.165,121.32,75.33,88.33,75.33z"/>
		</g>
	</g>
</g>
</svg>
