<?xml version="1.0" encoding="utf-8"?>
<!-- Generator: Adobe Illustrator 16.0.0, SVG Export Plug-In . SVG Version: 6.00 Build 0)  -->
<!DOCTYPE svg PUBLIC "-//W3C//DTD SVG 1.1//EN" "http://www.w3.org/Graphics/SVG/1.1/DTD/svg11.dtd">
<svg version="1.1" id="Capa_1" xmlns="http://www.w3.org/2000/svg" xmlns:xlink="http://www.w3.org/1999/xlink" x="0px" y="0px"
	 width="513px" height="211px" viewBox="0 0 513 211" enable-background="new 0 0 513 211" xml:space="preserve">
<g>
	<polygon fill="#FC5500" points="10,211 416,163 513,0 0,173 	"/>
</g>
<g enable-background="new    ">
	<path fill="#FFFFFF" d="M235.299,124.694l-9.726,1.5l-0.541-3.51l23.674-3.65l0.541,3.51l-9.773,1.507l4.39,28.466l-4.175,0.644
		L235.299,124.694z"/>
	<path fill="#FFFFFF" d="M266.729,148.99l-0.778-2.843l-0.143,0.021c-1.003,2.001-3.221,3.995-6.494,4.5
		c-4.649,0.717-7.526-2.191-8.039-5.512c-0.855-5.551,3.61-9.349,12.489-10.669l-0.073-0.475c-0.293-1.897-1.341-5.233-6.038-4.509
		c-2.135,0.329-4.263,1.337-5.714,2.63l-1.373-2.605c1.707-1.526,4.334-2.756,7.229-3.203c7.021-1.082,9.468,3.445,10.178,8.048
		l1.324,8.587c0.307,1.992,0.702,3.923,1.229,5.444L266.729,148.99z M264.306,137.367c-4.569,0.607-9.616,2.213-8.929,6.672
		c0.417,2.703,2.418,3.707,4.553,3.378c2.989-0.461,4.595-2.652,4.958-4.699c0.076-0.448,0.099-0.938,0.032-1.364L264.306,137.367z"
		/>
	<path fill="#FFFFFF" d="M274.444,131.627c-0.417-2.705-0.824-5.021-1.295-7.135l3.653-0.564l0.837,4.486l0.189-0.029
		c0.568-3.244,2.783-5.576,5.582-6.008c0.475-0.074,0.814-0.078,1.209-0.042l0.606,3.938c-0.441-0.028-0.876-0.01-1.445,0.078
		c-2.941,0.453-4.686,3.005-4.771,6.224c-0.007,0.584,0.001,1.263,0.11,1.976l1.888,12.239l-4.128,0.637L274.444,131.627z"/>
	<path fill="#FFFFFF" d="M292.589,134.026c0.966,5.631,4.93,7.399,9.104,6.755c2.989-0.461,4.712-1.26,6.175-2.166l1.172,2.88
		c-1.368,0.892-3.766,2.038-7.418,2.601c-7.069,1.09-12.009-2.908-13.077-9.835c-1.067-6.926,2.171-13.011,8.86-14.042
		c7.496-1.156,10.505,5.131,11.156,9.354c0.132,0.854,0.14,1.531,0.158,1.967L292.589,134.026z M304.368,129.149
		c-0.362-2.663-2.138-6.616-6.834-5.892c-4.223,0.651-5.473,4.826-5.358,7.771L304.368,129.149z"/>
	<path fill="#FFFFFF" d="M328.399,139.48l-0.779-2.843l-0.143,0.022c-1.003,2-3.221,3.994-6.494,4.499
		c-4.649,0.717-7.526-2.191-8.038-5.512c-0.856-5.551,3.609-9.348,12.488-10.669l-0.073-0.475c-0.292-1.897-1.341-5.233-6.037-4.509
		c-2.136,0.329-4.263,1.337-5.715,2.63l-1.373-2.605c1.707-1.526,4.334-2.756,7.229-3.203c7.021-1.082,9.469,3.445,10.178,8.048
		l1.324,8.587c0.308,1.992,0.703,3.923,1.229,5.444L328.399,139.48z M325.975,127.857c-4.569,0.607-9.616,2.213-8.929,6.672
		c0.417,2.703,2.418,3.707,4.553,3.378c2.989-0.461,4.594-2.652,4.958-4.699c0.077-0.448,0.099-0.938,0.033-1.364L325.975,127.857z"
		/>
</g>
</svg>
