<?xml version="1.0" encoding="utf-8"?>
<!-- Generator: Adobe Illustrator 16.0.0, SVG Export Plug-In . SVG Version: 6.00 Build 0)  -->
<!DOCTYPE svg PUBLIC "-//W3C//DTD SVG 1.1//EN" "http://www.w3.org/Graphics/SVG/1.1/DTD/svg11.dtd">
<svg version="1.1" id="Capa_1" xmlns="http://www.w3.org/2000/svg" xmlns:xlink="http://www.w3.org/1999/xlink" x="0px" y="0px"
	 width="423.213px" height="441.827px" viewBox="0 0 423.213 441.827" enable-background="new 0 0 423.213 441.827"
	 xml:space="preserve">
<g>
	<g>
		<g>
			<path fill="#2F4B00" d="M70.809,409.343l-54.83-74.961c0,0-5.011-10.172-2.774-22.16c2.236-11.986,20.994-60.721,20.994-60.721
				L3.104,236.502l80.823-8.509c0,0,7.142-2.484,13.178,5.475c6.034,7.957,47.083,60.424,47.083,60.424l-35.46-12.264
				C108.729,281.628,68.772,348.048,70.809,409.343z"/>
			<path fill="#2F4B00" d="M212.306,354.829l4.662,83.961l-91.931,3.037c0,0-37.516-2.684-38.948-48.834
				c0,0,0.025-17.072,1.723-23.072c1.699-6.002,4.705-8.811,12.209-9.738C107.527,359.257,212.306,354.829,212.306,354.829z"/>
		</g>
		<g>
			<path fill="#2F4B00" d="M110.226,16l91.718-14.612c0,0,11.338,0.179,20.985,7.636c9.649,7.457,44.467,46.374,44.467,46.374
				l27.529-20.833l-29.286,75.81c0,0-1.046,7.489-10.88,9.231c-9.835,1.741-75.249,14.347-75.249,14.347l27.086-25.964
				C206.595,107.989,165.704,42.139,110.226,16z"/>
			<path fill="#2F4B00" d="M94.216,166.786l-76.851-34.14l39.219-83.201c0,0,19.498-32.163,61.223-12.392
				c0,0,15.182,7.808,19.749,12.056c4.566,4.249,5.697,8.205,3.098,15.307C138.057,71.518,94.216,166.786,94.216,166.786z"/>
		</g>
		<g>
			<path fill="#2F4B00" d="M423.213,218.176l-0.87,92.868c0,0-2.064,11.15-11.025,19.422c-8.958,8.271-53.132,36.121-53.132,36.121
				l15.956,30.615l-69.874-41.506c0,0-7.208-2.279-7.289-12.266c-0.077-9.986-1.611-76.586-1.611-76.586l21.09,31.031
				C316.457,297.876,388.197,268.524,423.213,218.176z"/>
			<path fill="#2F4B00" d="M277.198,177.273l46.466-70.09l75.504,52.53c0,0,28.467,24.582,2.022,62.43
				c0,0-10.229,13.672-15.179,17.465c-4.949,3.797-9.038,4.252-15.607,0.506C363.834,236.37,277.198,177.273,277.198,177.273z"/>
		</g>
	</g>
	<g>
		<g>
			<path fill="#66A600" d="M67.705,407.956l-54.829-74.963c0,0-5.011-10.172-2.775-22.158c2.236-11.986,20.994-60.723,20.994-60.723
				L0,235.114l80.823-8.51c0,0,7.142-2.482,13.178,5.475c6.034,7.959,47.083,60.426,47.083,60.426l-35.459-12.266
				C105.625,280.239,65.668,346.661,67.705,407.956z"/>
			<path fill="#66A600" d="M209.202,353.44l4.662,83.963l-91.93,3.037c0,0-37.516-2.684-38.949-48.836c0,0,0.026-17.07,1.724-23.072
				c1.699-6.002,4.705-8.811,12.209-9.736C104.423,357.868,209.202,353.44,209.202,353.44z"/>
		</g>
		<g>
			<path fill="#66A600" d="M107.122,14.612L198.84,0c0,0,11.337,0.179,20.983,7.636c9.649,7.457,44.468,46.374,44.468,46.374
				l27.529-20.833l-29.285,75.81c0,0-1.047,7.489-10.881,9.231c-9.834,1.741-75.249,14.347-75.249,14.347l27.086-25.964
				C203.491,106.601,162.601,40.751,107.122,14.612z"/>
			<path fill="#66A600" d="M91.112,165.399l-76.851-34.141l39.219-83.2c0,0,19.498-32.164,61.223-12.392
				c0,0,15.182,7.808,19.749,12.056c4.567,4.249,5.697,8.205,3.098,15.307C134.953,70.131,91.112,165.399,91.112,165.399z"/>
		</g>
		<g>
			<path fill="#66A600" d="M420.108,216.787l-0.869,92.87c0,0-2.064,11.15-11.024,19.422c-8.961,8.271-53.133,36.119-53.133,36.119
				l15.955,30.615l-69.872-41.504c0,0-7.209-2.279-7.29-12.266c-0.078-9.988-1.611-76.588-1.611-76.588l21.089,31.031
				C313.353,296.487,385.094,267.138,420.108,216.787z"/>
			<path fill="#66A600" d="M274.094,175.886l46.464-70.09l75.506,52.53c0,0,28.467,24.582,2.023,62.431
				c0,0-10.23,13.671-15.18,17.465c-4.949,3.795-9.039,4.25-15.608,0.505C360.73,234.982,274.094,175.886,274.094,175.886z"/>
		</g>
	</g>
</g>
</svg>
