<?xml version="1.0" encoding="utf-8"?>
<!-- Generator: Adobe Illustrator 16.0.0, SVG Export Plug-In . SVG Version: 6.00 Build 0)  -->
<!DOCTYPE svg PUBLIC "-//W3C//DTD SVG 1.1//EN" "http://www.w3.org/Graphics/SVG/1.1/DTD/svg11.dtd">
<svg version="1.1" id="Capa_1" xmlns="http://www.w3.org/2000/svg" xmlns:xlink="http://www.w3.org/1999/xlink" x="0px" y="0px"
	 width="613.47px" height="260.987px" viewBox="0 0 613.47 260.987" enable-background="new 0 0 613.47 260.987"
	 xml:space="preserve">
<g>
	<g>
		<polygon fill="#005000" points="35.998,260.987 541.474,211.489 613.47,0 0,163.492 		"/>
	</g>
	<g>
		<path fill="#193000" d="M58.411,227.114l-2.306,13.914l-5.618,0.876l7.734-44.297l6.554-1.022l20.916,39.83l-5.805,0.905
			l-6.558-12.532L58.411,227.114z M71.543,220.72l-6.007-11.469c-1.365-2.6-2.379-4.999-3.382-7.336l-0.125,0.02
			c-0.235,2.595-0.523,5.261-0.936,7.945l-2.222,12.815L71.543,220.72z"/>
		<path fill="#193000" d="M84.583,191.195l5.493-0.856l2.939,18.85l0.125-0.02c0.631-1.697,1.79-3.284,3.329-4.483
			c1.478-1.188,3.314-2.114,5.375-2.436c4.057-0.633,10.938,0.852,12.563,11.275l2.803,17.976l-5.493,0.856l-2.706-17.352
			c-0.759-4.869-3.211-8.706-8.392-7.898c-3.558,0.555-5.978,3.488-6.509,6.641c-0.195,0.799-0.131,1.62,0.034,2.681l2.842,18.226
			l-5.493,0.856L84.583,191.195z"/>
		<path fill="#193000" d="M151.077,210.492c1.742,11.173-5.239,17.249-12.542,18.388c-8.177,1.274-15.415-3.734-16.904-13.285
			c-1.576-10.111,4.115-17.072,12.479-18.376C142.787,195.866,149.637,201.254,151.077,210.492z M127.158,214.541
			c1.032,6.617,5.618,11.017,10.986,10.18c5.243-0.817,8.406-6.361,7.345-13.165c-0.798-5.118-4.369-11.211-10.861-10.198
			C128.137,202.369,126.263,208.799,127.158,214.541z"/>
		<path fill="#193000" d="M157.156,203.982c-0.555-3.558-1.094-6.607-1.719-9.387l4.806-0.749l1.112,5.901l0.249-0.039
			c0.741-4.271,3.65-7.346,7.333-7.921c0.624-0.097,1.071-0.104,1.59-0.057l0.808,5.181c-0.581-0.037-1.152-0.011-1.901,0.105
			c-3.87,0.604-6.159,3.965-6.267,8.2c-0.007,0.77,0.004,1.662,0.15,2.6l2.511,16.103l-5.431,0.847L157.156,203.982z"/>
		<path fill="#193000" d="M177.814,200.761c-0.555-3.558-1.094-6.607-1.719-9.387l4.806-0.75l1.112,5.901l0.25-0.038
			c0.741-4.272,3.65-7.347,7.333-7.921c0.624-0.097,1.071-0.104,1.59-0.057l0.808,5.181c-0.582-0.037-1.153-0.012-1.901,0.105
			c-3.87,0.604-6.159,3.964-6.266,8.2c-0.008,0.77,0.003,1.662,0.149,2.6l2.511,16.103l-5.43,0.847L177.814,200.761z"/>
		<path fill="#193000" d="M225.786,198.843c1.742,11.173-5.239,17.249-12.542,18.388c-8.177,1.274-15.415-3.734-16.904-13.285
			c-1.576-10.111,4.115-17.072,12.479-18.376C217.495,184.217,224.345,189.606,225.786,198.843z M201.866,202.892
			c1.032,6.617,5.617,11.017,10.986,10.18c5.243-0.817,8.406-6.361,7.346-13.165c-0.798-5.118-4.37-11.211-10.861-10.198
			C202.844,190.72,200.971,197.151,201.866,202.892z"/>
		<path fill="#193000" d="M249.195,196.472c1.282,7.407,6.503,9.727,11.996,8.87c3.932-0.613,6.197-1.669,8.121-2.864l1.549,3.786
			c-1.799,1.176-4.951,2.69-9.757,3.439c-9.3,1.45-15.809-3.801-17.23-12.914c-1.421-9.112,2.828-17.127,11.628-18.499
			c9.862-1.537,13.836,6.729,14.702,12.284c0.175,1.124,0.187,2.017,0.212,2.589L249.195,196.472z M264.685,190.029
			c-0.482-3.505-2.827-8.702-9.006-7.738c-5.556,0.866-7.191,6.363-7.035,10.239L264.685,190.029z"/>
		<path fill="#193000" d="M276.168,184.146c-0.486-3.12-0.948-5.67-1.524-8.138l4.869-0.759l1.091,4.944l0.125-0.02
			c1.05-3.104,4.107-6.457,9.101-7.236c4.182-0.651,11.062,0.832,12.678,11.193l2.813,18.038l-5.493,0.856l-2.715-17.414
			c-0.759-4.868-3.202-8.644-8.382-7.836c-3.62,0.564-6.03,3.563-6.489,6.767c-0.143,0.725-0.122,1.682,0.024,2.617l2.832,18.163
			l-5.493,0.856L276.168,184.146z"/>
		<path fill="#193000" d="M315.103,186.196c1.283,7.407,6.503,9.727,11.996,8.87c3.933-0.613,6.197-1.669,8.121-2.865l1.549,3.787
			c-1.799,1.176-4.951,2.69-9.757,3.439c-9.3,1.45-15.809-3.801-17.23-12.914c-1.421-9.112,2.828-17.127,11.628-18.499
			c9.862-1.538,13.836,6.729,14.702,12.284c0.175,1.124,0.187,2.017,0.212,2.589L315.103,186.196z M330.593,179.752
			c-0.482-3.505-2.827-8.702-9.006-7.738c-5.556,0.866-7.191,6.363-7.035,10.239L330.593,179.752z"/>
		<path fill="#193000" d="M342.271,175.119c-0.555-3.558-1.094-6.607-1.719-9.387l4.806-0.749l1.112,5.901l0.25-0.039
			c0.741-4.271,3.65-7.347,7.333-7.921c0.624-0.097,1.071-0.104,1.59-0.057l0.808,5.181c-0.582-0.037-1.153-0.011-1.901,0.105
			c-3.87,0.604-6.159,3.965-6.266,8.2c-0.008,0.77,0.003,1.662,0.149,2.6l2.511,16.103l-5.43,0.847L342.271,175.119z"/>
		<path fill="#193000" d="M386.739,158.531c0.215,2.203,0.47,4.657,1.044,8.34l2.735,17.539c1.08,6.929,0.369,11.388-2.156,14.467
			c-2.506,3.203-6.613,4.739-10.422,5.333c-3.619,0.564-7.75,0.313-10.438-0.931l0.721-4.396c2.192,0.937,5.488,1.573,9.234,0.989
			c5.617-0.876,9.279-4.452,8.092-12.066l-0.525-3.371l-0.125,0.02c-1.248,3.072-4.143,5.826-8.824,6.556
			c-7.491,1.168-13.851-4.362-15.155-12.727c-1.596-10.235,4.178-17.081,11.106-18.161c5.243-0.818,8.542,1.48,10.242,3.772
			l0.125-0.02l-0.461-4.596L386.739,158.531z M382.917,171.338c-0.146-0.938-0.334-1.739-0.701-2.448
			c-1.494-3.027-4.588-5.231-8.582-4.608c-5.243,0.817-8.296,5.834-7.207,12.824c0.924,5.93,4.689,10.395,10.619,9.47
			c3.371-0.525,6.098-3.125,6.738-6.806c0.166-0.985,0.126-2.065-0.02-3.003L382.917,171.338z"/>
		<path fill="#193000" d="M401.169,172.777c1.283,7.407,6.503,9.726,11.996,8.869c3.932-0.613,6.197-1.668,8.12-2.864l1.55,3.786
			c-1.799,1.176-4.951,2.691-9.758,3.44c-9.299,1.45-15.809-3.801-17.229-12.914c-1.421-9.112,2.828-17.127,11.628-18.499
			c9.863-1.538,13.836,6.728,14.703,12.283c0.175,1.124,0.187,2.017,0.212,2.589L401.169,172.777z M416.659,166.333
			c-0.482-3.505-2.827-8.702-9.006-7.738c-5.557,0.866-7.192,6.364-7.035,10.24L416.659,166.333z M414.038,140.913l-6.223,10.112
			l-3.933,0.613l4.101-9.781L414.038,140.913z"/>
		<path fill="#193000" d="M432.132,142.567l1.352,8.675l7.865-1.227l0.652,4.182l-7.865,1.227l2.541,16.292
			c0.584,3.744,1.975,5.701,5.033,5.224c1.436-0.224,2.469-0.575,3.125-0.87l0.893,4.081c-0.994,0.602-2.629,1.178-4.752,1.508
			c-2.559,0.399-4.746-0.091-6.289-1.386c-1.814-1.379-2.794-3.976-3.349-7.533l-2.569-16.479l-4.682,0.729l-0.652-4.182
			l4.682-0.729l-1.129-7.239L432.132,142.567z"/>
		<path fill="#193000" d="M452.319,139.61c0.354,1.862-0.785,3.575-2.97,3.915c-1.935,0.302-3.542-0.981-3.834-2.854
			c-0.302-1.936,0.9-3.657,2.897-3.969C450.473,136.382,452.017,137.674,452.319,139.61z M452.235,179.262l-4.71-30.21l5.493-0.856
			l4.71,30.21L452.235,179.262z"/>
		<path fill="#193000" d="M488.2,172.504c-1.32,0.973-4.348,2.468-8.404,3.101c-9.113,1.421-16.006-3.834-17.447-13.072
			c-1.449-9.3,3.866-17.033,13.729-18.571c3.245-0.506,6.243-0.143,7.857,0.374l-0.586,4.438c-1.428-0.544-3.595-0.909-6.591-0.442
			c-6.929,1.08-9.874,6.782-8.892,13.086c1.09,6.991,6.255,10.599,12.247,9.664c3.12-0.486,5.054-1.619,6.507-2.55L488.2,172.504z"
			/>
		<path fill="#193000" d="M519.372,153.067c1.742,11.173-5.238,17.248-12.541,18.388c-8.178,1.274-15.416-3.734-16.905-13.285
			c-1.577-10.111,4.116-17.072,12.479-18.376C511.081,138.441,517.932,143.83,519.372,153.067z M495.452,157.115
			c1.031,6.617,5.618,11.018,10.986,10.18c5.242-0.816,8.406-6.36,7.346-13.164c-0.799-5.118-4.369-11.211-10.861-10.198
			C496.431,144.944,494.558,151.375,495.452,157.115z"/>
	</g>
	<g>
		<path fill="#FFFFFF" d="M62.389,221.528l-2.306,13.914l-5.618,0.876l7.734-44.297l6.554-1.022l20.916,39.83l-5.805,0.905
			l-6.557-12.531L62.389,221.528z M75.521,215.134l-6.007-11.468c-1.364-2.601-2.378-5-3.382-7.336l-0.124,0.019
			c-0.235,2.595-0.523,5.261-0.935,7.945l-2.222,12.815L75.521,215.134z"/>
		<path fill="#FFFFFF" d="M88.562,185.609l5.493-0.856l2.939,18.85l0.125-0.02c0.63-1.697,1.79-3.284,3.329-4.483
			c1.477-1.188,3.314-2.114,5.375-2.436c4.057-0.633,10.938,0.852,12.563,11.275l2.803,17.976l-5.493,0.856l-2.706-17.352
			c-0.759-4.869-3.212-8.706-8.392-7.898c-3.558,0.555-5.978,3.488-6.509,6.641c-0.195,0.799-0.132,1.62,0.034,2.681l2.842,18.226
			l-5.493,0.856L88.562,185.609z"/>
		<path fill="#FFFFFF" d="M155.055,204.906c1.742,11.173-5.238,17.249-12.541,18.388c-8.177,1.274-15.416-3.734-16.905-13.285
			c-1.577-10.111,4.115-17.071,12.479-18.376C146.764,190.28,153.615,195.668,155.055,204.906z M131.135,208.955
			c1.032,6.617,5.618,11.017,10.986,10.18c5.243-0.817,8.406-6.361,7.346-13.165c-0.798-5.118-4.369-11.21-10.861-10.198
			C132.115,196.783,130.24,203.213,131.135,208.955z"/>
		<path fill="#FFFFFF" d="M161.134,198.396c-0.555-3.558-1.094-6.607-1.719-9.387l4.806-0.749l1.112,5.901l0.25-0.039
			c0.741-4.271,3.649-7.346,7.333-7.92c0.624-0.098,1.071-0.104,1.59-0.057l0.808,5.181c-0.581-0.038-1.153-0.012-1.902,0.104
			c-3.869,0.604-6.159,3.965-6.266,8.201c-0.008,0.769,0.003,1.661,0.149,2.599l2.511,16.103l-5.43,0.847L161.134,198.396z"/>
		<path fill="#FFFFFF" d="M181.792,195.175c-0.555-3.558-1.094-6.607-1.719-9.387l4.806-0.75l1.112,5.902l0.25-0.039
			c0.741-4.272,3.65-7.347,7.333-7.921c0.624-0.097,1.071-0.104,1.589-0.057l0.808,5.181c-0.581-0.037-1.152-0.011-1.901,0.105
			c-3.87,0.604-6.159,3.965-6.266,8.2c-0.008,0.77,0.003,1.662,0.149,2.6l2.511,16.103l-5.43,0.847L181.792,195.175z"/>
		<path fill="#FFFFFF" d="M229.763,193.257c1.742,11.173-5.238,17.249-12.541,18.388c-8.177,1.274-15.416-3.734-16.905-13.285
			c-1.577-10.111,4.115-17.072,12.479-18.376C221.473,178.631,228.323,184.02,229.763,193.257z M205.844,197.306
			c1.031,6.617,5.617,11.017,10.985,10.18c5.243-0.817,8.406-6.361,7.346-13.165c-0.798-5.118-4.37-11.21-10.861-10.198
			S204.949,191.565,205.844,197.306z"/>
		<path fill="#FFFFFF" d="M253.173,190.886c1.282,7.408,6.503,9.727,11.996,8.87c3.933-0.613,6.197-1.669,8.121-2.864l1.55,3.786
			c-1.799,1.176-4.951,2.69-9.757,3.44c-9.301,1.449-15.81-3.801-17.23-12.914s2.828-17.127,11.628-18.5
			c9.862-1.537,13.836,6.729,14.702,12.284c0.175,1.124,0.187,2.017,0.212,2.589L253.173,190.886z M268.663,184.443
			c-0.482-3.505-2.827-8.702-9.006-7.738c-5.556,0.866-7.192,6.364-7.035,10.239L268.663,184.443z"/>
		<path fill="#FFFFFF" d="M280.146,178.56c-0.486-3.12-0.948-5.67-1.524-8.138l4.868-0.759l1.091,4.944l0.125-0.02
			c1.05-3.104,4.107-6.457,9.101-7.235c4.182-0.652,11.063,0.831,12.678,11.192l2.813,18.038l-5.493,0.856l-2.715-17.414
			c-0.759-4.868-3.202-8.644-8.382-7.835c-3.62,0.564-6.03,3.562-6.489,6.766c-0.143,0.725-0.122,1.682,0.024,2.617l2.832,18.163
			l-5.493,0.856L280.146,178.56z"/>
		<path fill="#FFFFFF" d="M319.081,180.61c1.283,7.407,6.503,9.727,11.996,8.87c3.933-0.613,6.197-1.668,8.121-2.864l1.55,3.786
			c-1.799,1.176-4.951,2.69-9.758,3.44c-9.3,1.45-15.809-3.801-17.23-12.914c-1.421-9.112,2.829-17.128,11.629-18.5
			c9.862-1.537,13.836,6.729,14.702,12.284c0.175,1.124,0.187,2.017,0.212,2.589L319.081,180.61z M334.571,174.167
			c-0.482-3.505-2.827-8.702-9.006-7.738c-5.556,0.866-7.192,6.364-7.035,10.239L334.571,174.167z"/>
		<path fill="#FFFFFF" d="M346.249,169.533c-0.555-3.558-1.094-6.607-1.719-9.387l4.806-0.749l1.112,5.901l0.25-0.039
			c0.741-4.271,3.65-7.346,7.333-7.92c0.624-0.098,1.071-0.104,1.589-0.057l0.808,5.18c-0.581-0.037-1.152-0.011-1.901,0.105
			c-3.87,0.604-6.159,3.965-6.266,8.2c-0.008,0.77,0.003,1.662,0.149,2.6l2.511,16.103l-5.43,0.847L346.249,169.533z"/>
		<path fill="#FFFFFF" d="M390.717,152.945c0.216,2.204,0.47,4.658,1.044,8.341l2.735,17.539c1.08,6.929,0.369,11.387-2.156,14.466
			c-2.505,3.204-6.613,4.739-10.421,5.333c-3.619,0.564-7.75,0.313-10.438-0.93l0.721-4.396c2.191,0.938,5.488,1.573,9.232,0.989
			c5.617-0.876,9.28-4.451,8.093-12.065l-0.525-3.371l-0.125,0.02c-1.247,3.072-4.143,5.825-8.823,6.555
			c-7.491,1.168-13.852-4.362-15.156-12.727c-1.596-10.235,4.178-17.081,11.106-18.161c5.243-0.817,8.542,1.48,10.243,3.772
			l0.124-0.02l-0.46-4.596L390.717,152.945z M386.896,165.753c-0.146-0.938-0.335-1.739-0.701-2.449
			c-1.494-3.027-4.588-5.231-8.582-4.608c-5.244,0.817-8.297,5.834-7.207,12.824c0.924,5.93,4.689,10.395,10.619,9.47
			c3.37-0.525,6.098-3.125,6.738-6.806c0.166-0.984,0.125-2.064-0.021-3.002L386.896,165.753z"/>
		<path fill="#FFFFFF" d="M405.147,167.191c1.282,7.407,6.502,9.726,11.995,8.869c3.933-0.613,6.197-1.668,8.12-2.864l1.551,3.786
			c-1.799,1.176-4.951,2.691-9.758,3.44c-9.301,1.45-15.81-3.801-17.23-12.914c-1.421-9.112,2.828-17.127,11.629-18.499
			c9.862-1.538,13.836,6.729,14.702,12.283c0.175,1.125,0.187,2.017,0.212,2.589L405.147,167.191z M420.638,160.748
			c-0.482-3.506-2.828-8.702-9.007-7.739c-5.556,0.866-7.192,6.364-7.035,10.24L420.638,160.748z M418.017,135.327l-6.224,10.112
			l-3.933,0.613l4.102-9.781L418.017,135.327z"/>
		<path fill="#FFFFFF" d="M436.109,136.98l1.353,8.676l7.864-1.227l0.651,4.182l-7.863,1.227l2.54,16.292
			c0.584,3.744,1.976,5.701,5.034,5.224c1.436-0.224,2.467-0.575,3.125-0.87l0.893,4.081c-0.994,0.602-2.631,1.178-4.752,1.509
			c-2.559,0.398-4.746-0.092-6.29-1.387c-1.813-1.378-2.794-3.976-3.349-7.533l-2.568-16.479l-4.682,0.73l-0.652-4.182l4.682-0.73
			l-1.129-7.239L436.109,136.98z"/>
		<path fill="#FFFFFF" d="M456.298,134.025c0.354,1.862-0.786,3.574-2.971,3.915c-1.935,0.302-3.541-0.982-3.834-2.854
			c-0.301-1.936,0.9-3.656,2.898-3.968C454.45,130.796,455.995,132.089,456.298,134.025z M456.214,173.676l-4.711-30.21l5.493-0.856
			l4.71,30.21L456.214,173.676z"/>
		<path fill="#FFFFFF" d="M492.177,166.918c-1.318,0.974-4.346,2.469-8.402,3.101c-9.113,1.422-16.007-3.834-17.447-13.072
			c-1.449-9.3,3.865-17.033,13.728-18.571c3.245-0.506,6.243-0.142,7.858,0.374l-0.586,4.438c-1.429-0.545-3.596-0.91-6.592-0.443
			c-6.928,1.08-9.875,6.782-8.893,13.086c1.091,6.991,6.256,10.599,12.248,9.664c3.121-0.486,5.055-1.619,6.508-2.55
			L492.177,166.918z"/>
		<path fill="#FFFFFF" d="M523.35,147.481c1.742,11.173-5.239,17.249-12.542,18.388c-8.176,1.274-15.414-3.734-16.904-13.285
			c-1.576-10.111,4.115-17.072,12.479-18.376C515.06,132.855,521.909,138.244,523.35,147.481z M499.431,151.53
			c1.031,6.617,5.617,11.017,10.985,10.18c5.243-0.817,8.406-6.361,7.346-13.165c-0.798-5.118-4.37-11.211-10.86-10.198
			C500.409,139.358,498.535,145.789,499.431,151.53z"/>
	</g>
</g>
</svg>
