<?xml version="1.0" encoding="utf-8"?>
<!-- Generator: Adobe Illustrator 16.0.0, SVG Export Plug-In . SVG Version: 6.00 Build 0)  -->
<!DOCTYPE svg PUBLIC "-//W3C//DTD SVG 1.1//EN" "http://www.w3.org/Graphics/SVG/1.1/DTD/svg11.dtd">
<svg version="1.1" id="Capa_1" xmlns="http://www.w3.org/2000/svg" xmlns:xlink="http://www.w3.org/1999/xlink" x="0px" y="0px"
	 width="511.621px" height="212.118px" viewBox="0 0 511.621 212.118" enable-background="new 0 0 511.621 212.118"
	 xml:space="preserve">
<g>
	<polygon fill="#872323" points="12,212.118 418.001,164.118 511.621,0 0,174.118 	"/>
</g>
<g>
	<path fill="#FFFFFF" d="M184.862,153.551l-12.43,1.917l1.777,11.529l13.854-2.136l0.534,3.463l-17.981,2.772l-4.931-31.978
		l17.27-2.662l0.534,3.463l-13.142,2.026l1.558,10.105l12.431-1.917L184.862,153.551z"/>
	<path fill="#FFFFFF" d="M191.554,144.36l6.497,12.21c1.081,1.971,1.99,3.772,2.757,5.597l0.143-0.021
		c0.229-1.979,0.601-3.978,1.038-6.183l2.47-13.592l4.365-0.673l-5.474,24.352l-3.985,0.615l-12.271-21.617L191.554,144.36z"/>
	<path fill="#FFFFFF" d="M228.825,162.122l-0.778-2.843l-0.143,0.022c-1.003,2-3.221,3.993-6.495,4.498
		c-4.648,0.717-7.526-2.19-8.038-5.512c-0.856-5.551,3.61-9.348,12.489-10.668l-0.073-0.475c-0.292-1.898-1.341-5.233-6.038-4.51
		c-2.135,0.33-4.262,1.338-5.715,2.63l-1.373-2.605c1.708-1.526,4.335-2.757,7.229-3.204c7.021-1.082,9.468,3.447,10.178,8.049
		l1.324,8.588c0.308,1.992,0.702,3.923,1.229,5.444L228.825,162.122z M226.401,150.499c-4.569,0.607-9.616,2.211-8.929,6.671
		c0.417,2.704,2.418,3.707,4.553,3.378c2.989-0.461,4.595-2.65,4.958-4.699c0.077-0.449,0.099-0.938,0.032-1.365L226.401,150.499z"
		/>
	<path fill="#FFFFFF" d="M233.782,126.872l4.175-0.644l5.193,33.685l-4.175,0.645L233.782,126.872z"/>
	<path fill="#FFFFFF" d="M268.419,149.605c0.366,2.372,0.736,4.452,1.156,6.233l-3.701,0.57l-0.814-3.711l-0.096,0.015
		c-0.805,2.019-2.852,4.811-6.932,5.44c-3.606,0.556-8.23-0.771-9.474-8.836l-2.07-13.427l4.175-0.644l1.96,12.714
		c0.673,4.365,2.455,7.103,6.251,6.517c2.799-0.432,4.444-2.677,4.918-4.644c0.143-0.653,0.167-1.435,0.051-2.193l-2.173-14.091
		l4.175-0.645L268.419,149.605z"/>
	<path fill="#FFFFFF" d="M289.025,152.839l-0.779-2.843l-0.143,0.021c-1.003,2.001-3.221,3.994-6.494,4.499
		c-4.649,0.717-7.526-2.19-8.039-5.512c-0.855-5.552,3.61-9.349,12.49-10.669l-0.073-0.475c-0.293-1.897-1.342-5.232-6.038-4.508
		c-2.136,0.328-4.263,1.336-5.715,2.629l-1.373-2.605c1.707-1.525,4.335-2.758,7.229-3.203c7.021-1.083,9.468,3.445,10.177,8.048
		l1.324,8.587c0.308,1.993,0.703,3.924,1.229,5.445L289.025,152.839z M286.6,141.216c-4.568,0.607-9.616,2.211-8.928,6.671
		c0.416,2.704,2.417,3.707,4.552,3.378c2.989-0.461,4.595-2.651,4.959-4.698c0.076-0.449,0.098-0.938,0.032-1.365L286.6,141.216z"/>
	<path fill="#FFFFFF" d="M315.412,147.897c-1.004,0.737-3.306,1.869-6.39,2.345c-6.927,1.067-12.158-2.935-13.241-9.956
		c-1.09-7.068,2.959-12.938,10.455-14.094c2.467-0.381,4.745-0.101,5.972,0.293l-0.452,3.373c-1.084-0.416-2.729-0.696-5.007-0.346
		c-5.267,0.813-7.514,5.142-6.774,9.934c0.819,5.313,4.74,8.061,9.294,7.357c2.373-0.365,3.843-1.224,4.949-1.928L315.412,147.897z"
		/>
	<path fill="#FFFFFF" d="M320.542,117.866c0.268,1.416-0.602,2.715-2.262,2.971c-1.471,0.228-2.689-0.75-2.909-2.174
		c-0.227-1.471,0.688-2.777,2.207-3.012C319.143,115.41,320.315,116.395,320.542,117.866z M320.428,147.998l-3.541-22.963
		l4.175-0.644l3.541,22.963L320.428,147.998z"/>
	<path fill="#FFFFFF" d="M350.509,131.411c1.31,8.492-4.003,13.1-9.554,13.955c-6.215,0.959-11.709-2.856-12.828-10.115
		c-1.186-7.686,3.149-12.969,9.506-13.949C344.227,120.285,349.427,124.389,350.509,131.411z M332.327,134.458
		c0.775,5.028,4.255,8.378,8.335,7.748c3.985-0.614,6.397-4.823,5.6-9.994c-0.6-3.891-3.307-8.524-8.24-7.764
		S331.654,130.092,332.327,134.458z M342.257,110.971l-4.741,7.677l-2.988,0.461l3.128-7.428L342.257,110.971z"/>
	<path fill="#FFFFFF" d="M354.989,125.522c-0.365-2.371-0.713-4.31-1.146-6.186l3.7-0.57l0.822,3.759l0.095-0.015
		c0.802-2.357,3.13-4.902,6.925-5.488c3.18-0.49,8.406,0.647,9.62,8.523l2.114,13.711l-4.175,0.644l-2.041-13.237
		c-0.57-3.7-2.423-6.572-6.359-5.965c-2.753,0.424-4.588,2.699-4.94,5.133c-0.109,0.552-0.095,1.277,0.015,1.99l2.129,13.806
		l-4.175,0.644L354.989,125.522z"/>
</g>
</svg>
