<?xml version="1.0" encoding="utf-8"?>
<!-- Generator: Adobe Illustrator 16.0.0, SVG Export Plug-In . SVG Version: 6.00 Build 0)  -->
<!DOCTYPE svg PUBLIC "-//W3C//DTD SVG 1.1//EN" "http://www.w3.org/Graphics/SVG/1.1/DTD/svg11.dtd">
<svg version="1.1" id="Capa_1" xmlns="http://www.w3.org/2000/svg" xmlns:xlink="http://www.w3.org/1999/xlink" x="0px" y="0px"
	 width="44.813px" height="15.25px" viewBox="0 0 44.813 15.25" enable-background="new 0 0 44.813 15.25" xml:space="preserve">
<g>
	<path d="M6.66,7.272H3.518v2.915H7.02v0.875H2.474V2.979H6.84v0.875H3.518v2.555H6.66V7.272z"/>
	<path d="M8.342,6.829c0-0.6-0.012-1.091-0.048-1.571h0.936l0.06,0.959h0.024c0.288-0.552,0.959-1.091,1.919-1.091
		c0.803,0,2.051,0.479,2.051,2.47v3.466h-1.056V7.716c0-0.936-0.348-1.715-1.343-1.715c-0.695,0-1.235,0.492-1.415,1.079
		C9.421,7.212,9.397,7.393,9.397,7.572v3.49H8.342V6.829z"/>
	<path d="M15.002,2.547h1.056v8.515h-1.056V2.547z"/>
	<path d="M21.048,11.063l-0.084-0.731h-0.036c-0.324,0.456-0.947,0.863-1.775,0.863c-1.175,0-1.775-0.827-1.775-1.667
		c0-1.403,1.247-2.171,3.49-2.159v-0.12c0-0.479-0.132-1.343-1.319-1.343c-0.54,0-1.104,0.168-1.511,0.432l-0.24-0.695
		c0.48-0.312,1.175-0.516,1.907-0.516c1.775,0,2.207,1.211,2.207,2.375v2.171c0,0.503,0.024,0.994,0.096,1.391H21.048z M20.892,8.1
		c-1.151-0.023-2.458,0.181-2.458,1.308c0,0.684,0.456,1.008,0.996,1.008c0.755,0,1.235-0.479,1.403-0.972
		c0.036-0.107,0.06-0.229,0.06-0.336V8.1z"/>
	<path d="M27.756,10.847c-0.276,0.144-0.888,0.336-1.668,0.336c-1.75,0-2.89-1.188-2.89-2.962c0-1.788,1.224-3.083,3.119-3.083
		c0.623,0,1.176,0.156,1.463,0.3l-0.24,0.815c-0.252-0.144-0.646-0.275-1.223-0.275c-1.332,0-2.051,0.983-2.051,2.194
		c0,1.344,0.864,2.171,2.015,2.171c0.6,0,0.995-0.155,1.296-0.288L27.756,10.847z"/>
	<path d="M29.51,8.352c0.023,1.428,0.935,2.016,1.99,2.016c0.756,0,1.211-0.133,1.607-0.301l0.18,0.756
		c-0.372,0.168-1.008,0.36-1.932,0.36c-1.787,0-2.854-1.176-2.854-2.927s1.031-3.13,2.723-3.13c1.895,0,2.398,1.667,2.398,2.734
		c0,0.216-0.024,0.384-0.036,0.491H29.51z M32.604,7.596c0.012-0.671-0.275-1.715-1.463-1.715c-1.068,0-1.535,0.983-1.619,1.715
		H32.604z"/>
	<path d="M37.394,9.852c0.3,0.191,0.995,0.491,1.728,0.491c1.355,0,1.774-0.863,1.763-1.511c-0.013-1.092-0.995-1.56-2.015-1.56
		h-0.588V6.481h0.588c0.768,0,1.738-0.396,1.738-1.319c0-0.624-0.396-1.175-1.367-1.175c-0.623,0-1.223,0.276-1.559,0.516
		l-0.275-0.768c0.407-0.3,1.199-0.6,2.038-0.6c1.535,0,2.231,0.912,2.231,1.859c0,0.804-0.48,1.487-1.439,1.835v0.024
		c0.959,0.192,1.738,0.911,1.738,2.002c0,1.248-0.971,2.339-2.842,2.339c-0.875,0-1.643-0.276-2.027-0.528L37.394,9.852z"/>
</g>
</svg>
