<?xml version="1.0" encoding="utf-8"?>
<!-- Generator: Adobe Illustrator 16.0.0, SVG Export Plug-In . SVG Version: 6.00 Build 0)  -->
<!DOCTYPE svg PUBLIC "-//W3C//DTD SVG 1.1//EN" "http://www.w3.org/Graphics/SVG/1.1/DTD/svg11.dtd">
<svg version="1.1" id="Capa_1" xmlns="http://www.w3.org/2000/svg" xmlns:xlink="http://www.w3.org/1999/xlink" x="0px" y="0px"
	 width="511.621px" height="212.118px" viewBox="0 0 511.621 212.118" enable-background="new 0 0 511.621 212.118"
	 xml:space="preserve">
<g>
	<polygon fill="#1063C6" points="12,212.118 418.001,164.118 511.621,0 0,174.118 	"/>
</g>
<g>
	<path fill="#FFFFFF" d="M204.752,132.547c2.021-0.749,4.974-1.447,7.82-1.886c4.412-0.681,7.383-0.313,9.653,1.183
		c1.833,1.174,3.07,3.218,3.451,5.685c0.65,4.223-1.574,7.432-4.767,9.09l0.021,0.142c2.599,0.475,4.421,2.524,5.691,5.729
		c1.732,4.299,2.967,7.266,3.821,8.396l-4.271,0.658c-0.661-0.82-1.796-3.463-3.313-7.309c-1.629-4.266-3.594-5.663-7.363-5.228
		l-3.891,0.6l2.137,13.854l-4.128,0.637L204.752,132.547z M211.125,146.476l4.223-0.651c4.412-0.68,6.838-3.531,6.274-7.185
		c-0.637-4.128-3.903-5.47-8.275-4.844c-1.992,0.308-3.387,0.716-4.021,1.008L211.125,146.476z"/>
	<path fill="#FFFFFF" d="M235.857,149.073c0.965,5.633,4.929,7.401,9.104,6.758c2.989-0.461,4.711-1.262,6.174-2.167l1.174,2.88
		c-1.369,0.891-3.767,2.037-7.42,2.6c-7.068,1.09-12.008-2.908-13.076-9.834c-1.068-6.928,2.171-13.013,8.86-14.044
		c7.496-1.155,10.505,5.132,11.156,9.354c0.132,0.854,0.14,1.533,0.157,1.967L235.857,149.073z M247.636,144.198
		c-0.362-2.664-2.137-6.616-6.834-5.893c-4.223,0.651-5.474,4.827-5.359,7.772L247.636,144.198z"/>
	<path fill="#FFFFFF" d="M275.189,153.112c-1.004,0.738-3.307,1.869-6.391,2.346c-6.926,1.067-12.157-2.935-13.24-9.956
		c-1.09-7.069,2.959-12.938,10.455-14.095c2.467-0.381,4.745-0.1,5.971,0.293l-0.451,3.373c-1.085-0.416-2.73-0.695-5.008-0.345
		c-5.266,0.812-7.513,5.142-6.773,9.933c0.819,5.314,4.739,8.061,9.294,7.358c2.372-0.366,3.843-1.224,4.949-1.929L275.189,153.112z
		"/>
	<path fill="#FFFFFF" d="M298.454,143.987c0.365,2.373,0.735,4.453,1.156,6.234l-3.701,0.57l-0.814-3.711l-0.096,0.014
		c-0.806,2.02-2.853,4.812-6.933,5.44c-3.605,0.556-8.229-0.771-9.474-8.836l-2.07-13.427l4.175-0.644l1.961,12.715
		c0.673,4.364,2.455,7.102,6.25,6.517c2.8-0.432,4.444-2.678,4.919-4.645c0.142-0.653,0.167-1.434,0.05-2.193l-2.173-14.09
		l4.175-0.645L298.454,143.987z"/>
	<path fill="#FFFFFF" d="M303.908,133.383c-0.417-2.703-0.823-5.021-1.295-7.134l3.653-0.563l0.837,4.484l0.19-0.029
		c0.568-3.244,2.782-5.577,5.582-6.009c0.474-0.073,0.813-0.077,1.208-0.04l0.606,3.938c-0.441-0.029-0.875-0.011-1.445,0.077
		c-2.941,0.453-4.685,3.005-4.771,6.225c-0.007,0.583,0.001,1.263,0.11,1.974l1.888,12.241l-4.128,0.636L303.908,133.383z"/>
	<path fill="#FFFFFF" d="M320.629,142.608c1.357,0.617,3.672,1.135,5.76,0.813c3.036-0.469,4.226-2.205,3.933-4.104
		c-0.307-1.992-1.661-2.901-4.921-3.564c-4.354-0.834-6.65-2.811-7.075-5.563c-0.57-3.701,1.95-7.199,6.885-7.959
		c2.324-0.359,4.468-0.009,5.865,0.553l-0.576,3.197c-0.988-0.431-2.767-0.934-4.901-0.604c-2.467,0.38-3.623,2.015-3.359,3.723
		c0.292,1.898,1.8,2.54,4.964,3.218c4.22,0.903,6.566,2.581,7.094,5.997c0.621,4.033-2.07,7.362-7.526,8.203
		c-2.515,0.389-4.935,0.13-6.694-0.57L320.629,142.608z"/>
	<path fill="#FFFFFF" d="M359.624,129.018c1.309,8.493-4.004,13.101-9.555,13.956c-6.215,0.958-11.709-2.856-12.828-10.116
		c-1.186-7.686,3.148-12.969,9.506-13.948C353.342,117.893,358.541,121.997,359.624,129.018z M341.442,132.065
		c0.775,5.029,4.254,8.379,8.334,7.749c3.985-0.614,6.396-4.823,5.6-9.995c-0.601-3.891-3.307-8.523-8.241-7.763
		C342.201,122.817,340.768,127.7,341.442,132.065z"/>
	<path fill="#FFFFFF" d="M365.459,135.696c1.357,0.617,3.672,1.135,5.76,0.813c3.036-0.469,4.225-2.206,3.932-4.104
		c-0.307-1.993-1.661-2.901-4.921-3.564c-4.354-0.834-6.65-2.812-7.074-5.563c-0.57-3.7,1.95-7.198,6.884-7.959
		c2.325-0.358,4.468-0.009,5.866,0.554l-0.576,3.197c-0.988-0.431-2.767-0.934-4.901-0.604c-2.468,0.38-3.624,2.016-3.36,3.724
		c0.292,1.898,1.8,2.539,4.965,3.218c4.219,0.903,6.566,2.581,7.094,5.997c0.621,4.033-2.071,7.362-7.527,8.203
		c-2.515,0.388-4.935,0.13-6.693-0.57L365.459,135.696z"/>
</g>
</svg>
