<?xml version="1.0" encoding="utf-8"?>
<!-- Generator: Adobe Illustrator 17.0.0, SVG Export Plug-In . SVG Version: 6.00 Build 0)  -->
<!DOCTYPE svg PUBLIC "-//W3C//DTD SVG 1.1//EN" "http://www.w3.org/Graphics/SVG/1.1/DTD/svg11.dtd">
<svg version="1.1" id="Capa_2" xmlns="http://www.w3.org/2000/svg" xmlns:xlink="http://www.w3.org/1999/xlink" x="0px" y="0px"
	 width="385px" height="385px" viewBox="0 0 385 385" enable-background="new 0 0 385 385" xml:space="preserve">
<g>
	<radialGradient id="SVGID_1_" cx="96.985" cy="120.81" r="105.6824" gradientUnits="userSpaceOnUse">
		<stop  offset="0" style="stop-color:#77C697"/>
		<stop  offset="0.2573" style="stop-color:#38BC80"/>
		<stop  offset="0.5" style="stop-color:#00B36C"/>
		<stop  offset="0.5432" style="stop-color:#00B269"/>
		<stop  offset="1" style="stop-color:#00A652"/>
	</radialGradient>
	<path fill="url(#SVGID_1_)" d="M191.705,17.46l-45.38,54.08l-7.25-19.92c-61.55,19.55-106.15,77.16-106.15,145.19
		c0,11.32,1.23,22.35,3.58,32.97l-29.94,6.64c-2.82-12.76-4.3-26.01-4.3-39.61c0-81.28,52.99-150.18,126.31-174.04l-6.4-17.57
		L191.705,17.46z"/>
	<radialGradient id="SVGID_2_" cx="167.79" cy="330.35" r="105.7125" gradientUnits="userSpaceOnUse">
		<stop  offset="0" style="stop-color:#77C697"/>
		<stop  offset="0.2573" style="stop-color:#38BC80"/>
		<stop  offset="0.5" style="stop-color:#00B36C"/>
		<stop  offset="0.5432" style="stop-color:#00B269"/>
		<stop  offset="1" style="stop-color:#00A652"/>
	</radialGradient>
	<path fill="url(#SVGID_2_)" d="M308.875,331.72c-32.56,29.86-75.96,48.08-123.62,48.08c-47.04,0-89.93-17.75-122.35-46.92
		l-12.05,14.36l-24.15-66.34l69.53,12.26l-13.61,16.22c27.07,24.7,63.1,39.76,102.63,39.76c39.67,0,75.81-15.17,102.91-40.02
		L308.875,331.72z"/>
	<radialGradient id="SVGID_3_" cx="306.905" cy="157.16" r="109.4324" gradientUnits="userSpaceOnUse">
		<stop  offset="0" style="stop-color:#77C697"/>
		<stop  offset="0.2573" style="stop-color:#38BC80"/>
		<stop  offset="0.5" style="stop-color:#00B36C"/>
		<stop  offset="0.5432" style="stop-color:#00B269"/>
		<stop  offset="1" style="stop-color:#00A652"/>
	</radialGradient>
	<path fill="url(#SVGID_3_)" d="M382.735,237.99l-45.38,54.08l-24.15-66.34l20.88,3.68c2.29-10.5,3.5-21.41,3.5-32.6
		c0-68.16-44.77-125.87-106.51-145.31l9.22-29.25c74.16,23.35,127.95,92.68,127.95,174.56c0,13.01-1.36,25.69-3.93,37.93
		L382.735,237.99z"/>
</g>
</svg>
