<?xml version="1.0" encoding="utf-8"?>
<!-- Generator: Adobe Illustrator 16.0.0, SVG Export Plug-In . SVG Version: 6.00 Build 0)  -->
<!DOCTYPE svg PUBLIC "-//W3C//DTD SVG 1.1//EN" "http://www.w3.org/Graphics/SVG/1.1/DTD/svg11.dtd">
<svg version="1.1" id="Capa_1" xmlns="http://www.w3.org/2000/svg" xmlns:xlink="http://www.w3.org/1999/xlink" x="0px" y="0px"
	 width="511.621px" height="212.118px" viewBox="0 0 511.621 212.118" enable-background="new 0 0 511.621 212.118"
	 xml:space="preserve">
<g>
	<polygon fill="#4D2CA8" points="12,212.118 418.001,164.118 511.621,0 0,174.118 	"/>
</g>
<g>
	<path fill="#FFFFFF" d="M165.802,171.608c-1.401,0.993-4.321,2.221-8.212,2.82c-9.014,1.39-16.676-3.258-18.293-13.742
		c-1.543-10.011,4.194-17.842,14.11-19.37c3.986-0.614,6.632-0.147,7.811,0.253l-0.477,3.521c-1.683-0.518-4-0.742-6.657-0.333
		c-7.496,1.156-11.739,6.716-10.444,15.113c1.207,7.828,6.49,12.162,14.271,10.962c2.515-0.388,4.996-1.304,6.532-2.367
		L165.802,171.608z"/>
	<path fill="#FFFFFF" d="M189.448,157.082c1.309,8.493-4.004,13.1-9.555,13.956c-6.215,0.958-11.709-2.857-12.828-10.116
		c-1.186-7.687,3.148-12.969,9.506-13.949C183.166,145.956,188.365,150.06,189.448,157.082z M171.266,160.128
		c0.775,5.028,4.254,8.378,8.334,7.749c3.985-0.615,6.396-4.824,5.6-9.995c-0.601-3.891-3.307-8.524-8.24-7.764
		C172.025,150.879,170.593,155.763,171.266,160.128z"/>
	<path fill="#FFFFFF" d="M193.928,151.194c-0.365-2.372-0.713-4.311-1.147-6.186l3.7-0.57l0.822,3.758l0.096-0.014
		c0.802-2.359,3.129-4.903,6.925-5.488c3.179-0.49,8.405,0.646,9.619,8.522l2.114,13.711l-4.175,0.644l-2.041-13.236
		c-0.57-3.701-2.422-6.572-6.359-5.966c-2.752,0.425-4.587,2.699-4.94,5.134c-0.109,0.551-0.094,1.277,0.016,1.988l2.129,13.807
		l-4.175,0.644L193.928,151.194z"/>
	<path fill="#FFFFFF" d="M239.076,160.503c-1.004,0.737-3.306,1.87-6.39,2.345c-6.927,1.068-12.158-2.934-13.241-9.955
		c-1.09-7.068,2.959-12.938,10.455-14.095c2.467-0.38,4.745-0.101,5.972,0.294l-0.452,3.372c-1.084-0.415-2.729-0.696-5.007-0.345
		c-5.267,0.813-7.514,5.141-6.774,9.934c0.819,5.313,4.74,8.061,9.294,7.357c2.373-0.365,3.843-1.224,4.949-1.929L239.076,160.503z"
		/>
	<path fill="#FFFFFF" d="M238.898,126.919l4.175-0.644l5.194,33.686l-4.175,0.643L238.898,126.919z"/>
	<path fill="#FFFFFF" d="M273.536,149.653c0.365,2.372,0.735,4.453,1.155,6.233l-3.7,0.571l-0.814-3.712l-0.096,0.015
		c-0.806,2.019-2.853,4.811-6.933,5.439c-3.605,0.557-8.23-0.77-9.474-8.836l-2.07-13.426l4.175-0.644l1.96,12.714
		c0.673,4.365,2.455,7.102,6.251,6.517c2.8-0.432,4.444-2.677,4.918-4.644c0.143-0.653,0.168-1.435,0.051-2.193l-2.173-14.091
		l4.175-0.644L273.536,149.653z"/>
	<path fill="#FFFFFF" d="M280.199,150.666c1.357,0.616,3.672,1.134,5.759,0.813c3.036-0.468,4.227-2.206,3.934-4.104
		c-0.308-1.992-1.662-2.9-4.921-3.563c-4.354-0.834-6.651-2.812-7.075-5.563c-0.57-3.701,1.95-7.198,6.885-7.959
		c2.324-0.358,4.467-0.008,5.865,0.554l-0.576,3.196c-0.989-0.43-2.767-0.933-4.901-0.604c-2.467,0.381-3.624,2.016-3.36,3.725
		c0.293,1.896,1.801,2.539,4.965,3.217c4.219,0.903,6.566,2.582,7.093,5.998c0.622,4.031-2.07,7.361-7.526,8.202
		c-2.515,0.388-4.935,0.13-6.693-0.57L280.199,150.666z"/>
	<path fill="#FFFFFF" d="M300.326,121.819c0.268,1.416-0.602,2.717-2.262,2.973c-1.471,0.227-2.69-0.752-2.91-2.175
		c-0.227-1.471,0.689-2.777,2.207-3.012C298.927,119.364,300.099,120.348,300.326,121.819z M300.212,151.952l-3.54-22.963
		l4.175-0.644l3.541,22.962L300.212,151.952z"/>
	<path fill="#FFFFFF" d="M330.294,135.364c1.309,8.493-4.004,13.101-9.555,13.957c-6.215,0.957-11.709-2.857-12.828-10.116
		c-1.186-7.687,3.148-12.969,9.506-13.949C324.011,124.239,329.211,128.342,330.294,135.364z M312.112,138.411
		c0.775,5.029,4.254,8.379,8.334,7.749c3.985-0.614,6.396-4.823,5.6-9.995c-0.601-3.891-3.307-8.523-8.24-7.763
		C312.871,129.163,311.438,134.045,312.112,138.411z"/>
	<path fill="#FFFFFF" d="M334.774,129.477c-0.366-2.373-0.714-4.311-1.148-6.186l3.701-0.571l0.822,3.759l0.095-0.015
		c0.802-2.358,3.13-4.903,6.925-5.488c3.18-0.49,8.406,0.647,9.62,8.522l2.114,13.711l-4.175,0.645l-2.041-13.236
		c-0.571-3.701-2.422-6.573-6.359-5.966c-2.753,0.425-4.588,2.698-4.94,5.133c-0.11,0.552-0.095,1.277,0.015,1.989l2.129,13.807
		l-4.175,0.644L334.774,129.477z"/>
	<path fill="#FFFFFF" d="M364.356,131.083c0.965,5.632,4.93,7.4,9.104,6.757c2.989-0.461,4.712-1.262,6.175-2.167l1.172,2.88
		c-1.368,0.891-3.766,2.037-7.419,2.601c-7.068,1.09-12.008-2.909-13.076-9.835c-1.067-6.928,2.171-13.012,8.86-14.044
		c7.496-1.155,10.506,5.132,11.157,9.354c0.132,0.854,0.139,1.533,0.157,1.967L364.356,131.083z M376.135,126.208
		c-0.361-2.664-2.137-6.616-6.834-5.893c-4.223,0.651-5.473,4.828-5.359,7.773L376.135,126.208z"/>
	<path fill="#FFFFFF" d="M386.224,134.317c1.357,0.617,3.672,1.135,5.76,0.813c3.036-0.468,4.225-2.205,3.932-4.104
		c-0.307-1.992-1.661-2.9-4.921-3.564c-4.354-0.834-6.65-2.811-7.074-5.563c-0.571-3.701,1.95-7.199,6.884-7.959
		c2.325-0.359,4.468-0.009,5.866,0.553l-0.575,3.197c-0.99-0.431-2.768-0.934-4.902-0.604c-2.467,0.38-3.624,2.016-3.36,3.724
		c0.292,1.897,1.801,2.539,4.965,3.217c4.219,0.903,6.566,2.582,7.094,5.998c0.621,4.032-2.071,7.361-7.527,8.203
		c-2.515,0.388-4.935,0.129-6.693-0.571L386.224,134.317z"/>
</g>
</svg>
