<?xml version="1.0" encoding="utf-8"?>
<!-- Generator: Adobe Illustrator 16.0.0, SVG Export Plug-In . SVG Version: 6.00 Build 0)  -->
<!DOCTYPE svg PUBLIC "-//W3C//DTD SVG 1.1//EN" "http://www.w3.org/Graphics/SVG/1.1/DTD/svg11.dtd">
<svg version="1.1" xmlns="http://www.w3.org/2000/svg" xmlns:xlink="http://www.w3.org/1999/xlink" x="0px" y="0px"
	 width="184.104px" height="351.573px" viewBox="0 0 184.104 351.573" enable-background="new 0 0 184.104 351.573"
	 xml:space="preserve">
<g id="Capa_1">
	<g>
		<g>
			<defs>
				<path id="SVGID_1_" d="M71.995,91.726c0,0-0.476,0.997-1.328,0.076l-2.903-0.155c0,0-0.816-1.482-1.643-0.292
					c-0.829,1.19-1.436-0.418-1.436-0.418s-1.184-0.607-1.343,0.2c-0.159,0.81-0.79,0.816-1.259,0.199
					c-0.471-0.614-1.143-0.67-1.39-0.107c-0.245,0.563-0.875,0.691-1.26,0.138c-0.385-0.555-0.306-1.052-1.015-0.484
					c-0.708,0.566-1.525-1.04-1.525-1.04l-4.421-6.599l-2.036-0.161l-0.109-9.822l1.34-0.133l4.222-7.751
					c0,0,1.003-1.377,1.565,0.106c0,0,0.64-1.497,1.312-1.505c0.674-0.007,1.25,1.54,1.25,1.54s0.412-1.373,1.465-1.261
					c1.052,0.113,1.065,0.983,1.065,0.983s0.789-1.003,1.586-1.135c0.798-0.135,0.937,0.983,0.937,0.983s0.679,0.488,1.299-0.575
					c0,0,0.077-0.684,0.876-0.629c0.8,0.052,2.608,0.095,2.608,0.095s0.523-1.174,1.527-0.229c0,0,1.003,4.939,0.939,13.288
					C72.257,85.385,72.854,86.771,71.995,91.726z"/>
			</defs>
			<clipPath id="SVGID_2_">
				<use xlink:href="#SVGID_1_"  overflow="visible"/>
			</clipPath>
			<g transform="matrix(1 -1.693334e-010 8.827439e-011 1 3.882445e-006 -6.991651e-007)" clip-path="url(#SVGID_2_)">
				
					<image overflow="visible" width="595" height="390" xlink:href="../../ahorroImagenes/focos-c.jpg"  transform="matrix(0.0052 0.4701 -0.3182 0.0035 146.5605 -10.1548)">
				</image>
			</g>
		</g>
		<g>
			<path opacity="0.4" fill="#060000" d="M72.317,71.743l17.412-0.323c0,0,1.941-0.238,1.878,2.645l8.329-0.094l0.585-0.864
				l0.074,0.554l0.07,6.34h0.134l-1.326-1.563l-7.489,0.014l-0.777,1.446c0,0-0.079,1.394-1.57,1.41
				c-1.489,0.016-17.62,0.187-17.62,0.187L72.317,71.743z"/>
			<path fill="#FFFFFF" d="M84.829,76.307l-0.223-3.26c0,0,1.301-0.386,2.513-0.307c1.211,0.08,2.89,0.062,2.89,0.062
				s0.38,0.647,0.392,1.672c0.011,1.026,0.315,3.167,0.044,3.915c-0.272,0.749-1.199,1.132-2.41,1.333
				c-1.209,0.199-2.974,0.778-3.167,0.127C84.674,79.198,84.829,76.307,84.829,76.307z"/>
			<path fill="#FFFFFF" d="M83.606,74.313c0,0-0.123-1.6-2.173-1.576c-2.049,0.022-9.113,0.102-9.113,0.102l-0.302,8.163
				l10.345-0.106c0,0,1.396-0.066,1.473-1.653C83.911,77.656,83.606,74.313,83.606,74.313z"/>
			<polygon fill="#FFFFFF" points="98.511,75.428 90.511,75.517 90.487,77.652 98.038,77.75 99.729,78.847 99.863,74.194 			"/>
			<g>
				<path opacity="0.4" fill="#060000" d="M90.917,80.766l0.131-0.379l20.676,7.101c1.32-2.364-0.552-5.414-0.571-5.444
					l-0.066-0.106l0.065-0.104c2.325-3.754,0.858-9.623,0.843-9.682l-0.012-0.046l0.011-0.049c0.69-3.006-0.379-6.396-0.674-7.243
					l-19.663,8.92l-0.165-0.363l20.05-9.097l0.077,0.196c0.064,0.165,1.571,4.074,0.774,7.629c0.149,0.609,1.403,6.082-0.838,9.839
					c0.35,0.604,1.892,3.531,0.428,5.897l-0.084,0.136L90.917,80.766z"/>
			</g>
			<g opacity="0.4">
				<polygon fill="#060000" points="101.313,78.514 101.412,75.365 113.834,71.524 113.952,71.907 101.802,75.664 101.721,78.252 
					111.197,82.232 114.412,82.682 114.356,83.078 111.066,82.611 				"/>
			</g>
			<g opacity="0.4">
				<path fill="#060000" d="M110.327,81.856c-0.005-0.53,0.544-0.97,1.228-0.978c0.682-0.008,1.241,0.42,1.247,0.95
					c0.005,0.53-0.544,0.968-1.226,0.976C110.892,82.813,110.334,82.387,110.327,81.856z M112.403,81.834
					c-0.004-0.307-0.391-0.56-0.844-0.554c-0.455,0.004-0.835,0.266-0.832,0.571s0.39,0.559,0.845,0.554
					C112.025,82.4,112.406,82.139,112.403,81.834z"/>
			</g>
			<g opacity="0.4">
				<path fill="#060000" d="M110.534,72.942c-0.006-0.563,0.571-1.03,1.287-1.038s1.303,0.445,1.31,1.01
					c0.006,0.563-0.571,1.03-1.287,1.038C111.127,73.96,110.54,73.507,110.534,72.942z M112.729,72.918
					c-0.003-0.337-0.417-0.618-0.904-0.612c-0.486,0.005-0.896,0.295-0.892,0.633c0.004,0.339,0.419,0.619,0.906,0.613
					C112.326,73.546,112.733,73.258,112.729,72.918z"/>
			</g>
		</g>
		<g>
			<path opacity="0.3" fill="#EFFBFC" d="M142.533,47.994c-16.799-14.205-30.543-18.688-30.543-9.96s-8.926,15.868-19.835,15.868
				c-10.909,0-19.835,10.976-19.835,24.391c0,13.414,8.926,24.39,19.835,24.39c10.91,0,19.835,6.876,19.835,15.28
				c0,8.403,13.745,3.656,30.543-10.549l4.589-3.882c16.799-14.205,16.799-37.451,0-51.656L142.533,47.994z"/>
		</g>
		<g>
			<path opacity="0.3" fill="#EFFBFC" d="M75.111,93.101c0-2.688,18-5.101,40-5.101h1.15c22,0,31.777,8.116,21.727,17.773
				c-10.05,9.656-18.273,11.963-18.273,4.992c0-6.97-10.036-12.726-22.302-12.726S75.111,95.788,75.111,93.101z"/>
		</g>
		<g>
			<path opacity="0.3" fill="#EFFBFC" d="M138.524,49.711C148.869,59.65,139.333,68,117.333,68h-2.222c-22,0-40-2.427-40-5.129
				c0-2.701,10.036-5.02,22.302-5.02s22.302-5.867,22.302-13.105S128.179,39.771,138.524,49.711z"/>
		</g>
		<g>
			<path opacity="0.4" fill="#C9D8E2" d="M125.093,45.675c7.308,9.939-0.949,18.072-18.348,18.072
				c-17.399,0-31.634-2.21-31.634-4.912s8.257-4.912,18.348-4.912s18.348-5.922,18.348-13.16S117.786,35.735,125.093,45.675z"/>
		</g>
		<g opacity="0.8">
			<path fill="#EFFBFC" d="M122.556,53.021c5.39,3.556-0.7,6.465-13.533,6.465s-23.333-0.791-23.333-1.757s6.09-1.757,13.533-1.757
				c7.444,0,13.534-2.118,13.534-4.708S117.166,49.465,122.556,53.021z"/>
		</g>
		<g opacity="0.8">
			<path fill="#EFFBFC" d="M122.556,103.857c5.39-3.556-0.7-6.465-13.533-6.465s-23.333,0.791-23.333,1.758
				c0,0.966,6.09,1.757,13.533,1.757c7.444,0,13.534,2.118,13.534,4.708C112.756,108.204,117.166,107.413,122.556,103.857z"/>
		</g>
		<g>
			<path opacity="0.4" fill="#C9D8E2" d="M125.093,111.204c7.308-9.939-0.949-18.072-18.348-18.072
				c-17.399,0-31.634,2.21-31.634,4.912s8.257,4.912,18.348,4.912s18.348,5.922,18.348,13.16S117.786,121.144,125.093,111.204z"/>
		</g>
		<path opacity="0.8" fill="#EFFBFC" d="M81.086,57.478c0,0-4.897-1.861-7.738,5.094l0.392,31.442c0,0,0.979,6.759,7.444,4.799
			C81.184,98.813,75.013,70.603,81.086,57.478z"/>
		<g>
			<defs>
				<path id="SVGID_3_" d="M71.995,262.455c0,0-0.476,0.998-1.328,0.076l-2.903-0.155c0,0-0.816-1.482-1.643-0.292
					c-0.829,1.19-1.436-0.418-1.436-0.418s-1.184-0.607-1.343,0.2c-0.159,0.81-0.79,0.815-1.259,0.199
					c-0.471-0.614-1.143-0.67-1.39-0.108c-0.245,0.563-0.875,0.692-1.26,0.138c-0.385-0.554-0.306-1.051-1.015-0.484
					c-0.708,0.567-1.525-1.039-1.525-1.039l-4.421-6.599l-2.036-0.162l-0.109-9.821l1.34-0.133l4.222-7.751
					c0,0,1.003-1.378,1.565,0.107c0,0,0.64-1.497,1.312-1.506c0.674-0.007,1.25,1.539,1.25,1.539s0.412-1.372,1.465-1.26
					c1.052,0.113,1.065,0.983,1.065,0.983s0.789-1.002,1.586-1.135c0.798-0.135,0.937,0.983,0.937,0.983s0.679,0.488,1.299-0.576
					c0,0,0.077-0.683,0.876-0.628c0.8,0.052,2.608,0.094,2.608,0.094s0.523-1.173,1.527-0.229c0,0,1.003,4.938,0.939,13.287
					C72.257,256.114,72.854,257.5,71.995,262.455z"/>
			</defs>
			<clipPath id="SVGID_4_">
				<use xlink:href="#SVGID_3_"  overflow="visible"/>
			</clipPath>
			<g transform="matrix(1 -1.693334e-010 8.827439e-011 1 7.978485e-007 3.593494e-006)" clip-path="url(#SVGID_4_)">
				
					<image overflow="visible" width="595" height="390" xlink:href="../../ahorroImagenes/focos-c.jpg"  transform="matrix(0.0052 0.4701 -0.3182 0.0035 146.5601 160.5742)">
				</image>
			</g>
		</g>
		<g>
			
				<image overflow="visible" opacity="0.76" width="427" height="349" xlink:href="A734D448.png"  transform="matrix(0.24 0 0 0.24 42.0166 205.002)">
			</image>
			<g>
				<g>
					<g>
						<path opacity="0.4" fill="#060000" d="M72.317,242.473l17.412-0.324c0,0,1.941-0.236,1.878,2.645l8.329-0.093l0.585-0.864
							l0.074,0.188l0.07,5.977h0.134l-1.326-1.199l-7.489,0.197l-0.777,1.536c0,0-0.079,1.439-1.57,1.456
							c-1.489,0.016-17.62,0.21-17.62,0.21L72.317,242.473z"/>
						<path fill="#FFFFFF" d="M84.829,247.036l-0.223-3.259c0,0,1.301-0.387,2.513-0.308c1.211,0.08,2.89,0.062,2.89,0.062
							s0.38,0.648,0.392,1.672c0.011,1.025,0.315,3.166,0.044,3.915c-0.272,0.749-1.199,1.132-2.41,1.333
							c-1.209,0.198-2.974,0.778-3.167,0.128C84.674,249.928,84.829,247.036,84.829,247.036z"/>
						<path fill="#FFFFFF" d="M83.606,245.042c0,0-0.123-1.6-2.173-1.576c-2.049,0.022-9.113,0.102-9.113,0.102l-0.302,8.163
							l10.345-0.106c0,0,1.396-0.066,1.473-1.653C83.911,248.387,83.606,245.042,83.606,245.042z"/>
						<polygon fill="#FFFFFF" points="98.511,246.157 90.511,246.246 90.487,248.382 98.038,248.479 99.729,249.576 99.863,244.923 
													"/>
						<g>
							<path opacity="0.4" fill="#060000" d="M90.917,251.495l0.131-0.38l20.676,7.101c1.32-2.363-0.552-5.413-0.571-5.443
								l-0.066-0.106l0.065-0.104c2.325-3.753,0.858-9.623,0.843-9.683l-0.012-0.046l0.011-0.048
								c0.69-3.006-0.379-6.397-0.674-7.244l-19.663,8.921l-0.165-0.363l20.05-9.097l0.077,0.196
								c0.064,0.165,1.571,4.074,0.774,7.629c0.149,0.609,1.403,6.081-0.838,9.839c0.35,0.604,1.892,3.531,0.428,5.897l-0.084,0.136
								L90.917,251.495z"/>
						</g>
						<g opacity="0.4">
							<polygon fill="#060000" points="101.313,249.243 101.412,246.096 113.834,242.254 113.952,242.637 101.802,246.394 
								101.721,248.981 111.197,252.962 114.412,253.411 114.356,253.807 111.066,253.341 							"/>
						</g>
						<g opacity="0.4">
							<path fill="#060000" d="M110.327,252.586c-0.005-0.529,0.544-0.97,1.228-0.978c0.682-0.008,1.241,0.42,1.247,0.95
								c0.005,0.53-0.544,0.968-1.226,0.976C110.892,253.542,110.334,253.116,110.327,252.586z M112.403,252.563
								c-0.004-0.305-0.391-0.559-0.844-0.553c-0.455,0.004-0.835,0.266-0.832,0.571s0.39,0.559,0.845,0.554
								C112.025,253.13,112.406,252.868,112.403,252.563z"/>
						</g>
						<g opacity="0.4">
							<path fill="#060000" d="M110.534,243.672c-0.006-0.563,0.571-1.03,1.287-1.038c0.716-0.007,1.303,0.446,1.31,1.009
								c0.006,0.564-0.571,1.031-1.287,1.039C111.127,244.689,110.54,244.236,110.534,243.672z M112.729,243.647
								c-0.003-0.337-0.417-0.618-0.904-0.613c-0.486,0.007-0.896,0.296-0.892,0.633c0.004,0.34,0.419,0.619,0.906,0.614
								C112.326,244.275,112.733,243.987,112.729,243.647z"/>
						</g>
					</g>
				</g>
				<defs>
					<filter id="Adobe_OpacityMaskFilter" filterUnits="userSpaceOnUse" x="72.017" y="235.002" width="42.395" height="23.697">
						<feFlood  style="flood-color:white;flood-opacity:1" result="back"/>
						<feBlend  in="SourceGraphic" in2="back" mode="normal"/>
					</filter>
				</defs>
				<mask maskUnits="userSpaceOnUse" x="72.017" y="235.002" width="42.395" height="23.697" id="SVGID_5_">
					<g filter="url(#Adobe_OpacityMaskFilter)">
						
							<image overflow="visible" width="194" height="116" xlink:href="A734D448.jpg"  transform="matrix(0.24 0 0 0.24 70.0166 233.002)">
						</image>
					</g>
				</mask>
				<g opacity="0.75" mask="url(#SVGID_5_)">
					<g>
						<path opacity="0.4" fill="#FFFFFF" d="M72.317,242.473l17.412-0.324c0,0,1.941-0.236,1.878,2.645l8.329-0.093l0.585-0.864
							l0.074,0.188l0.07,5.977h0.134l-1.326-1.199l-7.489,0.197l-0.777,1.536c0,0-0.079,1.439-1.57,1.456
							c-1.489,0.016-17.62,0.21-17.62,0.21L72.317,242.473z"/>
						<path fill="#FFFFFF" d="M84.829,247.036l-0.223-3.259c0,0,1.301-0.387,2.513-0.308c1.211,0.08,2.89,0.062,2.89,0.062
							s0.38,0.648,0.392,1.672c0.011,1.025,0.315,3.166,0.044,3.915c-0.272,0.749-1.199,1.132-2.41,1.333
							c-1.209,0.198-2.974,0.778-3.167,0.128C84.674,249.928,84.829,247.036,84.829,247.036z"/>
						<path fill="#FFFFFF" d="M83.606,245.042c0,0-0.123-1.6-2.173-1.576c-2.049,0.022-9.113,0.102-9.113,0.102l-0.302,8.163
							l10.345-0.106c0,0,1.396-0.066,1.473-1.653C83.911,248.387,83.606,245.042,83.606,245.042z"/>
						<polygon fill="#FFFFFF" points="98.511,246.157 90.511,246.246 90.487,248.382 98.038,248.479 99.729,249.576 99.863,244.923 
													"/>
						<g>
							<path opacity="0.4" fill="#FFFFFF" d="M90.917,251.495l0.131-0.38l20.676,7.101c1.32-2.363-0.552-5.413-0.571-5.443
								l-0.066-0.106l0.065-0.104c2.325-3.753,0.858-9.623,0.843-9.683l-0.012-0.046l0.011-0.048
								c0.69-3.006-0.379-6.397-0.674-7.244l-19.663,8.921l-0.165-0.363l20.05-9.097l0.077,0.196
								c0.064,0.165,1.571,4.074,0.774,7.629c0.149,0.609,1.403,6.081-0.838,9.839c0.35,0.604,1.892,3.531,0.428,5.897l-0.084,0.136
								L90.917,251.495z"/>
						</g>
						<g opacity="0.4">
							<polygon fill="#FFFFFF" points="101.313,249.243 101.412,246.096 113.834,242.254 113.952,242.637 101.802,246.394 
								101.721,248.981 111.197,252.962 114.412,253.411 114.356,253.807 111.066,253.341 							"/>
						</g>
						<g opacity="0.4">
							<path fill="#FFFFFF" d="M110.327,252.586c-0.005-0.529,0.544-0.97,1.228-0.978c0.682-0.008,1.241,0.42,1.247,0.95
								c0.005,0.53-0.544,0.968-1.226,0.976C110.892,253.542,110.334,253.116,110.327,252.586z M112.403,252.563
								c-0.004-0.305-0.391-0.559-0.844-0.553c-0.455,0.004-0.835,0.266-0.832,0.571s0.39,0.559,0.845,0.554
								C112.025,253.13,112.406,252.868,112.403,252.563z"/>
						</g>
						<g opacity="0.4">
							<path fill="#FFFFFF" d="M110.534,243.672c-0.006-0.563,0.571-1.03,1.287-1.038c0.716-0.007,1.303,0.446,1.31,1.009
								c0.006,0.564-0.571,1.031-1.287,1.039C111.127,244.689,110.54,244.236,110.534,243.672z M112.729,243.647
								c-0.003-0.337-0.417-0.618-0.904-0.613c-0.486,0.007-0.896,0.296-0.892,0.633c0.004,0.34,0.419,0.619,0.906,0.614
								C112.326,244.275,112.733,243.987,112.729,243.647z"/>
						</g>
					</g>
				</g>
			</g>
		</g>
		<g>
			
				<image overflow="visible" opacity="0.76" width="615" height="619" xlink:href="A734D44B.png"  transform="matrix(0.24 0 0 0.24 42.3193 174.3047)">
			</image>
			<g>
				<g>
					<path opacity="0.3" fill="#EFFBFC" d="M142.533,218.724c-16.799-14.205-30.543-18.688-30.543-9.96s-8.926,15.868-19.835,15.868
						c-10.909,0-19.835,10.976-19.835,24.39s8.926,24.39,19.835,24.39c10.91,0,19.835,6.876,19.835,15.28
						c0,8.405,13.745,3.658,30.543-10.548l4.59-3.881c16.799-14.206,16.798-37.452,0-51.657L142.533,218.724z"/>
				</g>
				<defs>
					<filter id="Adobe_OpacityMaskFilter_1_" filterUnits="userSpaceOnUse" x="72.319" y="204.305" width="87.403" height="88.545">
						<feFlood  style="flood-color:white;flood-opacity:1" result="back"/>
						<feBlend  in="SourceGraphic" in2="back" mode="normal"/>
					</filter>
				</defs>
				<mask maskUnits="userSpaceOnUse" x="72.319" y="204.305" width="87.403" height="88.545" id="SVGID_6_">
					<g filter="url(#Adobe_OpacityMaskFilter_1_)">
						
							<image overflow="visible" width="381" height="386" xlink:href="A734D449.jpg"  transform="matrix(0.24 0 0 0.24 70.3193 202.3047)">
						</image>
					</g>
				</mask>
				<g opacity="0.75" mask="url(#SVGID_6_)">
					<path opacity="0.3" fill="#FFFFFF" d="M142.533,218.724c-16.799-14.205-30.543-18.688-30.543-9.96s-8.926,15.868-19.835,15.868
						c-10.909,0-19.835,10.976-19.835,24.39s8.926,24.39,19.835,24.39c10.91,0,19.835,6.876,19.835,15.28
						c0,8.405,13.745,3.658,30.543-10.548l4.59-3.881c16.799-14.206,16.798-37.452,0-51.657L142.533,218.724z"/>
				</g>
			</g>
		</g>
		<g>
			
				<image overflow="visible" opacity="0.76" width="529" height="361" xlink:href="A734D447.png"  transform="matrix(0.24 0 0 0.24 45.1108 229.1592)">
			</image>
			<g>
				<g>
					<path opacity="0.3" fill="#EFFBFC" d="M75.111,263.965c0-2.688,18-4.965,40-4.965h1.15c22,0,31.777,7.98,21.727,17.637
						c-10.05,9.658-18.273,11.896-18.273,4.927c0-6.971-10.036-12.692-22.302-12.692S75.111,266.652,75.111,263.965z"/>
				</g>
				<defs>
					<filter id="Adobe_OpacityMaskFilter_2_" filterUnits="userSpaceOnUse" x="75.111" y="259" width="66.832" height="26.623">
						<feFlood  style="flood-color:white;flood-opacity:1" result="back"/>
						<feBlend  in="SourceGraphic" in2="back" mode="normal"/>
					</filter>
				</defs>
				<mask maskUnits="userSpaceOnUse" x="75.111" y="259" width="66.832" height="26.623" id="SVGID_7_">
					<g filter="url(#Adobe_OpacityMaskFilter_2_)">
						
							<image overflow="visible" width="296" height="128" xlink:href="A734D458.jpg"  transform="matrix(0.24 0 0 0.24 73.1108 257.1592)">
						</image>
					</g>
				</mask>
				<g opacity="0.75" mask="url(#SVGID_7_)">
					<path opacity="0.3" fill="#FFFFFF" d="M75.111,263.965c0-2.688,18-4.965,40-4.965h1.15c22,0,31.777,7.98,21.727,17.637
						c-10.05,9.658-18.273,11.896-18.273,4.927c0-6.971-10.036-12.692-22.302-12.692S75.111,266.652,75.111,263.965z"/>
				</g>
			</g>
		</g>
		<g>
			
				<image overflow="visible" opacity="0.76" width="532" height="364" xlink:href="A734D458.png"  transform="matrix(0.24 0 0 0.24 45.1108 181.0508)">
			</image>
			<g>
				<g>
					<path opacity="0.3" fill="#EFFBFC" d="M138.524,220.076c10.345,9.939,0.809,17.924-21.191,17.924h-2.222
						c-22,0-40-2.063-40-4.764s10.036-4.838,22.302-4.838s22.302-5.959,22.302-13.197
						C119.715,207.962,128.179,210.137,138.524,220.076z"/>
				</g>
				<defs>
					<filter id="Adobe_OpacityMaskFilter_3_" filterUnits="userSpaceOnUse" x="75.111" y="210.927" width="67.592" height="27.073">
						<feFlood  style="flood-color:white;flood-opacity:1" result="back"/>
						<feBlend  in="SourceGraphic" in2="back" mode="normal"/>
					</filter>
				</defs>
				<mask maskUnits="userSpaceOnUse" x="75.111" y="210.927" width="67.592" height="27.073" id="SVGID_8_">
					<g filter="url(#Adobe_OpacityMaskFilter_3_)">
						
							<image overflow="visible" width="299" height="131" xlink:href="2AA2AEB7.jpg"  transform="matrix(0.24 0 0 0.24 73.1108 209.0508)">
						</image>
					</g>
				</mask>
				<g opacity="0.75" mask="url(#SVGID_8_)">
					<path opacity="0.3" fill="#FFFFFF" d="M138.524,220.076c10.345,9.939,0.809,17.924-21.191,17.924h-2.222
						c-22,0-40-2.063-40-4.764s10.036-4.838,22.302-4.838s22.302-5.959,22.302-13.197
						C119.715,207.962,128.179,210.137,138.524,220.076z"/>
				</g>
			</g>
		</g>
		<g>
			
				<image overflow="visible" opacity="0.76" width="470" height="364" xlink:href="2AA2AEB5.png"  transform="matrix(0.24 0 0 0.24 45.1108 177.2314)">
			</image>
			<g>
				<g>
					<path opacity="0.4" fill="#C9D8E2" d="M125.093,216.404c7.308,9.939-0.949,18.071-18.348,18.071
						c-17.399,0-31.634-2.21-31.634-4.911c0-2.702,8.257-4.912,18.348-4.912s18.348-5.922,18.348-13.16
						S117.786,206.465,125.093,216.404z"/>
				</g>
				<defs>
					<filter id="Adobe_OpacityMaskFilter_4_" filterUnits="userSpaceOnUse" x="75.111" y="207.231" width="52.645" height="27.244">
						<feFlood  style="flood-color:white;flood-opacity:1" result="back"/>
						<feBlend  in="SourceGraphic" in2="back" mode="normal"/>
					</filter>
				</defs>
				<mask maskUnits="userSpaceOnUse" x="75.111" y="207.231" width="52.645" height="27.244" id="SVGID_9_">
					<g filter="url(#Adobe_OpacityMaskFilter_4_)">
						
							<image overflow="visible" width="237" height="131" xlink:href="2AA2AEB3.jpg"  transform="matrix(0.24 0 0 0.24 73.1108 205.2314)">
						</image>
					</g>
				</mask>
				<g opacity="0.75" mask="url(#SVGID_9_)">
					<path opacity="0.4" fill="#FFFFFF" d="M125.093,216.404c7.308,9.939-0.949,18.071-18.348,18.071
						c-17.399,0-31.634-2.21-31.634-4.911c0-2.702,8.257-4.912,18.348-4.912s18.348-5.922,18.348-13.16
						S117.786,206.465,125.093,216.404z"/>
				</g>
			</g>
		</g>
		<g opacity="0.8">
			
				<image overflow="visible" opacity="0.76" width="412" height="291" xlink:href="2AA2AECD.png"  transform="matrix(0.24 0 0 0.24 55.6895 190.4688)">
			</image>
			<g>
				<g>
					<path fill="#EFFBFC" d="M122.556,223.75c5.39,3.556-0.7,6.465-13.533,6.465s-23.333-0.791-23.333-1.757
						s6.09-1.757,13.533-1.757c7.444,0,13.534-2.118,13.534-4.708S117.166,220.194,122.556,223.75z"/>
				</g>
				<defs>
					<filter id="Adobe_OpacityMaskFilter_5_" filterUnits="userSpaceOnUse" x="85.689" y="220.469" width="38.83" height="9.746">
						<feFlood  style="flood-color:white;flood-opacity:1" result="back"/>
						<feBlend  in="SourceGraphic" in2="back" mode="normal"/>
					</filter>
				</defs>
				<mask maskUnits="userSpaceOnUse" x="85.689" y="220.469" width="38.83" height="9.746" id="SVGID_10_">
					<g filter="url(#Adobe_OpacityMaskFilter_5_)">
						
							<image overflow="visible" width="179" height="58" xlink:href="2AA2AECF.jpg"  transform="matrix(0.24 0 0 0.24 83.6895 218.4688)">
						</image>
					</g>
				</mask>
				<g opacity="0.75" mask="url(#SVGID_10_)">
					<path fill="#FFFFFF" d="M122.556,223.75c5.39,3.556-0.7,6.465-13.533,6.465s-23.333-0.791-23.333-1.757
						s6.09-1.757,13.533-1.757c7.444,0,13.534-2.118,13.534-4.708S117.166,220.194,122.556,223.75z"/>
				</g>
			</g>
		</g>
		<g opacity="0.8">
			
				<image overflow="visible" opacity="0.76" width="412" height="291" xlink:href="2AA2AED2.png"  transform="matrix(0.24 0 0 0.24 55.6895 238.1221)">
			</image>
			<g>
				<g>
					<path fill="#EFFBFC" d="M122.556,274.587c5.39-3.556-0.7-6.465-13.533-6.465s-23.333,0.791-23.333,1.757
						c0,0.967,6.09,1.758,13.533,1.758c7.444,0,13.534,2.118,13.534,4.707C112.756,278.934,117.166,278.143,122.556,274.587z"/>
				</g>
				<defs>
					<filter id="Adobe_OpacityMaskFilter_6_" filterUnits="userSpaceOnUse" x="85.689" y="268.122" width="38.83" height="9.746">
						<feFlood  style="flood-color:white;flood-opacity:1" result="back"/>
						<feBlend  in="SourceGraphic" in2="back" mode="normal"/>
					</filter>
				</defs>
				<mask maskUnits="userSpaceOnUse" x="85.689" y="268.122" width="38.83" height="9.746" id="SVGID_11_">
					<g filter="url(#Adobe_OpacityMaskFilter_6_)">
						
							<image overflow="visible" width="179" height="58" xlink:href="2AA2AED3.jpg"  transform="matrix(0.24 0 0 0.24 83.6895 266.1221)">
						</image>
					</g>
				</mask>
				<g opacity="0.75" mask="url(#SVGID_11_)">
					<path fill="#FFFFFF" d="M122.556,274.587c5.39-3.556-0.7-6.465-13.533-6.465s-23.333,0.791-23.333,1.757
						c0,0.967,6.09,1.758,13.533,1.758c7.444,0,13.534,2.118,13.534,4.707C112.756,278.934,117.166,278.143,122.556,274.587z"/>
				</g>
			</g>
		</g>
		<g>
			
				<image overflow="visible" opacity="0.76" width="470" height="364" xlink:href="2AA2AED5.png"  transform="matrix(0.24 0 0 0.24 45.1108 233.8613)">
			</image>
			<g>
				<g>
					<path opacity="0.4" fill="#C9D8E2" d="M125.093,281.934c7.308-9.939-0.949-18.072-18.348-18.072
						c-17.399,0-31.634,2.211-31.634,4.912s8.257,4.912,18.348,4.912s18.348,5.922,18.348,13.16S117.786,291.873,125.093,281.934z"
						/>
				</g>
				<defs>
					<filter id="Adobe_OpacityMaskFilter_7_" filterUnits="userSpaceOnUse" x="75.111" y="263.861" width="52.645" height="27.245">
						<feFlood  style="flood-color:white;flood-opacity:1" result="back"/>
						<feBlend  in="SourceGraphic" in2="back" mode="normal"/>
					</filter>
				</defs>
				<mask maskUnits="userSpaceOnUse" x="75.111" y="263.861" width="52.645" height="27.245" id="SVGID_12_">
					<g filter="url(#Adobe_OpacityMaskFilter_7_)">
						
							<image overflow="visible" width="237" height="131" xlink:href="2AA2AED7.jpg"  transform="matrix(0.24 0 0 0.24 73.1108 261.8613)">
						</image>
					</g>
				</mask>
				<g opacity="0.75" mask="url(#SVGID_12_)">
					<path opacity="0.4" fill="#FFFFFF" d="M125.093,281.934c7.308-9.939-0.949-18.072-18.348-18.072
						c-17.399,0-31.634,2.211-31.634,4.912s8.257,4.912,18.348,4.912s18.348,5.922,18.348,13.16S117.786,291.873,125.093,281.934z"
						/>
				</g>
			</g>
		</g>
		<path opacity="0.8" fill="#EFFBFC" d="M81.086,228.207c0,0-4.897-1.861-7.738,5.093l0.392,31.443c0,0,0.979,6.759,7.444,4.8
			C81.184,269.543,75.013,241.332,81.086,228.207z"/>
	</g>
	<text transform="matrix(1 0 0 1 78.3335 137.333)" font-family="'MyriadPro-Regular'" font-size="12">Siguiente</text>
	<text transform="matrix(1 0 0 1 77.333 312.7461)" fill="#FFFFFF" font-family="'MyriadPro-Regular'" font-size="13.6882">Siguiente</text>
</g>
<g id="Capa_2" display="none">
	<g display="inline">
		<g>
			<defs>
				<path id="SVGID_13_" d="M71.995,91.726c0,0-0.476,0.997-1.328,0.076l-2.903-0.155c0,0-0.816-1.482-1.643-0.292
					c-0.829,1.19-1.436-0.418-1.436-0.418s-1.184-0.607-1.343,0.2c-0.159,0.81-0.79,0.816-1.259,0.199
					c-0.471-0.614-1.143-0.67-1.39-0.107c-0.245,0.563-0.875,0.691-1.26,0.138c-0.385-0.555-0.306-1.052-1.015-0.484
					c-0.708,0.566-1.525-1.04-1.525-1.04l-4.421-6.599l-2.036-0.161l-0.109-9.822l1.34-0.133l4.222-7.751
					c0,0,1.003-1.377,1.565,0.106c0,0,0.64-1.497,1.312-1.505c0.674-0.007,1.25,1.54,1.25,1.54s0.412-1.373,1.465-1.261
					c1.052,0.113,1.065,0.983,1.065,0.983s0.789-1.003,1.586-1.135c0.798-0.135,0.937,0.983,0.937,0.983s0.679,0.488,1.299-0.575
					c0,0,0.077-0.684,0.876-0.629c0.8,0.052,2.608,0.095,2.608,0.095s0.523-1.174,1.527-0.229c0,0,1.003,4.939,0.939,13.288
					C72.257,85.385,72.854,86.771,71.995,91.726z"/>
			</defs>
			<clipPath id="SVGID_14_">
				<use xlink:href="#SVGID_13_"  overflow="visible"/>
			</clipPath>
			<g transform="matrix(1 -1.693334e-010 8.827439e-011 1 6.512116e-006 -6.767261e-007)" clip-path="url(#SVGID_14_)">
				
					<image overflow="visible" width="595" height="390" xlink:href="../../ahorroImagenes/focos-c.jpg"  transform="matrix(0.0052 0.4701 -0.3182 0.0035 146.561 -10.1548)">
				</image>
			</g>
		</g>
		<g>
			<path opacity="0.4" fill="#060000" d="M72.317,71.743l17.412-0.323c0,0,1.941-0.238,1.878,2.645l8.329-0.094l0.585-0.864
				l0.074,0.554l0.07,6.34h0.134l-1.326-1.563l-7.489,0.014l-0.777,1.446c0,0-0.079,1.394-1.57,1.41
				c-1.489,0.016-17.62,0.187-17.62,0.187L72.317,71.743z"/>
			<path fill="#FFFFFF" d="M84.829,76.307l-0.223-3.26c0,0,1.301-0.386,2.513-0.307c1.211,0.08,2.89,0.062,2.89,0.062
				s0.38,0.647,0.392,1.672c0.011,1.026,0.315,3.167,0.044,3.915c-0.272,0.749-1.199,1.132-2.41,1.333
				c-1.209,0.199-2.974,0.778-3.167,0.127C84.674,79.198,84.829,76.307,84.829,76.307z"/>
			<path fill="#FFFFFF" d="M83.606,74.313c0,0-0.123-1.6-2.173-1.576c-2.049,0.022-9.113,0.102-9.113,0.102l-0.302,8.163
				l10.345-0.106c0,0,1.396-0.066,1.473-1.653C83.911,77.656,83.606,74.313,83.606,74.313z"/>
			<polygon fill="#FFFFFF" points="98.511,75.428 90.511,75.517 90.487,77.652 98.038,77.75 99.729,78.847 99.863,74.194 			"/>
			<g>
				<path opacity="0.4" fill="#060000" d="M90.917,80.766l0.131-0.379l20.676,7.101c1.32-2.364-0.552-5.414-0.571-5.444
					l-0.066-0.106l0.065-0.104c2.325-3.754,0.858-9.623,0.843-9.682l-0.012-0.046l0.011-0.049c0.69-3.006-0.379-6.396-0.674-7.243
					l-19.663,8.92l-0.165-0.363l20.05-9.097l0.077,0.196c0.064,0.165,1.571,4.074,0.774,7.629c0.149,0.609,1.403,6.082-0.838,9.839
					c0.35,0.604,1.892,3.531,0.428,5.897l-0.084,0.136L90.917,80.766z"/>
			</g>
			<g opacity="0.4">
				<polygon fill="#060000" points="101.313,78.514 101.412,75.365 113.834,71.524 113.952,71.907 101.802,75.664 101.721,78.252 
					111.197,82.232 114.412,82.682 114.356,83.078 111.066,82.611 				"/>
			</g>
			<g opacity="0.4">
				<path fill="#060000" d="M110.327,81.856c-0.005-0.53,0.544-0.97,1.228-0.978c0.682-0.008,1.241,0.42,1.247,0.95
					c0.005,0.53-0.544,0.968-1.226,0.976C110.892,82.813,110.334,82.387,110.327,81.856z M112.403,81.834
					c-0.004-0.307-0.391-0.56-0.844-0.554c-0.455,0.004-0.835,0.266-0.832,0.571s0.39,0.559,0.845,0.554
					C112.025,82.4,112.406,82.139,112.403,81.834z"/>
			</g>
			<g opacity="0.4">
				<path fill="#060000" d="M110.534,72.942c-0.006-0.563,0.571-1.03,1.287-1.038s1.303,0.445,1.31,1.01
					c0.006,0.563-0.571,1.03-1.287,1.038C111.127,73.96,110.54,73.507,110.534,72.942z M112.729,72.918
					c-0.003-0.337-0.417-0.618-0.904-0.612c-0.486,0.005-0.896,0.295-0.892,0.633c0.004,0.339,0.419,0.619,0.906,0.613
					C112.326,73.546,112.733,73.258,112.729,72.918z"/>
			</g>
		</g>
		<g>
			<path opacity="0.3" fill="#EFFBFC" d="M142.533,47.994c-16.799-14.205-30.543-18.688-30.543-9.96s-8.926,15.868-19.835,15.868
				c-10.909,0-19.835,10.976-19.835,24.391c0,13.414,8.926,24.39,19.835,24.39c10.91,0,19.835,6.876,19.835,15.28
				c0,8.403,13.745,3.656,30.543-10.549l4.589-3.882c16.799-14.205,16.799-37.451,0-51.656L142.533,47.994z"/>
		</g>
		<g>
			<path opacity="0.3" fill="#EFFBFC" d="M75.111,93.101c0-2.688,18-5.101,40-5.101h1.15c22,0,31.777,8.116,21.727,17.773
				c-10.05,9.656-18.273,11.963-18.273,4.992c0-6.97-10.036-12.726-22.302-12.726S75.111,95.788,75.111,93.101z"/>
		</g>
		<g>
			<path opacity="0.3" fill="#EFFBFC" d="M138.524,49.711C148.869,59.65,139.333,68,117.333,68h-2.222c-22,0-40-2.427-40-5.129
				c0-2.701,10.036-5.02,22.302-5.02s22.302-5.867,22.302-13.105S128.179,39.771,138.524,49.711z"/>
		</g>
		<g>
			<path opacity="0.4" fill="#C9D8E2" d="M125.093,45.675c7.308,9.939-0.949,18.072-18.348,18.072
				c-17.399,0-31.634-2.21-31.634-4.912s8.257-4.912,18.348-4.912s18.348-5.922,18.348-13.16S117.786,35.735,125.093,45.675z"/>
		</g>
		<g opacity="0.8">
			<path fill="#EFFBFC" d="M122.556,53.021c5.39,3.556-0.7,6.465-13.533,6.465s-23.333-0.791-23.333-1.757s6.09-1.757,13.533-1.757
				c7.444,0,13.534-2.118,13.534-4.708S117.166,49.465,122.556,53.021z"/>
		</g>
		<g opacity="0.8">
			<path fill="#EFFBFC" d="M122.556,103.857c5.39-3.556-0.7-6.465-13.533-6.465s-23.333,0.791-23.333,1.758
				c0,0.966,6.09,1.757,13.533,1.757c7.444,0,13.534,2.118,13.534,4.708C112.756,108.204,117.166,107.413,122.556,103.857z"/>
		</g>
		<g>
			<path opacity="0.4" fill="#C9D8E2" d="M125.093,111.204c7.308-9.939-0.949-18.072-18.348-18.072
				c-17.399,0-31.634,2.21-31.634,4.912s8.257,4.912,18.348,4.912s18.348,5.922,18.348,13.16S117.786,121.144,125.093,111.204z"/>
		</g>
		<path opacity="0.8" fill="#EFFBFC" d="M81.086,57.478c0,0-4.897-1.861-7.738,5.094l0.392,31.442c0,0,0.979,6.759,7.444,4.799
			C81.184,98.813,75.013,70.603,81.086,57.478z"/>
		<g>
			<defs>
				<path id="SVGID_15_" d="M71.995,262.455c0,0-0.476,0.998-1.328,0.076l-2.903-0.155c0,0-0.816-1.482-1.643-0.292
					c-0.829,1.19-1.436-0.418-1.436-0.418s-1.184-0.607-1.343,0.2c-0.159,0.81-0.79,0.815-1.259,0.199
					c-0.471-0.614-1.143-0.67-1.39-0.108c-0.245,0.563-0.875,0.692-1.26,0.138c-0.385-0.554-0.306-1.051-1.015-0.484
					c-0.708,0.567-1.525-1.039-1.525-1.039l-4.421-6.599l-2.036-0.162l-0.109-9.821l1.34-0.133l4.222-7.751
					c0,0,1.003-1.378,1.565,0.107c0,0,0.64-1.497,1.312-1.506c0.674-0.007,1.25,1.539,1.25,1.539s0.412-1.372,1.465-1.26
					c1.052,0.113,1.065,0.983,1.065,0.983s0.789-1.002,1.586-1.135c0.798-0.135,0.937,0.983,0.937,0.983s0.679,0.488,1.299-0.576
					c0,0,0.077-0.683,0.876-0.628c0.8,0.052,2.608,0.094,2.608,0.094s0.523-1.173,1.527-0.229c0,0,1.003,4.938,0.939,13.287
					C72.257,256.114,72.854,257.5,71.995,262.455z"/>
			</defs>
			<clipPath id="SVGID_16_">
				<use xlink:href="#SVGID_15_"  overflow="visible"/>
			</clipPath>
			<g transform="matrix(1 -1.693334e-010 8.827439e-011 1 7.978485e-007 3.593494e-006)" clip-path="url(#SVGID_16_)">
				
					<image overflow="visible" width="595" height="390" xlink:href="../../ahorroImagenes/focos-c.jpg"  transform="matrix(0.0052 0.4701 -0.3182 0.0035 146.5601 160.5742)">
				</image>
			</g>
		</g>
		<g>
			
				<image overflow="visible" opacity="0.76" width="427" height="349" xlink:href="2AA2AEF6.png"  transform="matrix(0.24 0 0 0.24 42.0166 205.002)">
			</image>
			<g>
				<g>
					<g>
						<path opacity="0.4" fill="#060000" d="M72.317,242.473l17.412-0.324c0,0,1.941-0.236,1.878,2.645l8.329-0.093l0.585-0.864
							l0.074,0.188l0.07,5.977h0.134l-1.326-1.199l-7.489,0.197l-0.777,1.536c0,0-0.079,1.439-1.57,1.456
							c-1.489,0.016-17.62,0.21-17.62,0.21L72.317,242.473z"/>
						<path fill="#FFFFFF" d="M84.829,247.036l-0.223-3.259c0,0,1.301-0.387,2.513-0.308c1.211,0.08,2.89,0.062,2.89,0.062
							s0.38,0.648,0.392,1.672c0.011,1.025,0.315,3.166,0.044,3.915c-0.272,0.749-1.199,1.132-2.41,1.333
							c-1.209,0.198-2.974,0.778-3.167,0.128C84.674,249.928,84.829,247.036,84.829,247.036z"/>
						<path fill="#FFFFFF" d="M83.606,245.042c0,0-0.123-1.6-2.173-1.576c-2.049,0.022-9.113,0.102-9.113,0.102l-0.302,8.163
							l10.345-0.106c0,0,1.396-0.066,1.473-1.653C83.911,248.387,83.606,245.042,83.606,245.042z"/>
						<polygon fill="#FFFFFF" points="98.511,246.157 90.511,246.246 90.487,248.382 98.038,248.479 99.729,249.576 99.863,244.923 
													"/>
						<g>
							<path opacity="0.4" fill="#060000" d="M90.917,251.495l0.131-0.38l20.676,7.101c1.32-2.363-0.552-5.413-0.571-5.443
								l-0.066-0.106l0.065-0.104c2.325-3.753,0.858-9.623,0.843-9.683l-0.012-0.046l0.011-0.048
								c0.69-3.006-0.379-6.397-0.674-7.244l-19.663,8.921l-0.165-0.363l20.05-9.097l0.077,0.196
								c0.064,0.165,1.571,4.074,0.774,7.629c0.149,0.609,1.403,6.081-0.838,9.839c0.35,0.604,1.892,3.531,0.428,5.897l-0.084,0.136
								L90.917,251.495z"/>
						</g>
						<g opacity="0.4">
							<polygon fill="#060000" points="101.313,249.243 101.412,246.096 113.834,242.254 113.952,242.637 101.802,246.394 
								101.721,248.981 111.197,252.962 114.412,253.411 114.356,253.807 111.066,253.341 							"/>
						</g>
						<g opacity="0.4">
							<path fill="#060000" d="M110.327,252.586c-0.005-0.529,0.544-0.97,1.228-0.978c0.682-0.008,1.241,0.42,1.247,0.95
								c0.005,0.53-0.544,0.968-1.226,0.976C110.892,253.542,110.334,253.116,110.327,252.586z M112.403,252.563
								c-0.004-0.305-0.391-0.559-0.844-0.553c-0.455,0.004-0.835,0.266-0.832,0.571s0.39,0.559,0.845,0.554
								C112.025,253.13,112.406,252.868,112.403,252.563z"/>
						</g>
						<g opacity="0.4">
							<path fill="#060000" d="M110.534,243.672c-0.006-0.563,0.571-1.03,1.287-1.038c0.716-0.007,1.303,0.446,1.31,1.009
								c0.006,0.564-0.571,1.031-1.287,1.039C111.127,244.689,110.54,244.236,110.534,243.672z M112.729,243.647
								c-0.003-0.337-0.417-0.618-0.904-0.613c-0.486,0.007-0.896,0.296-0.892,0.633c0.004,0.34,0.419,0.619,0.906,0.614
								C112.326,244.275,112.733,243.987,112.729,243.647z"/>
						</g>
					</g>
				</g>
				<defs>
					<filter id="Adobe_OpacityMaskFilter_8_" filterUnits="userSpaceOnUse" x="72.017" y="235.002" width="42.395" height="23.697">
						<feFlood  style="flood-color:white;flood-opacity:1" result="back"/>
						<feBlend  in="SourceGraphic" in2="back" mode="normal"/>
					</filter>
				</defs>
				<mask maskUnits="userSpaceOnUse" x="72.017" y="235.002" width="42.395" height="23.697" id="SVGID_17_">
					<g filter="url(#Adobe_OpacityMaskFilter_8_)">
						
							<image overflow="visible" width="194" height="116" xlink:href="2AA2AEF2.jpg"  transform="matrix(0.24 0 0 0.24 70.0166 233.002)">
						</image>
					</g>
				</mask>
				<g opacity="0.75" mask="url(#SVGID_17_)">
					<g>
						<path opacity="0.4" fill="#FFFFFF" d="M72.317,242.473l17.412-0.324c0,0,1.941-0.236,1.878,2.645l8.329-0.093l0.585-0.864
							l0.074,0.188l0.07,5.977h0.134l-1.326-1.199l-7.489,0.197l-0.777,1.536c0,0-0.079,1.439-1.57,1.456
							c-1.489,0.016-17.62,0.21-17.62,0.21L72.317,242.473z"/>
						<path fill="#FFFFFF" d="M84.829,247.036l-0.223-3.259c0,0,1.301-0.387,2.513-0.308c1.211,0.08,2.89,0.062,2.89,0.062
							s0.38,0.648,0.392,1.672c0.011,1.025,0.315,3.166,0.044,3.915c-0.272,0.749-1.199,1.132-2.41,1.333
							c-1.209,0.198-2.974,0.778-3.167,0.128C84.674,249.928,84.829,247.036,84.829,247.036z"/>
						<path fill="#FFFFFF" d="M83.606,245.042c0,0-0.123-1.6-2.173-1.576c-2.049,0.022-9.113,0.102-9.113,0.102l-0.302,8.163
							l10.345-0.106c0,0,1.396-0.066,1.473-1.653C83.911,248.387,83.606,245.042,83.606,245.042z"/>
						<polygon fill="#FFFFFF" points="98.511,246.157 90.511,246.246 90.487,248.382 98.038,248.479 99.729,249.576 99.863,244.923 
													"/>
						<g>
							<path opacity="0.4" fill="#FFFFFF" d="M90.917,251.495l0.131-0.38l20.676,7.101c1.32-2.363-0.552-5.413-0.571-5.443
								l-0.066-0.106l0.065-0.104c2.325-3.753,0.858-9.623,0.843-9.683l-0.012-0.046l0.011-0.048
								c0.69-3.006-0.379-6.397-0.674-7.244l-19.663,8.921l-0.165-0.363l20.05-9.097l0.077,0.196
								c0.064,0.165,1.571,4.074,0.774,7.629c0.149,0.609,1.403,6.081-0.838,9.839c0.35,0.604,1.892,3.531,0.428,5.897l-0.084,0.136
								L90.917,251.495z"/>
						</g>
						<g opacity="0.4">
							<polygon fill="#FFFFFF" points="101.313,249.243 101.412,246.096 113.834,242.254 113.952,242.637 101.802,246.394 
								101.721,248.981 111.197,252.962 114.412,253.411 114.356,253.807 111.066,253.341 							"/>
						</g>
						<g opacity="0.4">
							<path fill="#FFFFFF" d="M110.327,252.586c-0.005-0.529,0.544-0.97,1.228-0.978c0.682-0.008,1.241,0.42,1.247,0.95
								c0.005,0.53-0.544,0.968-1.226,0.976C110.892,253.542,110.334,253.116,110.327,252.586z M112.403,252.563
								c-0.004-0.305-0.391-0.559-0.844-0.553c-0.455,0.004-0.835,0.266-0.832,0.571s0.39,0.559,0.845,0.554
								C112.025,253.13,112.406,252.868,112.403,252.563z"/>
						</g>
						<g opacity="0.4">
							<path fill="#FFFFFF" d="M110.534,243.672c-0.006-0.563,0.571-1.03,1.287-1.038c0.716-0.007,1.303,0.446,1.31,1.009
								c0.006,0.564-0.571,1.031-1.287,1.039C111.127,244.689,110.54,244.236,110.534,243.672z M112.729,243.647
								c-0.003-0.337-0.417-0.618-0.904-0.613c-0.486,0.007-0.896,0.296-0.892,0.633c0.004,0.34,0.419,0.619,0.906,0.614
								C112.326,244.275,112.733,243.987,112.729,243.647z"/>
						</g>
					</g>
				</g>
			</g>
		</g>
		<g>
			
				<image overflow="visible" opacity="0.76" width="615" height="619" xlink:href="2AA2AEF2.png"  transform="matrix(0.24 0 0 0.24 42.3193 174.3047)">
			</image>
			<g>
				<g>
					<path opacity="0.3" fill="#EFFBFC" d="M142.533,218.724c-16.799-14.205-30.543-18.688-30.543-9.96s-8.926,15.868-19.835,15.868
						c-10.909,0-19.835,10.976-19.835,24.39s8.926,24.39,19.835,24.39c10.91,0,19.835,6.876,19.835,15.28
						c0,8.405,13.745,3.658,30.543-10.548l4.59-3.881c16.799-14.206,16.798-37.452,0-51.657L142.533,218.724z"/>
				</g>
				<defs>
					<filter id="Adobe_OpacityMaskFilter_9_" filterUnits="userSpaceOnUse" x="72.319" y="204.305" width="87.403" height="88.545">
						<feFlood  style="flood-color:white;flood-opacity:1" result="back"/>
						<feBlend  in="SourceGraphic" in2="back" mode="normal"/>
					</filter>
				</defs>
				<mask maskUnits="userSpaceOnUse" x="72.319" y="204.305" width="87.403" height="88.545" id="SVGID_18_">
					<g filter="url(#Adobe_OpacityMaskFilter_9_)">
						
							<image overflow="visible" width="381" height="386" xlink:href="2AA2AEFE.jpg"  transform="matrix(0.24 0 0 0.24 70.3193 202.3047)">
						</image>
					</g>
				</mask>
				<g opacity="0.75" mask="url(#SVGID_18_)">
					<path opacity="0.3" fill="#FFFFFF" d="M142.533,218.724c-16.799-14.205-30.543-18.688-30.543-9.96s-8.926,15.868-19.835,15.868
						c-10.909,0-19.835,10.976-19.835,24.39s8.926,24.39,19.835,24.39c10.91,0,19.835,6.876,19.835,15.28
						c0,8.405,13.745,3.658,30.543-10.548l4.59-3.881c16.799-14.206,16.798-37.452,0-51.657L142.533,218.724z"/>
				</g>
			</g>
		</g>
		<g>
			
				<image overflow="visible" opacity="0.76" width="529" height="361" xlink:href="2AA2AEFE.png"  transform="matrix(0.24 0 0 0.24 45.1108 229.1592)">
			</image>
			<g>
				<g>
					<path opacity="0.3" fill="#EFFBFC" d="M75.111,263.965c0-2.688,18-4.965,40-4.965h1.15c22,0,31.777,7.98,21.727,17.637
						c-10.05,9.658-18.273,11.896-18.273,4.927c0-6.971-10.036-12.692-22.302-12.692S75.111,266.652,75.111,263.965z"/>
				</g>
				<defs>
					<filter id="Adobe_OpacityMaskFilter_10_" filterUnits="userSpaceOnUse" x="75.111" y="259" width="66.832" height="26.623">
						<feFlood  style="flood-color:white;flood-opacity:1" result="back"/>
						<feBlend  in="SourceGraphic" in2="back" mode="normal"/>
					</filter>
				</defs>
				<mask maskUnits="userSpaceOnUse" x="75.111" y="259" width="66.832" height="26.623" id="SVGID_19_">
					<g filter="url(#Adobe_OpacityMaskFilter_10_)">
						
							<image overflow="visible" width="296" height="128" xlink:href="2AA2AEF3.jpg"  transform="matrix(0.24 0 0 0.24 73.1108 257.1592)">
						</image>
					</g>
				</mask>
				<g opacity="0.75" mask="url(#SVGID_19_)">
					<path opacity="0.3" fill="#FFFFFF" d="M75.111,263.965c0-2.688,18-4.965,40-4.965h1.15c22,0,31.777,7.98,21.727,17.637
						c-10.05,9.658-18.273,11.896-18.273,4.927c0-6.971-10.036-12.692-22.302-12.692S75.111,266.652,75.111,263.965z"/>
				</g>
			</g>
		</g>
		<g>
			
				<image overflow="visible" opacity="0.76" width="532" height="364" xlink:href="2AA2AEF5.png"  transform="matrix(0.24 0 0 0.24 45.1108 181.0508)">
			</image>
			<g>
				<g>
					<path opacity="0.3" fill="#EFFBFC" d="M138.524,220.076c10.345,9.939,0.809,17.924-21.191,17.924h-2.222
						c-22,0-40-2.063-40-4.764s10.036-4.838,22.302-4.838s22.302-5.959,22.302-13.197
						C119.715,207.962,128.179,210.137,138.524,220.076z"/>
				</g>
				<defs>
					
						<filter id="Adobe_OpacityMaskFilter_11_" filterUnits="userSpaceOnUse" x="75.111" y="210.927" width="67.592" height="27.073">
						<feFlood  style="flood-color:white;flood-opacity:1" result="back"/>
						<feBlend  in="SourceGraphic" in2="back" mode="normal"/>
					</filter>
				</defs>
				<mask maskUnits="userSpaceOnUse" x="75.111" y="210.927" width="67.592" height="27.073" id="SVGID_20_">
					<g filter="url(#Adobe_OpacityMaskFilter_11_)">
						
							<image overflow="visible" width="299" height="131" xlink:href="2AA2AEF6.jpg"  transform="matrix(0.24 0 0 0.24 73.1108 209.0508)">
						</image>
					</g>
				</mask>
				<g opacity="0.75" mask="url(#SVGID_20_)">
					<path opacity="0.3" fill="#FFFFFF" d="M138.524,220.076c10.345,9.939,0.809,17.924-21.191,17.924h-2.222
						c-22,0-40-2.063-40-4.764s10.036-4.838,22.302-4.838s22.302-5.959,22.302-13.197
						C119.715,207.962,128.179,210.137,138.524,220.076z"/>
				</g>
			</g>
		</g>
		<g>
			
				<image overflow="visible" opacity="0.76" width="470" height="364" xlink:href="2AA2AEF4.png"  transform="matrix(0.24 0 0 0.24 45.1108 177.2314)">
			</image>
			<g>
				<g>
					<path opacity="0.4" fill="#C9D8E2" d="M125.093,216.404c7.308,9.939-0.949,18.071-18.348,18.071
						c-17.399,0-31.634-2.21-31.634-4.911c0-2.702,8.257-4.912,18.348-4.912s18.348-5.922,18.348-13.16
						S117.786,206.465,125.093,216.404z"/>
				</g>
				<defs>
					
						<filter id="Adobe_OpacityMaskFilter_12_" filterUnits="userSpaceOnUse" x="75.111" y="207.231" width="52.645" height="27.244">
						<feFlood  style="flood-color:white;flood-opacity:1" result="back"/>
						<feBlend  in="SourceGraphic" in2="back" mode="normal"/>
					</filter>
				</defs>
				<mask maskUnits="userSpaceOnUse" x="75.111" y="207.231" width="52.645" height="27.244" id="SVGID_21_">
					<g filter="url(#Adobe_OpacityMaskFilter_12_)">
						
							<image overflow="visible" width="237" height="131" xlink:href="2AA2AF19.jpg"  transform="matrix(0.24 0 0 0.24 73.1108 205.2314)">
						</image>
					</g>
				</mask>
				<g opacity="0.75" mask="url(#SVGID_21_)">
					<path opacity="0.4" fill="#FFFFFF" d="M125.093,216.404c7.308,9.939-0.949,18.071-18.348,18.071
						c-17.399,0-31.634-2.21-31.634-4.911c0-2.702,8.257-4.912,18.348-4.912s18.348-5.922,18.348-13.16
						S117.786,206.465,125.093,216.404z"/>
				</g>
			</g>
		</g>
		<g opacity="0.8">
			
				<image overflow="visible" opacity="0.76" width="412" height="291" xlink:href="2AA2AF17.png"  transform="matrix(0.24 0 0 0.24 55.6895 190.4688)">
			</image>
			<g>
				<g>
					<path fill="#EFFBFC" d="M122.556,223.75c5.39,3.556-0.7,6.465-13.533,6.465s-23.333-0.791-23.333-1.757
						s6.09-1.757,13.533-1.757c7.444,0,13.534-2.118,13.534-4.708S117.166,220.194,122.556,223.75z"/>
				</g>
				<defs>
					<filter id="Adobe_OpacityMaskFilter_13_" filterUnits="userSpaceOnUse" x="85.689" y="220.469" width="38.83" height="9.746">
						<feFlood  style="flood-color:white;flood-opacity:1" result="back"/>
						<feBlend  in="SourceGraphic" in2="back" mode="normal"/>
					</filter>
				</defs>
				<mask maskUnits="userSpaceOnUse" x="85.689" y="220.469" width="38.83" height="9.746" id="SVGID_22_">
					<g filter="url(#Adobe_OpacityMaskFilter_13_)">
						
							<image overflow="visible" width="179" height="58" xlink:href="2AA2AF29.jpg"  transform="matrix(0.24 0 0 0.24 83.6895 218.4688)">
						</image>
					</g>
				</mask>
				<g opacity="0.75" mask="url(#SVGID_22_)">
					<path fill="#FFFFFF" d="M122.556,223.75c5.39,3.556-0.7,6.465-13.533,6.465s-23.333-0.791-23.333-1.757
						s6.09-1.757,13.533-1.757c7.444,0,13.534-2.118,13.534-4.708S117.166,220.194,122.556,223.75z"/>
				</g>
			</g>
		</g>
		<g opacity="0.8">
			
				<image overflow="visible" opacity="0.76" width="412" height="291" xlink:href="2AA2AF2B.png"  transform="matrix(0.24 0 0 0.24 55.6895 238.1221)">
			</image>
			<g>
				<g>
					<path fill="#EFFBFC" d="M122.556,274.587c5.39-3.556-0.7-6.465-13.533-6.465s-23.333,0.791-23.333,1.757
						c0,0.967,6.09,1.758,13.533,1.758c7.444,0,13.534,2.118,13.534,4.707C112.756,278.934,117.166,278.143,122.556,274.587z"/>
				</g>
				<defs>
					<filter id="Adobe_OpacityMaskFilter_14_" filterUnits="userSpaceOnUse" x="85.689" y="268.122" width="38.83" height="9.746">
						<feFlood  style="flood-color:white;flood-opacity:1" result="back"/>
						<feBlend  in="SourceGraphic" in2="back" mode="normal"/>
					</filter>
				</defs>
				<mask maskUnits="userSpaceOnUse" x="85.689" y="268.122" width="38.83" height="9.746" id="SVGID_23_">
					<g filter="url(#Adobe_OpacityMaskFilter_14_)">
						
							<image overflow="visible" width="179" height="58" xlink:href="2AA2AF28.jpg"  transform="matrix(0.24 0 0 0.24 83.6895 266.1221)">
						</image>
					</g>
				</mask>
				<g opacity="0.75" mask="url(#SVGID_23_)">
					<path fill="#FFFFFF" d="M122.556,274.587c5.39-3.556-0.7-6.465-13.533-6.465s-23.333,0.791-23.333,1.757
						c0,0.967,6.09,1.758,13.533,1.758c7.444,0,13.534,2.118,13.534,4.707C112.756,278.934,117.166,278.143,122.556,274.587z"/>
				</g>
			</g>
		</g>
		<g>
			
				<image overflow="visible" opacity="0.76" width="470" height="364" xlink:href="2AA2AF2F.png"  transform="matrix(0.24 0 0 0.24 45.1108 233.8613)">
			</image>
			<g>
				<g>
					<path opacity="0.4" fill="#C9D8E2" d="M125.093,281.934c7.308-9.939-0.949-18.072-18.348-18.072
						c-17.399,0-31.634,2.211-31.634,4.912s8.257,4.912,18.348,4.912s18.348,5.922,18.348,13.16S117.786,291.873,125.093,281.934z"
						/>
				</g>
				<defs>
					
						<filter id="Adobe_OpacityMaskFilter_15_" filterUnits="userSpaceOnUse" x="75.111" y="263.861" width="52.645" height="27.245">
						<feFlood  style="flood-color:white;flood-opacity:1" result="back"/>
						<feBlend  in="SourceGraphic" in2="back" mode="normal"/>
					</filter>
				</defs>
				<mask maskUnits="userSpaceOnUse" x="75.111" y="263.861" width="52.645" height="27.245" id="SVGID_24_">
					<g filter="url(#Adobe_OpacityMaskFilter_15_)">
						
							<image overflow="visible" width="237" height="131" xlink:href="2AA2AF2B.jpg"  transform="matrix(0.24 0 0 0.24 73.1108 261.8613)">
						</image>
					</g>
				</mask>
				<g opacity="0.75" mask="url(#SVGID_24_)">
					<path opacity="0.4" fill="#FFFFFF" d="M125.093,281.934c7.308-9.939-0.949-18.072-18.348-18.072
						c-17.399,0-31.634,2.211-31.634,4.912s8.257,4.912,18.348,4.912s18.348,5.922,18.348,13.16S117.786,291.873,125.093,281.934z"
						/>
				</g>
			</g>
		</g>
		<path opacity="0.8" fill="#EFFBFC" d="M81.086,228.207c0,0-4.897-1.861-7.738,5.093l0.392,31.443c0,0,0.979,6.759,7.444,4.8
			C81.184,269.543,75.013,241.332,81.086,228.207z"/>
	</g>
	<text transform="matrix(1 0 0 1 78.3335 137.333)" display="inline" font-family="'MyriadPro-Regular'" font-size="12">Siguiente</text>
</g>
</svg>
